<mxfile modified="2022-12-08T01:15:05.831Z" host="app.diagrams.net" agent="5.0 (Macintosh; Intel Mac OS X 10_15_7) AppleWebKit/537.36 (KHTML, like Gecko) Chrome/107.0.0.0 Safari/537.36" etag="bn1InbnD5TEdLYHnfTEE" version="20.6.0" type="github" pages="3">
  <diagram id="Ht1M8jgEwFfnCIfOTk4-" name="Archtecture Diagram">
    <mxGraphModel dx="5243" dy="2360" grid="1" gridSize="10" guides="1" tooltips="1" connect="1" arrows="1" fold="1" page="1" pageScale="1" pageWidth="1169" pageHeight="827" math="0" shadow="0">
      <root>
        <mxCell id="0" />
        <mxCell id="1" parent="0" />
        <mxCell id="IjFcAa4tshSwiuuZzXQG-3" value="" style="rounded=0;whiteSpace=wrap;html=1;shadow=0;glass=0;labelBackgroundColor=none;labelBorderColor=none;sketch=0;fontSize=36;fontColor=#FF4D0D;strokeColor=none;strokeWidth=5;fillColor=#DBDBDB;gradientColor=none;gradientDirection=radial;align=left;rotation=30;opacity=50;" parent="1" vertex="1">
          <mxGeometry x="561.28" y="138.6" width="560.22" height="310.98" as="geometry" />
        </mxCell>
        <mxCell id="IjFcAa4tshSwiuuZzXQG-2" value="" style="rounded=0;whiteSpace=wrap;html=1;shadow=0;glass=0;labelBackgroundColor=none;labelBorderColor=none;sketch=0;fontSize=36;fontColor=#FF4D0D;strokeColor=none;strokeWidth=5;fillColor=#DBDBDB;gradientColor=none;gradientDirection=radial;align=left;rotation=30;opacity=50;" parent="1" vertex="1">
          <mxGeometry x="-178.54" y="471.27" width="1172.41" height="548.18" as="geometry" />
        </mxCell>
        <mxCell id="IjFcAa4tshSwiuuZzXQG-1" value="" style="rounded=0;whiteSpace=wrap;html=1;shadow=0;glass=0;labelBackgroundColor=none;labelBorderColor=none;sketch=0;fontSize=36;fontColor=#FF4D0D;strokeColor=none;strokeWidth=5;fillColor=#DBDBDB;gradientColor=none;gradientDirection=radial;align=left;rotation=30;opacity=50;" parent="1" vertex="1">
          <mxGeometry x="-700" y="1061.5" width="897.44" height="390.72" as="geometry" />
        </mxCell>
        <mxCell id="DplYavzV-9H3PHswHzTO-3" value="" style="verticalLabelPosition=bottom;html=1;verticalAlign=top;strokeWidth=1;dashed=0;shape=mxgraph.aws3d.flatDoubleEdge;fillColor=#000000;aspect=fixed;rounded=1;shadow=0;comic=0;fontFamily=Verdana;fontSize=12;flipV=1;rotation=60;" parent="1" vertex="1">
          <mxGeometry x="-606.4699999999999" y="1010" width="736.57" height="420.08" as="geometry" />
        </mxCell>
        <mxCell id="DplYavzV-9H3PHswHzTO-4" value="&lt;span style=&quot;font-size: 30px&quot;&gt;&lt;b&gt;&lt;font color=&quot;#ffffff&quot;&gt;Auto &lt;br&gt;Scaling&lt;/font&gt;&lt;/b&gt;&lt;/span&gt;" style="text;html=1;align=center;verticalAlign=middle;resizable=0;points=[];autosize=1;strokeColor=none;fillColor=none;rotation=30;" parent="1" vertex="1">
          <mxGeometry x="-289.40000000000003" y="1204" width="120" height="50" as="geometry" />
        </mxCell>
        <mxCell id="zuvxYvsVuyJw35V6x5Qn-1" value="" style="verticalLabelPosition=bottom;html=1;verticalAlign=top;strokeWidth=1;dashed=0;shape=mxgraph.aws3d.flatDoubleEdge;fillColor=#000000;aspect=fixed;rounded=1;shadow=0;comic=0;fontFamily=Verdana;fontSize=12;flipV=1;rotation=60;" parent="1" vertex="1">
          <mxGeometry x="-122.62" y="500.00000000000006" width="1002.62" height="571.81" as="geometry" />
        </mxCell>
        <mxCell id="yw9kTV0vtZRtyA5Kd-NA-7" value="&lt;font style=&quot;font-size: 72px&quot;&gt;AWS Architecture Diagram&lt;/font&gt;" style="text;html=1;align=center;verticalAlign=middle;resizable=0;points=[];autosize=1;fontSize=22;rounded=0;" parent="1" vertex="1">
          <mxGeometry x="-1117.2" y="70" width="870" height="50" as="geometry" />
        </mxCell>
        <mxCell id="APOkxOs7tl1a9y1-Q86Q-4" value="" style="edgeStyle=isometricEdgeStyle;endArrow=none;html=1;labelBackgroundColor=none;strokeWidth=5;fontFamily=Verdana;fontSize=12" parent="1" target="HjWQWZOb59sjMMaNwNR0-3" edge="1">
          <mxGeometry width="50" height="100" relative="1" as="geometry">
            <mxPoint x="-408.76" y="1360.0000000000005" as="sourcePoint" />
            <mxPoint x="-498.76" y="1120" as="targetPoint" />
            <Array as="points">
              <mxPoint x="-458.76" y="1260" />
            </Array>
          </mxGeometry>
        </mxCell>
        <mxCell id="APOkxOs7tl1a9y1-Q86Q-50" value="" style="verticalLabelPosition=bottom;html=1;verticalAlign=top;strokeWidth=1;align=center;outlineConnect=0;dashed=0;outlineConnect=0;shape=mxgraph.aws3d.route53;fillColor=#ECECEC;strokeColor=#5E5E5E;aspect=fixed;rounded=0;fontSize=32;" parent="1" vertex="1">
          <mxGeometry x="-1020" y="1330" width="114.21" height="131" as="geometry" />
        </mxCell>
        <mxCell id="APOkxOs7tl1a9y1-Q86Q-51" value="&lt;font style=&quot;font-size: 30px&quot;&gt;&lt;b&gt;Route 53&lt;/b&gt;&lt;/font&gt;" style="text;html=1;align=center;verticalAlign=middle;resizable=0;points=[];autosize=1;strokeColor=none;fillColor=none;rotation=35;fontColor=#CCCC00;" parent="1" vertex="1">
          <mxGeometry x="-1070" y="1457.5" width="140" height="30" as="geometry" />
        </mxCell>
        <mxCell id="APOkxOs7tl1a9y1-Q86Q-52" value="&lt;font color=&quot;#cccc00&quot;&gt;&lt;font size=&quot;1&quot;&gt;&lt;b style=&quot;font-size: 30px&quot;&gt;Users&lt;/b&gt;&lt;/font&gt;&lt;br&gt;&lt;/font&gt;" style="text;html=1;align=center;verticalAlign=middle;resizable=0;points=[];autosize=1;strokeColor=none;fillColor=none;rotation=30;" parent="1" vertex="1">
          <mxGeometry x="-745" y="1590" width="100" height="30" as="geometry" />
        </mxCell>
        <mxCell id="APOkxOs7tl1a9y1-Q86Q-53" value="" style="verticalLabelPosition=bottom;html=1;verticalAlign=top;strokeWidth=1;align=center;outlineConnect=0;dashed=0;outlineConnect=0;shape=mxgraph.aws3d.end_user;strokeColor=none;fillColor=#777777;aspect=fixed;rounded=0;fontSize=42;" parent="1" vertex="1">
          <mxGeometry x="-710" y="1480" width="55.6" height="114" as="geometry" />
        </mxCell>
        <mxCell id="APOkxOs7tl1a9y1-Q86Q-56" value="" style="edgeStyle=isometricEdgeStyle;endArrow=none;html=1;labelBackgroundColor=none;strokeWidth=5;fontFamily=Verdana;fontSize=12" parent="1" edge="1">
          <mxGeometry width="50" height="100" relative="1" as="geometry">
            <mxPoint x="-914.94" y="1429.77" as="sourcePoint" />
            <mxPoint x="-720.94" y="1539.77" as="targetPoint" />
            <Array as="points">
              <mxPoint x="-874.94" y="1449.77" />
              <mxPoint x="-814.94" y="1479.77" />
              <mxPoint x="-607.79" y="1991.94" />
            </Array>
          </mxGeometry>
        </mxCell>
        <mxCell id="APOkxOs7tl1a9y1-Q86Q-57" value="1" style="ellipse;whiteSpace=wrap;html=1;aspect=fixed;strokeWidth=10;fontFamily=Tahoma;spacingBottom=4;spacingRight=2;strokeColor=#3819FF;rounded=0;fontSize=42;rotation=-30;" parent="1" vertex="1">
          <mxGeometry x="-1130" y="1239" width="50" height="50" as="geometry" />
        </mxCell>
        <mxCell id="APOkxOs7tl1a9y1-Q86Q-58" value="&lt;font color=&quot;#3819ff&quot; size=&quot;1&quot;&gt;&lt;b style=&quot;font-size: 30px&quot;&gt;DNS Resoluation&lt;/b&gt;&lt;/font&gt;" style="text;html=1;align=center;verticalAlign=middle;resizable=0;points=[];autosize=1;strokeColor=none;fillColor=none;rotation=-30;" parent="1" vertex="1">
          <mxGeometry x="-1169" y="1280" width="260" height="30" as="geometry" />
        </mxCell>
        <mxCell id="APOkxOs7tl1a9y1-Q86Q-61" value="" style="verticalLabelPosition=bottom;html=1;verticalAlign=top;strokeWidth=1;align=center;outlineConnect=0;dashed=0;outlineConnect=0;shape=mxgraph.aws3d.elasticLoadBalancing;fillColor=#ECECEC;strokeColor=#5E5E5E;aspect=fixed;rounded=0;fontSize=42;" parent="1" vertex="1">
          <mxGeometry x="-529.9999999999999" y="1340" width="117.38" height="112.5" as="geometry" />
        </mxCell>
        <mxCell id="APOkxOs7tl1a9y1-Q86Q-65" value="&lt;font color=&quot;#cccc00&quot;&gt;&lt;font style=&quot;font-size: 30px&quot;&gt;&lt;b&gt;Load Balancer&lt;/b&gt;&lt;/font&gt;&lt;br&gt;&lt;/font&gt;" style="text;html=1;align=center;verticalAlign=middle;resizable=0;points=[];autosize=1;strokeColor=none;fillColor=none;rotation=30;" parent="1" vertex="1">
          <mxGeometry x="-530" y="1510" width="220" height="30" as="geometry" />
        </mxCell>
        <mxCell id="HjWQWZOb59sjMMaNwNR0-1" value="" style="edgeStyle=isometricEdgeStyle;endArrow=none;html=1;labelBackgroundColor=none;strokeWidth=5;fontFamily=Verdana;fontSize=12" parent="1" source="APOkxOs7tl1a9y1-Q86Q-61" target="HjWQWZOb59sjMMaNwNR0-15" edge="1">
          <mxGeometry width="50" height="100" relative="1" as="geometry">
            <mxPoint x="-198.76000000000022" y="1384.0000000000005" as="sourcePoint" />
            <mxPoint y="1410" as="targetPoint" />
            <Array as="points">
              <mxPoint x="-250" y="1380" />
            </Array>
          </mxGeometry>
        </mxCell>
        <mxCell id="HjWQWZOb59sjMMaNwNR0-3" value="" style="verticalLabelPosition=bottom;html=1;verticalAlign=top;strokeWidth=1;align=center;outlineConnect=0;dashed=0;outlineConnect=0;shape=mxgraph.aws3d.application_server;fillColor=#ECECEC;strokeColor=#5E5E5E;aspect=fixed;rounded=0;fontSize=20;fontColor=#3819FF;opacity=30;" parent="1" vertex="1">
          <mxGeometry x="-515.6199999999999" y="1020" width="123" height="124" as="geometry" />
        </mxCell>
        <mxCell id="HjWQWZOb59sjMMaNwNR0-5" value="&lt;font color=&quot;#cccc00&quot;&gt;&lt;font style=&quot;font-size: 30px&quot;&gt;&lt;b&gt;Web Servers&lt;/b&gt;&lt;/font&gt;&lt;br&gt;&lt;/font&gt;" style="text;html=1;align=center;verticalAlign=middle;resizable=0;points=[];autosize=1;strokeColor=none;fillColor=none;rotation=30;" parent="1" vertex="1">
          <mxGeometry x="-400" y="1259" width="200" height="30" as="geometry" />
        </mxCell>
        <mxCell id="HjWQWZOb59sjMMaNwNR0-6" value="2" style="ellipse;whiteSpace=wrap;html=1;aspect=fixed;strokeWidth=10;fontFamily=Tahoma;spacingBottom=4;spacingRight=2;strokeColor=#3819FF;rounded=0;fontSize=42;rotation=-30;" parent="1" vertex="1">
          <mxGeometry x="-720" y="1290" width="50" height="50" as="geometry" />
        </mxCell>
        <mxCell id="HjWQWZOb59sjMMaNwNR0-7" value="&lt;font color=&quot;#3819ff&quot;&gt;&lt;span style=&quot;font-size: 30px&quot;&gt;&lt;b&gt;Load Balancing&lt;/b&gt;&lt;/span&gt;&lt;/font&gt;" style="text;html=1;align=center;verticalAlign=middle;resizable=0;points=[];autosize=1;strokeColor=none;fillColor=none;rotation=-30;" parent="1" vertex="1">
          <mxGeometry x="-705" y="1310" width="240" height="30" as="geometry" />
        </mxCell>
        <mxCell id="HjWQWZOb59sjMMaNwNR0-11" value="" style="verticalLabelPosition=bottom;html=1;verticalAlign=top;strokeWidth=1;align=center;outlineConnect=0;dashed=0;outlineConnect=0;shape=mxgraph.aws3d.application_server;fillColor=#ECECEC;strokeColor=#5E5E5E;aspect=fixed;rounded=0;fontSize=20;fontColor=#3819FF;" parent="1" vertex="1">
          <mxGeometry x="-421.18" y="1080" width="123" height="124" as="geometry" />
        </mxCell>
        <mxCell id="HjWQWZOb59sjMMaNwNR0-14" value="" style="verticalLabelPosition=bottom;html=1;verticalAlign=top;strokeWidth=1;align=center;outlineConnect=0;dashed=0;outlineConnect=0;shape=mxgraph.aws3d.application_server;fillColor=#ECECEC;strokeColor=#5E5E5E;aspect=fixed;rounded=0;fontSize=20;fontColor=#3819FF;" parent="1" vertex="1">
          <mxGeometry x="-160" y="1216" width="123" height="124" as="geometry" />
        </mxCell>
        <mxCell id="HjWQWZOb59sjMMaNwNR0-15" value="" style="verticalLabelPosition=bottom;html=1;verticalAlign=top;strokeWidth=1;align=center;outlineConnect=0;dashed=0;outlineConnect=0;shape=mxgraph.aws3d.application_server;fillColor=#ECECEC;strokeColor=#5E5E5E;aspect=fixed;rounded=0;fontSize=20;fontColor=#3819FF;opacity=30;" parent="1" vertex="1">
          <mxGeometry x="-70" y="1279" width="123" height="124" as="geometry" />
        </mxCell>
        <mxCell id="jLNKredJnKN6a5hXk-XU-1" value="" style="edgeStyle=isometricEdgeStyle;endArrow=none;html=1;labelBackgroundColor=none;strokeWidth=5;fontFamily=Verdana;fontSize=12" parent="1" target="HjWQWZOb59sjMMaNwNR0-11" edge="1">
          <mxGeometry width="50" height="100" relative="1" as="geometry">
            <mxPoint x="-510" y="1230" as="sourcePoint" />
            <mxPoint x="-420" y="1160" as="targetPoint" />
            <Array as="points" />
          </mxGeometry>
        </mxCell>
        <mxCell id="jLNKredJnKN6a5hXk-XU-3" value="" style="edgeStyle=isometricEdgeStyle;endArrow=none;html=1;labelBackgroundColor=none;strokeWidth=5;fontFamily=Verdana;fontSize=12" parent="1" edge="1">
          <mxGeometry width="50" height="100" relative="1" as="geometry">
            <mxPoint x="-240" y="1380" as="sourcePoint" />
            <mxPoint x="-140" y="1320" as="targetPoint" />
            <Array as="points" />
          </mxGeometry>
        </mxCell>
        <mxCell id="jLNKredJnKN6a5hXk-XU-4" value="" style="edgeStyle=isometricEdgeStyle;endArrow=none;html=1;labelBackgroundColor=none;strokeWidth=5;fontFamily=Verdana;fontSize=12" parent="1" source="HjWQWZOb59sjMMaNwNR0-15" edge="1">
          <mxGeometry width="50" height="100" relative="1" as="geometry">
            <mxPoint x="-189.99999999999977" y="1028.9753127012614" as="sourcePoint" />
            <mxPoint x="60" y="1020" as="targetPoint" />
            <Array as="points">
              <mxPoint y="1200" />
              <mxPoint x="-150" y="1090" />
              <mxPoint x="-120" y="1110" />
              <mxPoint x="-110" y="1090" />
              <mxPoint x="-170" y="1080" />
              <mxPoint x="30" y="1110" />
            </Array>
          </mxGeometry>
        </mxCell>
        <mxCell id="jLNKredJnKN6a5hXk-XU-6" value="" style="edgeStyle=isometricEdgeStyle;endArrow=none;html=1;labelBackgroundColor=none;strokeWidth=5;fontFamily=Verdana;fontSize=12" parent="1" source="HjWQWZOb59sjMMaNwNR0-3" edge="1">
          <mxGeometry width="50" height="100" relative="1" as="geometry">
            <mxPoint x="-178.17000000000021" y="1102.4900000000005" as="sourcePoint" />
            <mxPoint x="60" y="1020" as="targetPoint" />
            <Array as="points">
              <mxPoint x="-220" y="1070" />
            </Array>
          </mxGeometry>
        </mxCell>
        <mxCell id="jLNKredJnKN6a5hXk-XU-7" value="" style="edgeStyle=isometricEdgeStyle;endArrow=none;html=1;labelBackgroundColor=none;strokeWidth=5;fontFamily=Verdana;fontSize=12" parent="1" edge="1">
          <mxGeometry width="50" height="100" relative="1" as="geometry">
            <mxPoint x="-320" y="1102.49" as="sourcePoint" />
            <mxPoint x="-250" y="1060" as="targetPoint" />
            <Array as="points" />
          </mxGeometry>
        </mxCell>
        <mxCell id="jLNKredJnKN6a5hXk-XU-8" value="" style="edgeStyle=isometricEdgeStyle;endArrow=none;html=1;labelBackgroundColor=none;strokeWidth=5;fontFamily=Verdana;fontSize=12" parent="1" edge="1">
          <mxGeometry width="50" height="100" relative="1" as="geometry">
            <mxPoint x="-50" y="1240.4900000000002" as="sourcePoint" />
            <mxPoint y="1210" as="targetPoint" />
            <Array as="points" />
          </mxGeometry>
        </mxCell>
        <mxCell id="jLNKredJnKN6a5hXk-XU-9" value="" style="verticalLabelPosition=bottom;html=1;verticalAlign=top;strokeWidth=1;dashed=0;shape=mxgraph.aws3d.dashedArrowlessEdge;aspect=fixed;rounded=1;shadow=0;comic=0;fontFamily=Verdana;fontSize=12" parent="1" vertex="1">
          <mxGeometry x="-1160" y="492.34" width="2026.3" height="1154.66" as="geometry" />
        </mxCell>
        <mxCell id="APOkxOs7tl1a9y1-Q86Q-42" value="" style="verticalLabelPosition=bottom;html=1;verticalAlign=top;strokeWidth=1;dashed=0;shape=mxgraph.aws3d.dashedArrowlessEdge;aspect=fixed;rounded=1;shadow=0;comic=0;fontFamily=Verdana;fontSize=12" parent="1" vertex="1">
          <mxGeometry x="-1130" y="1169.25" width="831.82" height="474" as="geometry" />
        </mxCell>
        <mxCell id="APOkxOs7tl1a9y1-Q86Q-62" value="" style="edgeStyle=isometricEdgeStyle;endArrow=none;html=1;labelBackgroundColor=none;strokeWidth=5;fontFamily=Verdana;fontSize=12" parent="1" edge="1">
          <mxGeometry width="50" height="100" relative="1" as="geometry">
            <mxPoint x="-650" y="1520" as="sourcePoint" />
            <mxPoint x="-510" y="1440" as="targetPoint" />
            <Array as="points" />
          </mxGeometry>
        </mxCell>
        <mxCell id="jLNKredJnKN6a5hXk-XU-11" value="3" style="ellipse;whiteSpace=wrap;html=1;aspect=fixed;strokeWidth=10;fontFamily=Tahoma;spacingBottom=4;spacingRight=2;strokeColor=#3819FF;rounded=0;fontSize=42;rotation=-30;" parent="1" vertex="1">
          <mxGeometry x="-654.4" y="970" width="50" height="50" as="geometry" />
        </mxCell>
        <mxCell id="jLNKredJnKN6a5hXk-XU-12" value="&lt;font color=&quot;#3819ff&quot;&gt;&lt;span style=&quot;font-size: 30px&quot;&gt;&lt;b&gt;Load Static Content&lt;br&gt;&lt;/b&gt;&lt;/span&gt;&lt;/font&gt;" style="text;html=1;align=center;verticalAlign=middle;resizable=0;points=[];autosize=1;strokeColor=none;fillColor=none;rotation=-30;" parent="1" vertex="1">
          <mxGeometry x="-680" y="1002.5" width="300" height="30" as="geometry" />
        </mxCell>
        <mxCell id="jLNKredJnKN6a5hXk-XU-14" value="" style="edgeStyle=isometricEdgeStyle;endArrow=none;html=1;labelBackgroundColor=none;strokeWidth=5;fontFamily=Verdana;fontSize=12" parent="1" target="jLNKredJnKN6a5hXk-XU-17" edge="1">
          <mxGeometry width="50" height="100" relative="1" as="geometry">
            <mxPoint x="141.8299999999998" y="932.4900000000005" as="sourcePoint" />
            <mxPoint x="-230" y="530" as="targetPoint" />
            <Array as="points">
              <mxPoint x="91.83000000000004" y="832.49" />
            </Array>
          </mxGeometry>
        </mxCell>
        <mxCell id="jLNKredJnKN6a5hXk-XU-15" value="" style="verticalLabelPosition=bottom;html=1;verticalAlign=top;strokeWidth=1;dashed=0;shape=mxgraph.aws3d.dashedArrowlessEdge;aspect=fixed;rounded=1;shadow=0;comic=0;fontFamily=Verdana;fontSize=12" parent="1" vertex="1">
          <mxGeometry x="-230" width="1386.36" height="790" as="geometry" />
        </mxCell>
        <mxCell id="jLNKredJnKN6a5hXk-XU-16" value="" style="edgeStyle=isometricEdgeStyle;endArrow=none;html=1;labelBackgroundColor=none;strokeWidth=5;fontFamily=Verdana;fontSize=12" parent="1" target="jLNKredJnKN6a5hXk-XU-18" edge="1">
          <mxGeometry width="50" height="100" relative="1" as="geometry">
            <mxPoint x="140.0000000000001" y="934.6453127012612" as="sourcePoint" />
            <mxPoint x="870" y="1140" as="targetPoint" />
            <Array as="points">
              <mxPoint x="302.62" y="952.28" />
            </Array>
          </mxGeometry>
        </mxCell>
        <mxCell id="jLNKredJnKN6a5hXk-XU-17" value="" style="verticalLabelPosition=bottom;html=1;verticalAlign=top;strokeWidth=1;align=center;outlineConnect=0;dashed=0;outlineConnect=0;shape=mxgraph.aws3d.application_server;fillColor=#ECECEC;strokeColor=#5E5E5E;aspect=fixed;rounded=0;fontSize=20;fontColor=#3819FF;opacity=30;" parent="1" vertex="1">
          <mxGeometry x="19.999999999999993" y="532.5" width="123" height="124" as="geometry" />
        </mxCell>
        <mxCell id="jLNKredJnKN6a5hXk-XU-18" value="" style="verticalLabelPosition=bottom;html=1;verticalAlign=top;strokeWidth=1;align=center;outlineConnect=0;dashed=0;outlineConnect=0;shape=mxgraph.aws3d.application_server;fillColor=#ECECEC;strokeColor=#5E5E5E;aspect=fixed;rounded=0;fontSize=20;fontColor=#3819FF;opacity=30;" parent="1" vertex="1">
          <mxGeometry x="593.3" y="878.5" width="123" height="124" as="geometry" />
        </mxCell>
        <mxCell id="jLNKredJnKN6a5hXk-XU-19" value="" style="verticalLabelPosition=bottom;html=1;verticalAlign=top;strokeWidth=1;align=center;outlineConnect=0;dashed=0;outlineConnect=0;shape=mxgraph.aws3d.application_server;fillColor=#ECECEC;strokeColor=#5E5E5E;aspect=fixed;rounded=0;fontSize=20;fontColor=#3819FF;" parent="1" vertex="1">
          <mxGeometry x="119.99999999999994" y="590" width="123" height="124" as="geometry" />
        </mxCell>
        <mxCell id="jLNKredJnKN6a5hXk-XU-20" value="" style="verticalLabelPosition=bottom;html=1;verticalAlign=top;strokeWidth=1;align=center;outlineConnect=0;dashed=0;outlineConnect=0;shape=mxgraph.aws3d.application_server;fillColor=#ECECEC;strokeColor=#5E5E5E;aspect=fixed;rounded=0;fontSize=20;fontColor=#3819FF;" parent="1" vertex="1">
          <mxGeometry x="489.29999999999995" y="810" width="123" height="124" as="geometry" />
        </mxCell>
        <mxCell id="jLNKredJnKN6a5hXk-XU-21" value="" style="edgeStyle=isometricEdgeStyle;endArrow=none;html=1;labelBackgroundColor=none;strokeWidth=5;fontFamily=Verdana;fontSize=12" parent="1" target="jLNKredJnKN6a5hXk-XU-19" edge="1">
          <mxGeometry width="50" height="100" relative="1" as="geometry">
            <mxPoint x="-20" y="770" as="sourcePoint" />
            <mxPoint x="120" y="690" as="targetPoint" />
            <Array as="points" />
          </mxGeometry>
        </mxCell>
        <mxCell id="jLNKredJnKN6a5hXk-XU-22" value="" style="edgeStyle=isometricEdgeStyle;endArrow=none;html=1;labelBackgroundColor=none;strokeWidth=5;fontFamily=Verdana;fontSize=12" parent="1" edge="1">
          <mxGeometry width="50" height="100" relative="1" as="geometry">
            <mxPoint x="349.3" y="980.5" as="sourcePoint" />
            <mxPoint x="489.3" y="900.5" as="targetPoint" />
            <Array as="points" />
          </mxGeometry>
        </mxCell>
        <mxCell id="jLNKredJnKN6a5hXk-XU-23" value="&lt;font color=&quot;#cccc00&quot;&gt;&lt;span style=&quot;font-size: 30px&quot;&gt;&lt;b&gt;Web Application Servers&lt;/b&gt;&lt;/span&gt;&lt;br&gt;&lt;/font&gt;" style="text;html=1;align=center;verticalAlign=middle;resizable=0;points=[];autosize=1;strokeColor=none;fillColor=none;rotation=30;" parent="1" vertex="1">
          <mxGeometry x="89.99999999999997" y="800" width="370" height="30" as="geometry" />
        </mxCell>
        <mxCell id="jLNKredJnKN6a5hXk-XU-24" value="4" style="ellipse;whiteSpace=wrap;html=1;aspect=fixed;strokeWidth=10;fontFamily=Tahoma;spacingBottom=4;spacingRight=2;strokeColor=#3819FF;rounded=0;fontSize=42;rotation=-30;" parent="1" vertex="1">
          <mxGeometry x="-254.39999999999998" y="500" width="50" height="50" as="geometry" />
        </mxCell>
        <mxCell id="jLNKredJnKN6a5hXk-XU-25" value="&lt;font color=&quot;#3819ff&quot;&gt;&lt;span style=&quot;font-size: 30px&quot;&gt;&lt;b&gt;Execute Business Logic&lt;/b&gt;&lt;/span&gt;&lt;br&gt;&lt;/font&gt;" style="text;html=1;align=center;verticalAlign=middle;resizable=0;points=[];autosize=1;strokeColor=none;fillColor=none;rotation=-30;" parent="1" vertex="1">
          <mxGeometry x="-310" y="532.5" width="360" height="30" as="geometry" />
        </mxCell>
        <mxCell id="jLNKredJnKN6a5hXk-XU-29" value="&lt;font color=&quot;#cccc00&quot;&gt;&lt;span style=&quot;font-size: 30px&quot;&gt;&lt;b&gt;Database Server&lt;/b&gt;&lt;/span&gt;&lt;br&gt;&lt;/font&gt;" style="text;html=1;align=center;verticalAlign=middle;resizable=0;points=[];autosize=1;strokeColor=none;fillColor=none;rotation=30;" parent="1" vertex="1">
          <mxGeometry x="880" y="240" width="250" height="30" as="geometry" />
        </mxCell>
        <mxCell id="jLNKredJnKN6a5hXk-XU-30" value="" style="edgeStyle=isometricEdgeStyle;endArrow=none;html=1;labelBackgroundColor=none;strokeWidth=5;fontFamily=Verdana;fontSize=12;entryX=0.238;entryY=0.87;entryDx=0;entryDy=0;entryPerimeter=0;" parent="1" source="jLNKredJnKN6a5hXk-XU-18" target="jLNKredJnKN6a5hXk-XU-27" edge="1">
          <mxGeometry width="50" height="100" relative="1" as="geometry">
            <mxPoint x="741.18" y="637.0729584448383" as="sourcePoint" />
            <mxPoint x="820" y="460" as="targetPoint" />
            <Array as="points">
              <mxPoint x="710" y="640" />
              <mxPoint x="538.18" y="421.58000000000004" />
              <mxPoint x="568.18" y="441.58000000000004" />
              <mxPoint x="578.18" y="421.58000000000004" />
              <mxPoint x="518.18" y="411.58000000000004" />
              <mxPoint x="718.18" y="441.58000000000004" />
            </Array>
          </mxGeometry>
        </mxCell>
        <mxCell id="jLNKredJnKN6a5hXk-XU-31" value="" style="edgeStyle=isometricEdgeStyle;endArrow=none;html=1;labelBackgroundColor=none;strokeWidth=5;fontFamily=Verdana;fontSize=12;entryX=0.223;entryY=0.871;entryDx=0;entryDy=0;entryPerimeter=0;" parent="1" source="jLNKredJnKN6a5hXk-XU-17" target="jLNKredJnKN6a5hXk-XU-27" edge="1">
          <mxGeometry width="50" height="100" relative="1" as="geometry">
            <mxPoint x="295.5600000000005" y="378.07295844483826" as="sourcePoint" />
            <mxPoint x="748.18" y="351.58000000000004" as="targetPoint" />
            <Array as="points">
              <mxPoint x="490" y="510" />
            </Array>
          </mxGeometry>
        </mxCell>
        <mxCell id="jLNKredJnKN6a5hXk-XU-32" value="" style="edgeStyle=isometricEdgeStyle;endArrow=none;html=1;labelBackgroundColor=none;strokeWidth=5;fontFamily=Verdana;fontSize=12" parent="1" source="jLNKredJnKN6a5hXk-XU-19" edge="1">
          <mxGeometry width="50" height="100" relative="1" as="geometry">
            <mxPoint x="368.17999999999995" y="434.0699999999998" as="sourcePoint" />
            <mxPoint x="460" y="490" as="targetPoint" />
            <Array as="points" />
          </mxGeometry>
        </mxCell>
        <mxCell id="jLNKredJnKN6a5hXk-XU-33" value="" style="edgeStyle=isometricEdgeStyle;endArrow=none;html=1;labelBackgroundColor=none;strokeWidth=5;fontFamily=Verdana;fontSize=12" parent="1" source="jLNKredJnKN6a5hXk-XU-20" edge="1">
          <mxGeometry width="50" height="100" relative="1" as="geometry">
            <mxPoint x="638.18" y="572.0700000000003" as="sourcePoint" />
            <mxPoint x="830" y="710" as="targetPoint" />
            <Array as="points" />
          </mxGeometry>
        </mxCell>
        <mxCell id="jLNKredJnKN6a5hXk-XU-34" value="5" style="ellipse;whiteSpace=wrap;html=1;aspect=fixed;strokeWidth=10;fontFamily=Tahoma;spacingBottom=4;spacingRight=2;strokeColor=#3819FF;rounded=0;fontSize=42;rotation=-30;" parent="1" vertex="1">
          <mxGeometry x="345.6" y="160" width="50" height="50" as="geometry" />
        </mxCell>
        <mxCell id="jLNKredJnKN6a5hXk-XU-35" value="&lt;font color=&quot;#3819ff&quot;&gt;&lt;span style=&quot;font-size: 30px&quot;&gt;&lt;b&gt;Execute Transaction&lt;/b&gt;&lt;/span&gt;&lt;br&gt;&lt;/font&gt;" style="text;html=1;align=center;verticalAlign=middle;resizable=0;points=[];autosize=1;strokeColor=none;fillColor=none;rotation=-30;" parent="1" vertex="1">
          <mxGeometry x="327.3" y="190" width="310" height="30" as="geometry" />
        </mxCell>
        <mxCell id="jLNKredJnKN6a5hXk-XU-27" value="" style="verticalLabelPosition=bottom;html=1;verticalAlign=top;strokeWidth=1;align=center;outlineConnect=0;dashed=0;outlineConnect=0;shape=mxgraph.aws3d.application_server;fillColor=#ECECEC;strokeColor=#5E5E5E;aspect=fixed;rounded=0;fontSize=20;fontColor=#3819FF;" parent="1" vertex="1">
          <mxGeometry x="780" y="250" width="228.15" height="230" as="geometry" />
        </mxCell>
        <mxCell id="jLNKredJnKN6a5hXk-XU-36" value="" style="strokeWidth=5;html=1;shape=mxgraph.flowchart.database;whiteSpace=wrap;rounded=0;fontSize=72;fontColor=#3819FF;" parent="1" vertex="1">
          <mxGeometry x="955" y="320" width="100" height="123" as="geometry" />
        </mxCell>
        <mxCell id="DplYavzV-9H3PHswHzTO-1" value="&lt;span style=&quot;font-size: 30px&quot;&gt;&lt;b&gt;&lt;font color=&quot;#ffffff&quot;&gt;Auto &lt;br&gt;Scaling&lt;/font&gt;&lt;/b&gt;&lt;/span&gt;" style="text;html=1;align=center;verticalAlign=middle;resizable=0;points=[];autosize=1;strokeColor=none;fillColor=none;rotation=30;" parent="1" vertex="1">
          <mxGeometry x="310.59999999999997" y="750" width="120" height="50" as="geometry" />
        </mxCell>
        <mxCell id="P_ORsJNTlbV6Q0vO8lWt-1" value="&lt;font&gt;&lt;b&gt;&lt;span style=&quot;font-size: 40px&quot;&gt;Web &lt;br&gt;Servers&lt;/span&gt;&lt;br&gt;&lt;/b&gt;&lt;/font&gt;" style="text;html=1;align=center;verticalAlign=middle;resizable=0;points=[];autosize=1;strokeColor=none;fillColor=none;rotation=30;shadow=0;sketch=0;rounded=0;glass=0;labelBorderColor=none;labelBackgroundColor=none;fontColor=#FF4D0D;" parent="1" vertex="1">
          <mxGeometry x="-88.5" y="1530" width="160" height="50" as="geometry" />
        </mxCell>
        <mxCell id="P_ORsJNTlbV6Q0vO8lWt-2" value="&lt;font&gt;&lt;b&gt;&lt;span style=&quot;font-size: 40px&quot;&gt;Application &lt;br&gt;Servers&lt;/span&gt;&lt;br&gt;&lt;/b&gt;&lt;/font&gt;" style="text;html=1;align=center;verticalAlign=middle;resizable=0;points=[];autosize=1;strokeColor=none;fillColor=none;rotation=30;shadow=0;sketch=0;rounded=0;glass=0;labelBorderColor=none;labelBackgroundColor=none;fontColor=#FF4D0D;" parent="1" vertex="1">
          <mxGeometry x="585.0000000000001" y="1130" width="230" height="50" as="geometry" />
        </mxCell>
        <mxCell id="P_ORsJNTlbV6Q0vO8lWt-4" value="&lt;font&gt;&lt;b&gt;&lt;span style=&quot;font-size: 40px&quot;&gt;Database &lt;br&gt;Servers&lt;/span&gt;&lt;br&gt;&lt;/b&gt;&lt;/font&gt;" style="text;html=1;align=center;verticalAlign=middle;resizable=0;points=[];autosize=1;strokeColor=none;fillColor=none;rotation=30;shadow=0;sketch=0;rounded=0;glass=0;labelBorderColor=none;labelBackgroundColor=none;fontColor=#FF4D0D;" parent="1" vertex="1">
          <mxGeometry x="561.2800000000001" y="260" width="190" height="50" as="geometry" />
        </mxCell>
        <mxCell id="jLNKredJnKN6a5hXk-XU-10" value="" style="verticalLabelPosition=bottom;html=1;verticalAlign=top;strokeWidth=1;align=center;outlineConnect=0;dashed=0;outlineConnect=0;shape=mxgraph.aws3d.elasticLoadBalancing;fillColor=#ECECEC;strokeColor=#5E5E5E;aspect=fixed;rounded=0;fontSize=42;" parent="1" vertex="1">
          <mxGeometry x="2.4700000000000006" y="910" width="158.07" height="151.5" as="geometry" />
        </mxCell>
        <mxCell id="P_ORsJNTlbV6Q0vO8lWt-7" value="&lt;font color=&quot;#cccc00&quot;&gt;&lt;font style=&quot;font-size: 30px&quot;&gt;&lt;b&gt;Load Balancer&lt;/b&gt;&lt;/font&gt;&lt;br&gt;&lt;/font&gt;" style="text;html=1;align=center;verticalAlign=middle;resizable=0;points=[];autosize=1;strokeColor=none;fillColor=none;rotation=30;" parent="1" vertex="1">
          <mxGeometry x="71.5" y="1114" width="220" height="30" as="geometry" />
        </mxCell>
        <mxCell id="P_ORsJNTlbV6Q0vO8lWt-8" value="&lt;span style=&quot;font-size: 20px&quot;&gt;Copyright 2022. &lt;br&gt;imcf all rights reserved.&lt;/span&gt;" style="text;html=1;align=left;verticalAlign=middle;resizable=0;points=[];autosize=1;fontSize=22;rounded=0;" parent="1" vertex="1">
          <mxGeometry x="939" y="1590" width="220" height="60" as="geometry" />
        </mxCell>
        <mxCell id="IjFcAa4tshSwiuuZzXQG-4" value="" style="sketch=0;pointerEvents=1;shadow=0;dashed=0;html=1;strokeColor=none;fillColor=#505050;labelPosition=center;verticalLabelPosition=bottom;verticalAlign=top;outlineConnect=0;align=center;shape=mxgraph.office.devices.cell_phone_iphone_proportional;rounded=0;glass=0;labelBackgroundColor=none;labelBorderColor=none;fontSize=36;fontColor=#FF4D0D;rotation=30;opacity=70;" parent="1" vertex="1">
          <mxGeometry x="-560" y="1540" width="30" height="59.5" as="geometry" />
        </mxCell>
        <mxCell id="IjFcAa4tshSwiuuZzXQG-5" value="" style="shape=image;html=1;verticalAlign=top;verticalLabelPosition=bottom;labelBackgroundColor=#ffffff;imageAspect=0;aspect=fixed;image=https://cdn1.iconfinder.com/data/icons/technology-and-hardware-2/200/vector_66_08-128.png;rounded=0;shadow=0;glass=0;labelBorderColor=none;sketch=0;fontSize=36;fontColor=#FF4D0D;strokeColor=#3819FF;strokeWidth=5;fillColor=#DBDBDB;gradientColor=none;gradientDirection=radial;rotation=30;" parent="1" vertex="1">
          <mxGeometry x="-630" y="1521.5" width="58.5" height="58.5" as="geometry" />
        </mxCell>
      </root>
    </mxGraphModel>
  </diagram>
  <diagram id="CvOTPoF-XL0TefLDydZP" name="Network Diagram">
    <mxGraphModel dx="1426" dy="826" grid="1" gridSize="10" guides="1" tooltips="1" connect="1" arrows="1" fold="1" page="1" pageScale="1" pageWidth="827" pageHeight="1169" math="0" shadow="0">
      <root>
        <mxCell id="OWNzuiMXCO4bU7EgIZqG-0" />
        <mxCell id="OWNzuiMXCO4bU7EgIZqG-1" parent="OWNzuiMXCO4bU7EgIZqG-0" />
        <mxCell id="6UG8_OfNvHeWKdYFaVZi-29" value="" style="rounded=1;whiteSpace=wrap;html=1;shadow=0;glass=0;labelBackgroundColor=none;labelBorderColor=none;sketch=0;fontSize=20;fontColor=#333333;strokeColor=#808080;strokeWidth=2;fillColor=none;gradientColor=none;gradientDirection=radial;align=left;" parent="OWNzuiMXCO4bU7EgIZqG-1" vertex="1">
          <mxGeometry x="186" y="136" width="1723" height="970" as="geometry" />
        </mxCell>
        <mxCell id="6UG8_OfNvHeWKdYFaVZi-28" value="" style="rounded=1;whiteSpace=wrap;html=1;shadow=0;glass=0;labelBackgroundColor=none;labelBorderColor=none;sketch=0;fontSize=20;fontColor=#333333;strokeColor=#808080;strokeWidth=2;fillColor=none;gradientColor=none;gradientDirection=radial;align=left;" parent="OWNzuiMXCO4bU7EgIZqG-1" vertex="1">
          <mxGeometry x="249" y="190" width="1580" height="846" as="geometry" />
        </mxCell>
        <mxCell id="6UG8_OfNvHeWKdYFaVZi-39" value="" style="rounded=1;whiteSpace=wrap;html=1;shadow=0;glass=0;labelBackgroundColor=none;labelBorderColor=none;sketch=0;fontSize=20;fontColor=#333333;strokeColor=#808080;strokeWidth=2;fillColor=none;gradientColor=none;gradientDirection=radial;align=left;" parent="OWNzuiMXCO4bU7EgIZqG-1" vertex="1">
          <mxGeometry x="1419" y="272" width="335" height="407" as="geometry" />
        </mxCell>
        <mxCell id="6UG8_OfNvHeWKdYFaVZi-37" value="" style="rounded=1;whiteSpace=wrap;html=1;shadow=0;glass=0;labelBackgroundColor=none;labelBorderColor=none;sketch=0;fontSize=20;fontColor=#333333;strokeColor=#808080;strokeWidth=2;fillColor=none;gradientColor=none;gradientDirection=radial;align=left;" parent="OWNzuiMXCO4bU7EgIZqG-1" vertex="1">
          <mxGeometry x="1029" y="272" width="335" height="407" as="geometry" />
        </mxCell>
        <mxCell id="6UG8_OfNvHeWKdYFaVZi-33" value="" style="rounded=1;whiteSpace=wrap;html=1;shadow=0;glass=0;labelBackgroundColor=none;labelBorderColor=none;sketch=0;fontSize=20;fontColor=#333333;strokeColor=#808080;strokeWidth=2;fillColor=none;gradientColor=none;gradientDirection=radial;align=left;" parent="OWNzuiMXCO4bU7EgIZqG-1" vertex="1">
          <mxGeometry x="649" y="276" width="335" height="407" as="geometry" />
        </mxCell>
        <mxCell id="6UG8_OfNvHeWKdYFaVZi-26" style="edgeStyle=orthogonalEdgeStyle;rounded=0;orthogonalLoop=1;jettySize=auto;html=1;fontSize=20;fontColor=#333333;startArrow=none;startFill=0;endArrow=classic;endFill=1;strokeColor=default;strokeWidth=2;entryX=0;entryY=0.5;entryDx=0;entryDy=0;entryPerimeter=0;" parent="OWNzuiMXCO4bU7EgIZqG-1" source="6UG8_OfNvHeWKdYFaVZi-27" target="6UG8_OfNvHeWKdYFaVZi-9" edge="1">
          <mxGeometry relative="1" as="geometry">
            <mxPoint x="428.9999999999998" y="534" as="targetPoint" />
          </mxGeometry>
        </mxCell>
        <mxCell id="EkhgKxtZprh4w_W9NNeN-0" value="" style="sketch=0;outlineConnect=0;fontColor=#232F3E;gradientColor=none;fillColor=#232F3D;strokeColor=none;dashed=0;verticalLabelPosition=bottom;verticalAlign=top;align=center;html=1;fontSize=12;fontStyle=0;aspect=fixed;pointerEvents=1;shape=mxgraph.aws4.users;rounded=0;shadow=0;glass=0;labelBackgroundColor=none;labelBorderColor=none;" parent="OWNzuiMXCO4bU7EgIZqG-1" vertex="1">
          <mxGeometry x="46" y="495" width="78" height="78" as="geometry" />
        </mxCell>
        <mxCell id="6UG8_OfNvHeWKdYFaVZi-24" style="edgeStyle=orthogonalEdgeStyle;rounded=0;orthogonalLoop=1;jettySize=auto;html=1;fontSize=20;fontColor=#333333;startArrow=none;startFill=0;endArrow=classic;endFill=1;strokeColor=default;strokeWidth=2;entryX=0;entryY=0.5;entryDx=0;entryDy=0;" parent="OWNzuiMXCO4bU7EgIZqG-1" source="6UG8_OfNvHeWKdYFaVZi-25" target="6UG8_OfNvHeWKdYFaVZi-17" edge="1">
          <mxGeometry relative="1" as="geometry">
            <mxPoint x="418.9999999999998" y="364" as="targetPoint" />
          </mxGeometry>
        </mxCell>
        <mxCell id="6UG8_OfNvHeWKdYFaVZi-0" value="" style="sketch=0;outlineConnect=0;fontColor=#232F3E;gradientColor=none;fillColor=#232F3D;strokeColor=none;dashed=0;verticalLabelPosition=bottom;verticalAlign=top;align=center;html=1;fontSize=12;fontStyle=0;aspect=fixed;pointerEvents=1;shape=mxgraph.aws4.user;rounded=0;shadow=0;glass=0;labelBackgroundColor=none;labelBorderColor=none;" parent="OWNzuiMXCO4bU7EgIZqG-1" vertex="1">
          <mxGeometry x="46" y="325" width="78" height="78" as="geometry" />
        </mxCell>
        <mxCell id="6UG8_OfNvHeWKdYFaVZi-1" value="&lt;font style=&quot;font-size: 20px&quot; color=&quot;#333333&quot;&gt;Users&lt;/font&gt;" style="text;html=1;align=center;verticalAlign=middle;resizable=0;points=[];autosize=1;strokeColor=none;fillColor=none;fontSize=36;fontColor=#FF4D0D;" parent="OWNzuiMXCO4bU7EgIZqG-1" vertex="1">
          <mxGeometry x="50" y="565" width="70" height="50" as="geometry" />
        </mxCell>
        <mxCell id="6UG8_OfNvHeWKdYFaVZi-2" value="&lt;font style=&quot;font-size: 20px&quot; color=&quot;#333333&quot;&gt;Administrator&lt;br&gt;&lt;/font&gt;" style="text;html=1;align=center;verticalAlign=middle;resizable=0;points=[];autosize=1;strokeColor=none;fillColor=none;fontSize=36;fontColor=#FF4D0D;" parent="OWNzuiMXCO4bU7EgIZqG-1" vertex="1">
          <mxGeometry x="20" y="386" width="130" height="50" as="geometry" />
        </mxCell>
        <mxCell id="6UG8_OfNvHeWKdYFaVZi-4" value="" style="outlineConnect=0;dashed=0;verticalLabelPosition=bottom;verticalAlign=top;align=center;html=1;shape=mxgraph.aws3.virtual_private_cloud;fillColor=#F58534;gradientColor=none;rounded=0;shadow=0;glass=0;labelBackgroundColor=none;labelBorderColor=none;sketch=0;fontSize=20;fontColor=#333333;strokeColor=#3819FF;strokeWidth=5;" parent="OWNzuiMXCO4bU7EgIZqG-1" vertex="1">
          <mxGeometry x="309" y="166" width="79.5" height="54" as="geometry" />
        </mxCell>
        <mxCell id="6UG8_OfNvHeWKdYFaVZi-6" value="" style="outlineConnect=0;dashed=0;verticalLabelPosition=bottom;verticalAlign=top;align=center;html=1;shape=mxgraph.aws3.cloud_2;fillColor=#F58534;gradientColor=none;rounded=0;shadow=0;glass=0;labelBackgroundColor=none;labelBorderColor=none;sketch=0;fontSize=20;fontColor=#333333;strokeColor=#3819FF;strokeWidth=5;" parent="OWNzuiMXCO4bU7EgIZqG-1" vertex="1">
          <mxGeometry x="234" y="110" width="75" height="75" as="geometry" />
        </mxCell>
        <mxCell id="6UG8_OfNvHeWKdYFaVZi-49" style="edgeStyle=orthogonalEdgeStyle;rounded=0;orthogonalLoop=1;jettySize=auto;html=1;entryX=0;entryY=0.5;entryDx=0;entryDy=0;fontSize=20;fontColor=#FFFFFF;startArrow=none;startFill=0;endArrow=classic;endFill=1;strokeColor=default;strokeWidth=2;" parent="OWNzuiMXCO4bU7EgIZqG-1" source="6UG8_OfNvHeWKdYFaVZi-9" target="6UG8_OfNvHeWKdYFaVZi-40" edge="1">
          <mxGeometry relative="1" as="geometry">
            <Array as="points">
              <mxPoint x="689" y="534" />
              <mxPoint x="689" y="457" />
            </Array>
          </mxGeometry>
        </mxCell>
        <mxCell id="6UG8_OfNvHeWKdYFaVZi-9" value="" style="outlineConnect=0;dashed=0;verticalLabelPosition=bottom;verticalAlign=top;align=center;html=1;shape=mxgraph.aws3.classic_load_balancer;fillColor=#F58534;gradientColor=none;rounded=0;shadow=0;glass=0;labelBackgroundColor=none;labelBorderColor=none;sketch=0;fontSize=20;fontColor=#333333;strokeColor=#3819FF;strokeWidth=5;" parent="OWNzuiMXCO4bU7EgIZqG-1" vertex="1">
          <mxGeometry x="469" y="498" width="69" height="72" as="geometry" />
        </mxCell>
        <mxCell id="6UG8_OfNvHeWKdYFaVZi-10" value="" style="fontStyle=0;verticalAlign=top;align=center;spacingTop=-2;fillColor=none;rounded=0;whiteSpace=wrap;html=1;strokeColor=#FF0000;strokeWidth=4;dashed=1;container=1;collapsible=0;expand=0;recursiveResize=0;shadow=0;glass=0;labelBackgroundColor=none;labelBorderColor=none;sketch=0;fontSize=20;fontColor=#333333;" parent="OWNzuiMXCO4bU7EgIZqG-1" vertex="1">
          <mxGeometry x="409" y="276" width="190" height="151" as="geometry" />
        </mxCell>
        <mxCell id="6UG8_OfNvHeWKdYFaVZi-68" value="&lt;font color=&quot;#000000&quot;&gt;InBound&lt;/font&gt;" style="text;html=1;align=center;verticalAlign=middle;resizable=0;points=[];autosize=1;strokeColor=none;fillColor=none;fontSize=20;fontColor=#FFFFFF;" parent="6UG8_OfNvHeWKdYFaVZi-10" vertex="1">
          <mxGeometry x="49.5" y="10" width="90" height="30" as="geometry" />
        </mxCell>
        <mxCell id="6UG8_OfNvHeWKdYFaVZi-11" value="" style="html=1;verticalLabelPosition=bottom;align=center;labelBackgroundColor=#ffffff;verticalAlign=top;strokeWidth=2;strokeColor=none;shadow=0;dashed=0;shape=mxgraph.ios7.icons.cloud;rounded=0;glass=0;labelBorderColor=none;sketch=0;fontSize=20;fontColor=#333333;fillColor=#E8E8E8;gradientDirection=radial;" parent="OWNzuiMXCO4bU7EgIZqG-1" vertex="1">
          <mxGeometry x="46" y="876" width="96" height="70" as="geometry" />
        </mxCell>
        <mxCell id="6UG8_OfNvHeWKdYFaVZi-12" value="&lt;font style=&quot;font-size: 20px&quot; color=&quot;#333333&quot;&gt;Internet&lt;/font&gt;" style="text;html=1;align=center;verticalAlign=middle;resizable=0;points=[];autosize=1;strokeColor=none;fillColor=none;fontSize=36;fontColor=#FF4D0D;" parent="OWNzuiMXCO4bU7EgIZqG-1" vertex="1">
          <mxGeometry x="54" y="936" width="80" height="50" as="geometry" />
        </mxCell>
        <mxCell id="6UG8_OfNvHeWKdYFaVZi-17" value="" style="shape=image;verticalLabelPosition=bottom;labelBackgroundColor=#ffffff;verticalAlign=top;aspect=fixed;imageAspect=0;image=https://mpng.subpng.com/20180417/ksq/kisspng-secure-shell-ssh-keygen-computer-servers-computer-shell-5ad620b8944a73.5640200315239825206074.jpg;" parent="OWNzuiMXCO4bU7EgIZqG-1" vertex="1">
          <mxGeometry x="469" y="329" width="70" height="70" as="geometry" />
        </mxCell>
        <mxCell id="6UG8_OfNvHeWKdYFaVZi-20" value="Amazon EC2&lt;br&gt;Security Group" style="text;html=1;align=center;verticalAlign=middle;resizable=0;points=[];autosize=1;strokeColor=none;fillColor=none;fontSize=20;fontColor=#333333;" parent="OWNzuiMXCO4bU7EgIZqG-1" vertex="1">
          <mxGeometry x="433" y="216" width="150" height="50" as="geometry" />
        </mxCell>
        <mxCell id="6UG8_OfNvHeWKdYFaVZi-22" value="Elastic Load&lt;br&gt;Balancing Security Group" style="text;html=1;align=center;verticalAlign=middle;resizable=0;points=[];autosize=1;strokeColor=none;fillColor=none;fontSize=20;fontColor=#333333;" parent="OWNzuiMXCO4bU7EgIZqG-1" vertex="1">
          <mxGeometry x="384" y="436" width="240" height="50" as="geometry" />
        </mxCell>
        <mxCell id="6UG8_OfNvHeWKdYFaVZi-23" value="" style="sketch=0;pointerEvents=1;shadow=0;dashed=0;html=1;strokeColor=none;labelPosition=center;verticalLabelPosition=bottom;verticalAlign=top;outlineConnect=0;align=center;shape=mxgraph.office.security.lock_protected;fillColor=#F58534;rounded=0;glass=0;labelBackgroundColor=none;labelBorderColor=none;fontSize=20;fontColor=#333333;" parent="OWNzuiMXCO4bU7EgIZqG-1" vertex="1">
          <mxGeometry x="699" y="247" width="38" height="52" as="geometry" />
        </mxCell>
        <mxCell id="6UG8_OfNvHeWKdYFaVZi-27" value="TCP : 443, 80" style="text;html=1;align=center;verticalAlign=middle;resizable=0;points=[];autosize=1;strokeColor=none;fillColor=none;fontSize=20;fontColor=#333333;" parent="OWNzuiMXCO4bU7EgIZqG-1" vertex="1">
          <mxGeometry x="259" y="519" width="140" height="30" as="geometry" />
        </mxCell>
        <mxCell id="6UG8_OfNvHeWKdYFaVZi-31" value="" style="edgeStyle=orthogonalEdgeStyle;rounded=0;orthogonalLoop=1;jettySize=auto;html=1;fontSize=20;fontColor=#333333;startArrow=none;startFill=0;endArrow=none;endFill=1;strokeColor=default;strokeWidth=2;entryX=0;entryY=0.5;entryDx=0;entryDy=0;entryPerimeter=0;" parent="OWNzuiMXCO4bU7EgIZqG-1" source="EkhgKxtZprh4w_W9NNeN-0" target="6UG8_OfNvHeWKdYFaVZi-27" edge="1">
          <mxGeometry relative="1" as="geometry">
            <mxPoint x="440" y="534" as="targetPoint" />
            <mxPoint x="124" y="534" as="sourcePoint" />
          </mxGeometry>
        </mxCell>
        <mxCell id="6UG8_OfNvHeWKdYFaVZi-25" value="TCP : 22" style="text;html=1;align=center;verticalAlign=middle;resizable=0;points=[];autosize=1;strokeColor=none;fillColor=none;fontSize=20;fontColor=#333333;" parent="OWNzuiMXCO4bU7EgIZqG-1" vertex="1">
          <mxGeometry x="274" y="349" width="90" height="30" as="geometry" />
        </mxCell>
        <mxCell id="6UG8_OfNvHeWKdYFaVZi-32" value="" style="edgeStyle=orthogonalEdgeStyle;rounded=0;orthogonalLoop=1;jettySize=auto;html=1;fontSize=20;fontColor=#333333;startArrow=none;startFill=0;endArrow=none;endFill=1;strokeColor=default;strokeWidth=2;entryX=0;entryY=0.5;entryDx=0;entryDy=0;" parent="OWNzuiMXCO4bU7EgIZqG-1" source="6UG8_OfNvHeWKdYFaVZi-0" target="6UG8_OfNvHeWKdYFaVZi-25" edge="1">
          <mxGeometry relative="1" as="geometry">
            <mxPoint x="438.9999999999998" y="364" as="targetPoint" />
            <mxPoint x="120.4545454545455" y="364" as="sourcePoint" />
          </mxGeometry>
        </mxCell>
        <mxCell id="6UG8_OfNvHeWKdYFaVZi-36" value="" style="sketch=0;pointerEvents=1;shadow=0;dashed=0;html=1;strokeColor=none;labelPosition=center;verticalLabelPosition=bottom;verticalAlign=top;outlineConnect=0;align=center;shape=mxgraph.office.security.lock_protected;fillColor=#F58534;rounded=0;glass=0;labelBackgroundColor=none;labelBorderColor=none;fontSize=20;fontColor=#333333;" parent="OWNzuiMXCO4bU7EgIZqG-1" vertex="1">
          <mxGeometry x="1079" y="243" width="38" height="52" as="geometry" />
        </mxCell>
        <mxCell id="6UG8_OfNvHeWKdYFaVZi-38" value="" style="sketch=0;pointerEvents=1;shadow=0;dashed=0;html=1;strokeColor=none;labelPosition=center;verticalLabelPosition=bottom;verticalAlign=top;outlineConnect=0;align=center;shape=mxgraph.office.security.lock_protected;fillColor=#F58534;rounded=0;glass=0;labelBackgroundColor=none;labelBorderColor=none;fontSize=20;fontColor=#333333;" parent="OWNzuiMXCO4bU7EgIZqG-1" vertex="1">
          <mxGeometry x="1469" y="243" width="38" height="52" as="geometry" />
        </mxCell>
        <mxCell id="6UG8_OfNvHeWKdYFaVZi-63" style="edgeStyle=orthogonalEdgeStyle;rounded=0;orthogonalLoop=1;jettySize=auto;html=1;entryX=0;entryY=0.5;entryDx=0;entryDy=0;fontSize=20;fontColor=#FFFFFF;startArrow=none;startFill=0;endArrow=classic;endFill=1;strokeColor=default;strokeWidth=2;" parent="OWNzuiMXCO4bU7EgIZqG-1" source="6UG8_OfNvHeWKdYFaVZi-40" target="6UG8_OfNvHeWKdYFaVZi-41" edge="1">
          <mxGeometry relative="1" as="geometry" />
        </mxCell>
        <mxCell id="6UG8_OfNvHeWKdYFaVZi-74" style="edgeStyle=orthogonalEdgeStyle;rounded=0;orthogonalLoop=1;jettySize=auto;html=1;entryX=0.12;entryY=-0.02;entryDx=0;entryDy=0;entryPerimeter=0;fontSize=20;fontColor=#000000;startArrow=none;startFill=0;endArrow=classic;endFill=1;strokeColor=default;strokeWidth=2;" parent="OWNzuiMXCO4bU7EgIZqG-1" source="6UG8_OfNvHeWKdYFaVZi-81" target="6UG8_OfNvHeWKdYFaVZi-69" edge="1">
          <mxGeometry relative="1" as="geometry" />
        </mxCell>
        <mxCell id="6UG8_OfNvHeWKdYFaVZi-40" value="&lt;font color=&quot;#ffffff&quot;&gt;&lt;b&gt;Web Server&lt;/b&gt;&lt;/font&gt;" style="rounded=1;arcSize=10;strokeColor=none;fillColor=#F58534;gradientColor=none;shadow=0;glass=0;labelBackgroundColor=none;labelBorderColor=none;sketch=0;fontSize=20;fontColor=#333333;align=center;html=1;" parent="OWNzuiMXCO4bU7EgIZqG-1" vertex="1">
          <mxGeometry x="750.37" y="399" width="132.25" height="115.5" as="geometry" />
        </mxCell>
        <mxCell id="6UG8_OfNvHeWKdYFaVZi-66" style="edgeStyle=orthogonalEdgeStyle;rounded=0;orthogonalLoop=1;jettySize=auto;html=1;entryX=0;entryY=0.5;entryDx=0;entryDy=0;fontSize=20;fontColor=#FFFFFF;startArrow=classic;startFill=1;endArrow=classic;endFill=1;strokeColor=default;strokeWidth=2;" parent="OWNzuiMXCO4bU7EgIZqG-1" source="6UG8_OfNvHeWKdYFaVZi-41" target="6UG8_OfNvHeWKdYFaVZi-42" edge="1">
          <mxGeometry relative="1" as="geometry" />
        </mxCell>
        <mxCell id="6UG8_OfNvHeWKdYFaVZi-77" style="edgeStyle=orthogonalEdgeStyle;rounded=0;orthogonalLoop=1;jettySize=auto;html=1;entryX=0.5;entryY=0;entryDx=0;entryDy=0;fontSize=20;fontColor=#000000;startArrow=none;startFill=0;endArrow=classic;endFill=1;strokeColor=default;strokeWidth=2;" parent="OWNzuiMXCO4bU7EgIZqG-1" source="6UG8_OfNvHeWKdYFaVZi-85" target="6UG8_OfNvHeWKdYFaVZi-69" edge="1">
          <mxGeometry relative="1" as="geometry" />
        </mxCell>
        <mxCell id="6UG8_OfNvHeWKdYFaVZi-41" value="&lt;font color=&quot;#ffffff&quot;&gt;&lt;b&gt;Application Server&lt;/b&gt;&lt;/font&gt;" style="rounded=1;arcSize=10;strokeColor=none;fillColor=#F58534;gradientColor=none;shadow=0;glass=0;labelBackgroundColor=none;labelBorderColor=none;sketch=0;fontSize=20;fontColor=#333333;align=center;html=1;" parent="OWNzuiMXCO4bU7EgIZqG-1" vertex="1">
          <mxGeometry x="1102.19" y="400" width="188.62" height="115.5" as="geometry" />
        </mxCell>
        <mxCell id="6UG8_OfNvHeWKdYFaVZi-42" value="&lt;font color=&quot;#ffffff&quot;&gt;&lt;b&gt;Database Server&lt;/b&gt;&lt;/font&gt;" style="rounded=1;arcSize=10;strokeColor=none;fillColor=#2757F5;gradientColor=none;shadow=0;glass=0;labelBackgroundColor=none;labelBorderColor=none;sketch=0;fontSize=20;fontColor=#333333;align=center;html=1;" parent="OWNzuiMXCO4bU7EgIZqG-1" vertex="1">
          <mxGeometry x="1484" y="401" width="188.62" height="115.5" as="geometry" />
        </mxCell>
        <mxCell id="6UG8_OfNvHeWKdYFaVZi-44" value="" style="shape=image;html=1;verticalAlign=top;verticalLabelPosition=bottom;labelBackgroundColor=#ffffff;imageAspect=0;aspect=fixed;image=https://cdn1.iconfinder.com/data/icons/hawcons/32/699859-icon-77-document-file-css-128.png;rounded=0;shadow=0;glass=0;labelBorderColor=none;sketch=0;fontSize=20;fontColor=#FFFFFF;strokeColor=#000000;strokeWidth=2;fillColor=none;gradientColor=none;gradientDirection=radial;" parent="OWNzuiMXCO4bU7EgIZqG-1" vertex="1">
          <mxGeometry x="819" y="483" width="57" height="57" as="geometry" />
        </mxCell>
        <mxCell id="6UG8_OfNvHeWKdYFaVZi-45" value="" style="shape=image;html=1;verticalAlign=top;verticalLabelPosition=bottom;labelBackgroundColor=#ffffff;imageAspect=0;aspect=fixed;image=https://cdn4.iconfinder.com/data/icons/file-extension-names-vol-8/512/27-128.png;rounded=0;shadow=0;glass=0;labelBorderColor=none;sketch=0;fontSize=20;fontColor=#FFFFFF;strokeColor=#000000;strokeWidth=2;fillColor=none;gradientColor=none;gradientDirection=radial;" parent="OWNzuiMXCO4bU7EgIZqG-1" vertex="1">
          <mxGeometry x="870" y="485" width="53" height="53" as="geometry" />
        </mxCell>
        <mxCell id="6UG8_OfNvHeWKdYFaVZi-47" value="" style="shape=image;verticalLabelPosition=bottom;labelBackgroundColor=#ffffff;verticalAlign=top;aspect=fixed;imageAspect=0;image=data:image/png,iVBORw0KGgoAAAANSUhEUgAAAfgAAAFqCAYAAAD2hkg3AAAgAElEQVR4Ae2dPZLkOBOe5wh7jD3Gd4LZilpvTzGGzG8m+gZjK0J2u9U9a8iQMaEDyFNobclXlAw5skaR6EI3CgWSAIgE8fN0RAeriiwSeJDIF5kAWZ8+8QcBCEAAAhCAAAQgAAEIQODp7z9///fl9C/3/9vl/BT6//py/ss9Tl4/XU6/QRECEIAABCAAgYoERHxFhL/+OH8xgv16ev76cvr59fWPf769nH6V/jfnfjn9tIMDMwD4+8/fK1aZS0EAAhCAAATGIiCRuETYXy+fv4vQfns5XUsL+J7zmTLJAOPH+YsI/1j0qQ0EIAABCECgEAEj6BKZv56eWxPz2IGAifjNgOT8F6n+QobBaSAAAQhAoC8CNkLvWdC3hN8I/o/zF6lrX61DaSEAAQhAAAIJBGyUrjVnviW4R+6XOst0A2KfYDAcCgEIQAAC7RKQVLXMU88o6ksDCsS+XXulZBCAAAQgsEFAFsjd0u/FV7cvCWePnxuxlzQ+t+dtWBS7IQABCEDgMAIiUnJLGdF65i17r6dnUviHmS8XhgAEIAABn4CIEtF6pqgH7t83i/Nezn/5nHkPAQhAAAIQqELAPHTm7R510vABod47ZWDS9wh9FVvmIhCAAAQg8OnTJ4S9XLQeMwhA6Ol2EIAABCCgSgBhryvsvvi3KPRyh4Sq0XFyCEAAAhDQI8Ac+7HCHhL6Fh6Pa+zi5fSLOwD0+h5nhgAEIKBCwK6K7/XRsb4wjvZeFuMduereLqyUWyJVDJCTQgACEIBAeQLmh16UfqVtNKE9vD6X81PtKNpG76bur6fn8hbIGSEAAQhAoCgB0vFtpeNjBw8yP18zbW9+Qte5c6D2AKOo0XMyCEAAAqMTML+z3tjPssYKHMe9DUzM8+6Vn4pnpm48OyFNP7p3oH4QgECXBCRql/lcRLLP6N1vN+1o3o/ezfVJ03fZ9yk0BCAwMAHzzHgvGvMFg/d9Cr9E86VNNxS93+zjWvpanA8CEIAABDIIGEf9enpGvPsU79h2k2i+5Ep7u3I+dH3S9Bkdka9AAAIQKEnApORZIT/T43WvJcTXLMB0FtY9iDxp+pLdlHNBAAIQSCNASn7siP1BdB1B3puyX4veb9clTZ/WHTkaAhCAQBkC4uDXBIB944u/SdlnrLKXW/B8+/jP//0/PWRBSmQKylg7Z4EABCAwAQHm28cXbl98197nzMvLd9xz/sf/+h9+yZ/7mbzemyWYoDtSRQhAAAJlCIi4+87Zd8q8n3IAED0vH7ot7n/97/9hBN6P4sXWylguZ4EABCAAgUUCt0VRVwR8SgF/iK5DdrCVUg/ZkIi6/ftv//O/PFxHvrNolOyAAAQgAIF9BEKOOeTg+QzxX/vJ19ADkP7v//s/Vt/N9sGGLuenfdbLtyEAAQhAIEiAlfKI9oPoOqvpg/sCt7jdHl18F6G70btVedL0wW7IhxCAAATKEriJ+51TDjr0LYfP/vkYOiIfygDZhXVW2O2WNH3ZPszZIAABCDwQQNyJ3HcP5m4iH0rN24V1VtjdrX/dtbT/g+HyAQQgAAEILBNA3BF3X2Rz34fuugil5l2Bl+j+7npONmDZatkDAQhAAAKrBBB3xP1OXAtPryyl5l2BD6bpMx6os2ro7IQABCAwE4HQXKmms+fc8w0m/FXzrrDb13KMbxsy8JypL1JXCEAAAsUIIO7zia0votrvJTKP/SNNX6xrcyIIQGBmAiu/y/0QSWmLAOcfc6CxNe/uC7+fpuepdjN7KOoOAQhkEeDxs2MKaksDpVRxF7EPpekly5Rl5HwJAhCAwIwEIn62kyi+8EKzlsRXuyySao+Zd/cjeHnvp+m5XW5GD0WdIQCBLAL85CvRu6bA7xF3EfiHp9q9nH5mGTpfggAEIDATAW6HQ9w1xV3OvfYwm1DE7n8m3/fLKFNKM/VT6goBCEAgiQAr5hF3XzhLv98r7lbs/XJxu1xSV+dgCEBgJgIsqkPcfdEs/b6UuIfS9LJmZKb+Sl0hAAEIRBNgUR0CX1rQ3fPlLqizEbu/5Xa56K7NgRCAwMwEmHdH3F0xLv26ZORuhZ7b5Wb2WNQdAhCIIsC8O+JeWtDt+WS1vIa4W5HndrmoLs5BEIDArARCP9lpHTRbxD/XBvbeCmdFfG3r3y7HPPysXox6QwACDwTkASG5DpzvIf5LNlBD3EX4JTvgleH6YOR8AAEIQGA2AqTmEWhPHH2xzHqf8/jZtSh9a59fBx5bO5sno74QgMADAVLzCLwvjnvfp/wq3JZwx+5nHv6ha/MBBCAwMwFWzSPue8Xc/b6IrOZiujWx9+fhZeA6c9+m7hCAwMQE+AlYxN0V572va823L4l8YB7+18Tdm6pDAAIzE+CHZBD4vaJuv39ESj4k9LY8dvvvy+lfM/dx6g4BCExI4LawLmvxlHWebBkgHJmSDwm8Pw//7XJ+mrB7U2UIQGBmAiysQ5z3DtBqr5IPCbr/GfPwM3s16g4BCHyStOVe58735x0gtBa1uyIfmIfnfnh8HgQgMA8Bovd5xXnvwKzFqN0VeHnt15H74efxbdQUAlMTIHpH3H0BjHl/9Ap5X8TX3vvz8PKUxqk7PZWHAATmIED0jsDHCLo9puV0/JLI+/PwPJd+Dt9GLSEwNQGid8TdCvfWVoS9lVvfloR86XN+H35qN0flITAnAaJ3BH5L2GV/D/PsS+Iun/P78HP6N2oNgWkJEL0j7lviLsIu4jjC38M8/Mv5r2k7PxWHAATGJiDzkFsOnv3zDQJsKn4UYbeDkweBv3z+PnYPp3YQgMCUBHhq3XzCvTVYs8JuBXG0rb/QTqanpuz8VBoCEBibAM+cR+Ct4IvwHfVrbzUHEYEH3vDDM2O7OWoHgTkJfHs5Xa2DZzuf2NtofbQ0/NqAgYV2c/o6ag2BqQjwe+/zCboM4mYUdV/wH+bhWWg3le+jshAYngC3xs0j8Ij6vcQ/CDwL7Yb3d1QQAtMQYHHd2OIuAjbLnPq9dMe9Y6HdNK6OikJgPgLyW9jMuY8h8lbM5SltMyySi5Pw9aNYaDefz6PGEJiGwNfXP/5B4PsQeBFwK+ISeSLk6+Ids5eFdtO4OioKgbkIkJ6vK+xWoN2tCLX7b0VbIkui8BiJ3n+MP8CVRadzeQJqCwEIDEeAe9/3CbwVaivQiPN+sT3iDNKOdyJ/OT8N19mpEAQgMBcB0vPbAu+KuBXwI0SIa+oRkAHancC/np7n8gTUFgIQGIoA6fmwuIugi8MXMZ/poS968tn+mX2Bl4HvUJ2dykAAAnMR+Prj/OUuankJC94MxyDo7YuwZgllMOfb+VzegNpCAAJDEZj94TZW1DWFg3P3QSB0q5xkuIbq8FQGAhCYh4AfsczwXtLvpN77EN3apfTt/9+X07/m8QbUFAIQGIaAOC/foY38XoSdW85qS2Zf13uwf1bSD+PvqAgEpiIwy9PrJA3PQrm+hHattJptKYNAV+TlFtKpnAKVhQAExiAw+vy7OGtNMVgTIfbpENDOwDwI/Mvp5xi9nVpAAAJTEXAjlZFek4rXEdcWziprJzT/uFVuKhdIZSEwJoFR59+1BUBTXDj3OgHJxogAa/75Ai8D3zE9ALWCAASGJTDa/e+k4zVlr41zy+BNewAXvFXucvptWEdAxSAAgfEIfHs9PY+Sltd2+m3IG6WQQZz2X0jguVVuPP9HjSAwNIERnj/PXLu23LVzfhnE1RB4mQbwB74I/NCukMpBYDwCvhPr7T0p+XbEt0ZJpL1rZWr8viDTWeN5AGoEAQgMSaD3H5jRXmhVQ7C4RjwBmzavdcujL/DyvIghHQGVggAExiPQ8wr6WlFcvPxwpDYBid5rpOdtPeRarsjzsJvxfCA1gsCwBHp9gh3ibiVonq20uYhtzbZ/EHgedjOsL6RiEBiOgEQkboTSw+uaDn4e+Wy/plZsa6XnhYi9pu0X8sTH4ZwAFYIABMYk0NsjahH39oVYo4Q2ehfBrfmHwI/p96gVBKYg0NMtcoh7TWlr51ru7Wq1bcAX+G8vp+sUjoFKQgAC/ROwqcfWt6yWb0dwa5fEfWRszfS81NO9tu0j/fd6agABCExBwDqtlre107K1BYzrLROwt8WJfR4xyEPgp3CDVBIC4xHo5R742lHbstywpzYBN0V+hB0g8OP5PWoEgSkI9HAPvERw/M1JwBXXo7I4bhlslmsK50AlIQCBvgm0LvDiXPmbk4C7sE6E9aiBHgLft4+j9BCYlkDLAn9UxDannLZXazc1f6QtIPDTukcqDoG+CbT8O/BHRWztSd18JfJFtfatcS5xvyySTei711N6CEBgCgKtPqZWnCp/cxJwV82LmB4ZvUsLIPBTuEIqCYHxCLQq8Eeslp5TTtuqtbS7m5oXgT8yekfgx/N51AgC0xBoUeCJ3tsS3Zql8cX96OgdgZ/GFVJRCIxHoDWBb8Gh1xQ0rvVBQCJ1idjd/6OjdwR+PJ9HjSAwDYHWBL4Fh/4hObyqRcCfd29h7t3WnTn4adwhFYXAWARaE3jrVNnOQ8C/391G8K3cRYHAj+XzqA0EpiHQksAz9z6PqNuahhbVtRS9Szn9dQFSvmkcBBWFAAT6JdCSwLNy3srePNtQdCwC2pItBASen4vt1+VRcgjMQ6AVgWdx3Tyibmu6JO6tZXJ8gf/6cvo5j4egphCAQLcEvr6c/7JznkduW5lvteLDVpdAaMW82F+LAz2/XyDw3bo7Cg6BuQi08ix6XTnh7C0RWBJ3EdIWB3q+wH97PT3P5SWoLQQg0CWBFgS+tZRsS2I4WllCt8NZAW3VDmz53reX81OXnZ1CQwACcxFoQeC59300GQ/XZ03cRTxbWlhnaxAsMwI/l5OkthDomcB7ZOI9RazW5y06duvg2ZYhEBRKx95aHeSFyi2/wNhzf6fsEIDARARqCXnoOi0uqiojaZzFEgiJpGsLrabmpfxSNres8lqyXhO5B6oKAQj0TODr6x//+E6s1vuWnbsVKLb5BLbEXQZ4LWdwEPiePRtlhwAEPsltP7UE3b9Oq6nZfEnjm5bAlriLLcgxLf/598BLmXEZEIAABLohILf9+MJb633L0VvLwtN62WLEvYfsDQLfjRujoBCAQIjAkU+za12oKF86gRhx72XthT/Q5SE3IQ/CZxCAQLMEjnqaXS9OPl3i5v3G2kNsXLHsIXMTHKjwkJtm/RgFgwAEAgSOuhe+hxTtvFKdXvNYcW993t3WPFgf7oEPeBA+ggAEmibgRle1XiPwVkr634ZWm4fsqKdFlaE6Sbar6Y5M4SAAAQj4BI64Va4nZ9+/BOvUQFLtISEMiXtvA7pQHZ7+/vN3v+/wHgIQgEDTBI5YSd9LqlZHGvs/q4h7aJV5SBh7W28hdQvVo+lOTOEgAAEIhAgcsZIege9X5IML0JxHz7riKOLew6I6tzVC8++soA95Dj6DAASaJ3DEQjsE3pWUfl6HxM8VdP91j+0cmnb4evn8vfmOTAEhAAEI+ASeLqfffMes/b5Hx9+PDJcvacp8u7WdXts4NPXAAjvfa/AeAhDohkDthXa9Ov/y0tn+GVPm262497qIcmn+nQV23bgyCgoBCPgEJAVpnXONLQLfvrBLCVNT8mI7vYr7Un1l8Ov3F95DAAIQ6IZA7SfaIfBtC3xOSr53cZcWCaXn5S6TbjoyBYUABCDgE6g9D4/Atyvw0jZBoVtYKW8zPr3d6+63wFJ6nvl331vwHgIQ6I5AzXl4BN6Xlzbeh1aQWwFf2/Yu7kJ/aTqC+ffuXBkFhgAEfAI174cfQRDakOQypciN2kX0R2nLUNaC+XffS/AeAhDokoBEKmtRWsl9o4hCGXk99izSFrltO0o7Lqbnuf+9S19GoSEAgQCBby+na66zT/meREv8HUtgT9QubT2KuEsrLA1ySM8HnAQfQQACfRKo9Vx6BP44cc9dIe8O4Hq+FS5E3q2b8/raZy+m1BCAAAQCBGreLhdytHymS2BpIZkjapvp+tHEfZEJt8cFPAQfQQACXROolaZnJb2umLtn35uOtwOA0cRdGIUW10l95Tcauu7IFB4CEICAT6DWU+1GmsN1xbSl15KOXxIwK9qx2xEHZFKnUP1ZPe97Bd5DAAJDEKi1mp55eL2hQIl5dit80k4jivta9M6vxw3hyqgEBCAQIlDroTd6EjfnmUsKuwi8iLucc8S/pehd6s3q+ZBX4DMIQGAIAl9/nL/YCE5zO+Kc7hFiWFrYpc1Hn0JZmrogPT+EC6MSEIDAEoFaz6YfXUS0xV6i0KV7uPcMzEYfeC2unH85/eLZ80tegc8hAIFhCNS6J37UFLCmuItALUWge4R95Pl22x5ibyuMrjK4HaYTUxEIQAACIQJym9CKI1xzkkn7Ro8WrbDs3YowaQm7tPPI8+0u+7WMB4vrQp6AzyAAgSEJfH05/dQWeREW/pYJiKiviVKJ9pllkLW2sE44srhuSDdGpSAAgRCBWk+2m0VglmX8fo+dW9dIw7sDghlS8i7ZVZ48uS7kAvgMAhAYmUCNW+aI4n+Ze80lUl8VoZdT0vSHK+b+a7nWTH9bWRCeXDeyF6NuEIBAkABRvJ4M1orUXXGfLWqX1ttKzctUVND4+RACEIDA6ARqRPEiQqOvqLcL5baiSVeQS76W647O2B+OSX23GBK9j+7BqB8EILBIoFYUP2KqXqJHzdXvW+Il+2eM2q3Qb015EL0vdnt2QAACsxCoFcWLIPb850bpW+ISI857j5l5AWNMpoTofRYPRj0hAIFFArWieBG03kReRFTEpAVBtwOCGdPx7sBQ2sSyWNoSvS92d3ZAAAKzEagVxYtQtjxXLAOQ1gTditjswi4iHyPuwov73mfzYNQXAhBYJFDr6XbifFsS+ZYF3Qq78Oot8+FG3KVex4q7PIp50dDZAQEIQGBGArWeUX+UyLc2h24FfGmLsH8MDaLF/eXEM+dndF7UGQIQWCcgac1vL6frkuCU/lxbwHoTdMuXVPyHsMurBHH/JT+HvG7l7IUABCAwKYFvl/OTFZpa21LpZzmPiIEMHGqVveR1EPZ7YZd3wiSWsawjmbTbUm0IQAACcQRqLbhzHbeIcsriu16jc7fO8lrqLYOSlLo/yuB4nwiPFHEXltwWF9e/OQoCEJiYQM0Fd77ghaJYcfY9LIbz67L2XupZKnMxmrwLl9QsDD8HO7HDouoQgEAaAXGYawKlvU8EUJx8qqPXLtee89tofTRBLlmflPl22xaScXq6nH5Ls3COhgAEIDApAXGYR6TqrdMeZWtFnRT8+jBA+OQO5kjNT+qkqDYEIJBP4MhUfc8Cj6ivi7m/Nydqt/ZBaj6/f/NNCEBgcgJHrKq3zruXrQi6TCmIUPEXTyBnrt21CVbNT+6cqD4EILCfAKn608OtWlbUWSgXL+j2yL3CfhP5K4+j3d+3OQMEIDA5gVIPwLGiKNGu/ZfP3Kis5ddSVm5pszKdvi0k7MZe5AeSJu+WVB8CEIBAGQJ7fnFOhHEt0s2557nWQMCm3lkkly7o9hsyKCo6kONZ82U6NWeBAAQgYAnkzMenzEuXjPByBwAiRFbUrUCxTScgbSkcc9th6XvcEmd7I1sIQAAChQmk/CBNirhbCZFIecm5a31uRX0ty2DLx3aZgPArHq2/3K1/YN69cH/mdBCAAATeCcTeHy+imfsnQqEl5va8Uj4RI1Lvua309j1hKJG68LRstbbc7/7eDXkBAQhAQIdAzKK7vcKpIRiI+j4xlza1qXeN9lkbGLCoTqcvc1YIQAACDwTWRF6c/94/iQzXHH7sPkQ9ryVcMa8VoS+1KQ+zeeh+fAABCEBAl8DSynoRhL1/IjBLDn/rcxF1KcPeLMLeOrT+fYnG7by5FfHakflWW8qaD10r5uwQgAAEIBAkEBJ5ib5L/G06//sFWEbURbDsny9groiJkNn/1OvY761t5Vpr/8LIlq/k1s6Ju9f2y5la36OO//py+hk0Oj6EAAQgAIE6BHyRd0XWim3ONkVYXPFO+R7H3q1Sz86alObI7XB1+i5XgQAEILBJwL1H/qgIvrTIcL5jxB9x3+xuHAABCECgLgF7j7xE03v/9szBI8zHCHMJ7oh73T7L1SAAAQhEE5BIXuZ89/5JFqCEYHCOfsQecY/uZhwIAQhA4BgCMie/N02PMPcjzCXaCnE/pq9yVQhAAALJBETkc29TkxR/CdHgHJ0MEl5Pz/KExGQj4wsQgAAEIHAMAXm0aKrIk5rvRJS9WxSzB1Pc535M5+SqEIAABPYSkCfexYo8kftk4n45P+21L74PAQhAAAIHEpD0q4h36P54EX+J2mVhXnYUWCqa5DzV2kCmcA40SS4NAQhAAAKlCJhfoXs5/RQRt09WQ9Ani9jfBlD85GupTsV5IAABCLREQH44BGGfUth/mZXyf//5e0v2SFkgAAEIQKAggdujba8I/URCz2K6gj2IU0EAAhBomIAsvpOIDpEfXuSvzLc33BEpGgQgAAEtAqTsxxV4UvJavYbzQgACEOiEgNwvTzQ/mNBzC1wnvY9iQgACEFAmYFbZswCv2m1qWlMjRO3KHYXTQwACEOiVANF8x5E8UXuv3Y5yQwACEKhDQKJ59/fltaJNzltmMPH15fRTFk3WsQ6uAgEIQAAC3RMwK+1vD8dBjMuIcUmOko5nhXz33YwKQAACEDiOAGn75sT9KhkWybQcZxVcGQIQgAAEhiHAA3IaEHr5aVfS8cP0KSoCAQhAoBkCzvw8T8Kr+eM4CHszfYCCQAACEBiagBV67p9XjuoR9qH7EZWDAAQg0DQBSd0j9EWF/ipPGCQV37TZUzgIQAAC8xCQxXjfXk/PJVeKz3Qusyr+x/kLi+fm6TPUFAIQgEBXBMztdZfP34nqI6P619Mzt7t1ZeIUFgIQgAAEzMp7ovqHR+ASrdM3IAABCEBgCAKSdp5d7N9FndvchrBpKgEBCEAAAgECVuyHT+NL+l3m1RH1gBXwEQQgAAEIDE3AzNn/OH+5LdDr+v56eS68PGVOFhwO3WhUDgIQgAAEIJBKwAi+3HonC/Uafha+yT7cInQEPbWVOR4CEIAABCDw6dMnEX1zG97l/CSRvgh/rfS+GWTIQsHL+UmmFhBzTBICEIAABCBQgYAs4BPRlX8zty+DAOffZgLMoEAGBpIVuAn23XE/zl/seZgzr9BwXAICEIAABCAAAQhAAAIQgAAEIAABCEAAAhCAAAQgAAEIQAACEIAABCAAAQhAAAIQgAAEIAABCEAAAhCAAAQgAAEIQAACEIAABCAAAQhAAAIQgAAEIAABCEAAAhCAAAQgAAEIQAACEIAABCAAAQhAAAIQgAAEIAABCEAAAhCAAAQgAAEIQAACEIAABCAAAQhAAAIQgAAEIAABCEAAAhCAAAQgAAEIQAACEIAABCAAAQhAAAIQgAAEIAABCEAAAhCAAAQgAAEIQAACEIAABCAAAQhAAAIQgAAEIAABCEAAAhCAAAQgAAEIFCfw9Pefv//7cvqX/H99Of/17XJ+sv9ff5y/2H2yLX5xTggBCEAggYD1R9ZHrW3Fn8nx4uMSLlHlUNfvtli+RQgCVIRBwH99Of2U/28vp+u3l9Ovtf/3Y19Pz2/ffWucxQs1uEMaSuoeqvPX1z/++fZ6ehajO6ro0jamQ0g5pDwbbbKw/2ra6vL5u9SlK+PcAG/4hNm81fnH+Uut+tq2MqzDbaVeJjPgC/CobcvC/N2fOCzccjxdTr9tNG/x3aa/20Gx6dunn1v9yvdz0s61bKo4AOUT2j5g/KbT7gt+aVVfRIOMX76cn+S8ykUPnt72p6Xyv9nG+a8jbDlYYPlQYH0VZ7+/ARYb6L0jV3SwixUO7JAGEQZLDed/LvWpIfSmXOKAZNAUMcjyyxn73tTnJvgBPM1/ZGw4xX5fT88anXDLAay2R8EySTkS+vNVBrUajfwmoCZAWPQNDpOr9EGNdrF10+xP7z5OBs0HDFZsHY/cavJ17MTa0rVWwJXYn37V0ofFtjYjK2XRCDSIbRjZvjfO0aNf44RSxMGNml9Pz4uQd+yQMmmL+kr7vDnaBtNiIaQpAzOvztcStmfaSqZFygzAdpfpZjduX4t6LU6ppDCZwU4GE1OOwra3a+Dl9veU1yYjcFy2L9RXtD5rQk8u56cS/dlntMO//JK+6J9P9X3qSMRziFGOIuc7ZsRzQHRvnHOGE7qrY8FGNJHo25SIGuu7sm84LJtyUjXKHSfPFTOHQbagihgWuH6onbPLJP3IqVvo3KuflRL5m7ivXmujnNkMrDmZ9ik38Mqui/FtB07rWR4a2yb1RDJhhQaIRfp3QX1YbMMmG2JJXCqNfE06aadDtE5KRnmL8CN2iEGa+aUlJgd/3qKTMutEynBJFhOzDmLvwHCl7MI7wmzuDtkVaThlybm2WxATzTnns30kY5vcLrYcN9vYXDeUUSaE/tOnTx3oyVX66J6MVEH/8kt4WdssujURYSERq9kZbtdSTRWXcoiWi7DOabybWGQ7Dnv9GlsZhOTWM4fN0neKZF4cEZJ6LV3L/dwMxGr1p8v5yb322uuCovpmhwnXdstVctAs9hzbLrYMVdvHsZ+Uvid1knLaMve0NXrSUIZxi7sMVnP8VWn/ItN3ewYbDzZiOlrCorEtUIfvL5h2EVi3BiwqqiM6o6V2l8FRUYN9sOD1D4qkzjwHveUISo7ol7i6n6dE0mJ77ncLvM5ySBqD1djoR+PaBTgu+ZhrbL3We0Kdvb3rSWqGtXTwZ+woc9D80MI9jGJzO06p0a+WM4gdmUvnLrQoa8mBqH+eOzp+MNjED8TZqLBbmCsz13tbkKrO1O8XW4MOQacxWJVyyIAmsWk+iU34ddj7fmvgbMSn/ACnTlsv2Fwqd83jTdSu0K577SL1+2Kbsf5Zw7+kDNgX23ME4YhquJ23FGk4IkKJ54UAACAASURBVFPuiFGayujQi0ajGBb6TuroeNF4I3fcbFzFAftFMOJxpHOLsCetwWqqQ9IaaIgtSzv4bSPv5ZpqfblQ/9jqiyZoWahfqM41P9OyrS0mivs313XIgEbr+rEDjGAbazo+rQrvOa907Fxge6679t21aOPISHCtzCX21XRSmk7HjZgPF3cRmIgIT9iXaMPQOYKOZuFDzSkMt13s5W8DiqYW0oUYxnxmfFlDIj+yr5LoXLTS2pG/1fQva9f1y3H3fjZxdzrN5ojsDpRiSlPKtCTwTYiFckSyZ8Dlt9Hae435d2tPrpBoCqe93tZ2yZ5cPprlTBlAazpGObdb55HE3dqA9B+3jke9nsFXCfMlsa1px1FtPLG4mzRtasfQTMGI4fiNNkuHuTmq5AGXz2vrvaagWSFR7eQJA62jBd4d8Gy1iyozR+BHFHcr8jEZm6122LN/aLaBfhcS+Vp2HNVOszXIe0fwGivUUEsAawu8qiB5HJb4VP5cVeRVed6ehlWZ1+J6AgT+9vsXN4GfYbCcs7hxydelfD6rlviD2GYEfgZjj3W0KVF8TYHXTCfHsjnoODWR1xZ41fMnDshiFjBqltd3fmuCUcMxatb1oH4SHNyJ2K6xLr1vVnG/tfmdr6phx1HtN9pq7L0dLLZT1BJ4VUNJFIq9bDO/f9dxoow64iBVJ3/Q7XBLfGMyU5o8WhL4mfxdSsAS0WVWDyFQNFmi9+c+qPptZ6ppvVHkx0j6cPLBEapG2WOdUQ2Bn31dhG1fcVTiQFaNOXGnpqDZcreyjRm0avKI7VPShJqOUbOOrbS1X44aqXrE/eMn0O2gStOO5dxR7m5Gg/c7gP8+tkNoC/zk6a6HAZ3tOFGGHXHQNLYfcYuc4NLk0YrA+319kvfvUWVEt8g6ZOIpxAc/JTZlskRvP1AU3L/b7mIEXlugdlfioMxCTDpTeoE2PxG0XhlqlTtmLjnWQ2kKmlb9c84bE70LM00eCPxHhJfThru/EyMIsR3HO44sY7htVf13THtWHnWZ322X1IJEyNLh3X9jJDLiMb8Ap/fAjZiOEuuM5LiY83FMuAPkcokdgHl+6OGtpqDl1q3091JYafKI7VPSSKqpzYOChtLtmnE+lSieLGNZ3xbdrlsCf2sYnfTBRyfa9StuUkYj/G8Llqo9aSp2rrd3gZcRpjh149hlcOUMsDSdfbQRf9iRb6dFnFXjdfTrnPw+NduhyQOBP0gI3D60JQoPQ+DtD1SjVLfsia+NLYtuWL/mbz8CyWq6UsDvffiArbaUKLroBb0GEOcSK5TbZvR2hBH8y+fvqkYVOV8pJepO4MWof5y/CMck5vKDNvLdlqYMEtppqa6agqbZtyLOvfoIzSN4IPDHC7z036W2z/m8pUyL8U23Z0+k1sXoiuhhY3e+rPbzTYHXc9bXlM6c2hj2eGmUW4MUHYGllL0HgRfDlyxIqcGWqXMjHSGlrazduNsBBf4qTje3rTV5pLRVS8LhO1nDSKYZpU8tDJSFv9RXjpFAp6WBsZTJ7QO5r43/fTkV9b0+64j3uzLEobpL20kQ1FKbBTmsCbxUIvglLwrPOWbJ6EMwS3xmGkQ6UoEBS2pK04hdAWY5nLe+I44oxammtoWxIUl7HdjJpc1Ty+0eryloW+1TYr+x+VsaskRba/JIKV9rAi9c9g6SjSDKwKCAn9plOwUyX9KHDo52dw1kXR+w9toM0I5uryV9WRN4KfguI1m4qIx81oBp7xMnku2kMgxfrqfBcc85xYGkONO9bWIc14ER/R6by7aVBfvf026x35X2TZ1miW1jTR4pNtmKwAuPlHJHc36bHj0q+r3GlnPpuEP9nvy890LmZKm8ez9vxR7vfMSawGsUWBzPXpClvi8GmOSs1mCtFOpQQw+ITGoGYqVqybtug8YjnFb2grskGwnwvutwuvuLpyJDDazJI0UoNfxTYltlrWEIMV36zGTADhoYp7RFqPyadrLSTuptEqqr/UwGFYdnX1wfs6ZZGumVI8XFNoK/daLLB+ExkZAsBNwxGmxI4Kuse/D5+u8P6wRrxu4X0nl/kKP6WAnrdtjw6yqpSItEk0eKqBwp8OIX9vgEyzJ2K9mYFVFLsZX4YzP7i9TpCJ9Xu03W2k5DO7Paf60NNTpySgdeA6i1TzqtlLFkOY8wdt8YWjJ+absjIhNhkGM3Gv3Ab5/s95KKLPxo3i1GmjxS+t1hAn8Ac2kTrSnTJduTdt6yhaX9tQXO+LfK/WCp7vbz2u0VbMc1gddYGJXSgS2o3rdHC3yLxm/btLojyFgdrClowU4ZjtL9yOuwbIwmjxT/cIjAZ6zBsbZeYls7ks8pswRJO+zat/PN9y37t8NFfkPgN+GmNmRKB84xrha/c6TAt2z8tq1qirzwsNeN3WoKWmr/keOlPLWjdpeVJo8U/1Bb4FvpSzX7S840hEzD5th1zndaaRO3f/ivDxV5BN5vjvLvDxT47IVl5Sksn1HESjpqTgfP+U6q09IUtOTyHxxBSitq8mhY4FV+ini5VyzvMdNblW47FXFaLkl4j0bmd6GfdOHfhFLtweg7r9oC3+Iiu7CZlvv0KIFPFbJyNU4/0y2t97DI8d1Q49LWURmnVBvUFLSU+uU42/SW2P6GJo9WBX7PbZbbRNOPqBYVrglEoNjVyvVy+tWTfxNUNTMv735lrf3eDyroXGV0d2R6MWCT6h8dIfCtOaQYyLWcQ2qaXlPQYvtYK+Iu7ajJo0WBT7WXGFsvcUyNrFfqYLiaiK0JVwm4Cueonak0vmWNU6zzST6ugTSjQvstnrK2wIsDXixM4ztqOYiU0b+moMX0nVQnq93EmjxaFPiUMmmzd89fY0Cc6ktqpOdbHXC5bbP0urYWyNTAUlk+xTif7GMmEvnajZoiXouNf9COWvOLKaKpKWib/afBfqLJI0VMa8xrtiwmNfpKisDXGHBIf0mxkYPc2OplawUxxresCbxmRzYXP+h+0lX6CjurCvxagyrUTeOUrTlu9X6wMAUm4tLidJYmjxTnXcVOMhaZafSJpXNqi0XKAEcGzZsD1gVbj/5egwPepbZZ+vy23ihqvVA0lyWua3qgbTxSeDGglE69BK3lzysK/BDrG2pEJmJ7seKpKWhrHbjVTIwmjxRfUEPgY23kKP9TI2qOrZv48jV7LrGv1T4Ry8geV8N2De9VgX/7FbA6I40DfhzAwtbeVhP4tcbUrmTh89foALEL1zQFbdHpNdyWmjyaEvgOosXbYFjVR8d07RrlELuLKUsPx1SL4tf8SDVhctMLr6fnlE7eQ2PW4th6tJHSVlUcxuXz95gyaQpaSOBT0qIx5S99jCaPlL6vPQjs5U4U7cg5xn5q+LjYAXlMeVs4pkaGXPrIal1DDqjGZ2K00sFGEK0axi/GstqQHe7U7gCxEYGmoIX6UuuOTJNHSwLfSzpYu5/EuA7twZaszo8pR0/HVNGFTYE/6KcK7xzf6+lZnF6vYl+jIVsXhZyOJ3W6swM301PodUy5NAXNr1/soCOm3FrHaPJoSeC1+JU+r7a4xpRXe5CRctdLTHlbOUY7+7IZwddwsr6TW3l/FUPqTewrCPxwo1vbAVdsoci8Y0yUpilofv1SBM4yqr3V5JFSf01ha32axG1zbR/tXmvptbZQSR2Xrt3z5+p3HmxF8AJPu/F8Jxf9vhOxVxf4AdPzttNqRwYxgqIpaK6t9yIqmjxi2uPdNhQXAUsd7XVa32r7l5j6u3as8TqmDD0eo912mxG8QNMeIRYxCCv2f//5e2sNrd2Io45upR01ozSxu5iFVJqC5tp+L+2oyaMZgY9cgNmCr9H2L1t11F4R3tNga4tVaL/rA4q/jongpVDNRvGBuVgpq1mg14jYa3fAmDRzyLB6+EybXcwIV1PQ3A7dyxoTTR6tCHyMXbTUf1w7Kv16q54t9NGtMra8X7M/RduxeiMGhLqIodrI/nL67ahG1mZ3VL1qXbeIHSzZV8T0hmoHtOWKKEct3lvX0eSBwG/RD+/X7CPhK358qp3h7SWz9UEk7ZXqPHxsBC9FVi2IdXR6W7NA74hoV1PgxdmmmVN/R2tmj2L4aQqadcw9OTFNHgh8Xv+0dqSx3SqR9jRaik1slbXF/ZJt1mg3c84UgRc4ms5WrZLeoMGk8CuuytQUeFmE1qLRliyTpqC0IvC9pOeND3g5/dTqqynOXFVYUh1jSYPPOJdWe8h5t4qj2g4R198qX+v7VfUh1Y7FEY0g8mK4tYS+qQZs3doD5dNcSS82ELjk3UeaAwxrh3cXbPyNJg8EPq/xEfg8bi18qzl9GEnkrYPVTJE214AtWHVCGY6OEDQFzdhfRyu2pdk0eSDwCR3DOXRUgY8ZgDsYun2p1n6pEbwlOJrIW6FPcTCWxdZWU+A1ByZb9aq1f3iBrzhdVKLNEPgSFMueQ00gIlLkqhm2CdYYiSWotV+uwEuhROQ1G1et0t6cvH8dWUwodSvVBTUFXmNAUqrepc4zusAfsfBzT9sg8Hvo6XzX92El32+VWNMe5Nxb1x9hf8n2ujvXHoG3YCWKlB8DuDvxhoi2fqykhko5XgTeWkrednSBz6Ny3Lc0HXrKgFXVLko4xopNpOlPt6qhaQ8I/GnfI7lL2bGIoWZDaxrw2rlLpMAR+C0Xsb5f1ZFHpCA17bpHB6bJA4Ff7wtLe9d82N59S9e0n2vaQ4/9w3JJ2e5to8XvlxJ4WxkRRIl+Fy/YY2S/81Y0TYEvMQCxbdfqFoFvq2U0HToCn9fWmv52q0Sa/ROBbySC941gOKHfIfKaAi+dy2c/2ntNByKOcYuXpqD12H6aPBD4LWsM7x9V4GP6Z5hIP59K9lut/bT1wQi94oMx1MCEMg2ZIo/A7+tsmgs5Y27D0RQ0BP4+QkHg8/qKph/cKtHRA/Ct8rW+fwh9MKOU19Nz74vxclLiqg2YOeho3ejd8mkKrJzbvVboteb1EXgEPmRzqZ+NLPAl72hK5VrjeNEUtfbTjuB9QOb+eanQm9jvWyEYirIrfJa6ul5T4GMEym+D3t5rrumI4YfA31uMJg8i+HvWse/UBCJmCkvzWeovp18pNhHLq6XjVDMgtQXeBdur2Mekdd16agq8dGz3WiO+1nReMtDcYqYpaETwRPBb9hezX7OPbF1f27/Jj7FslaHn/arB7pEC7zeKSVXIz7v2sAo/AZx2B0jNKPjcW36vzS5GYBH4ewvR5CHtfX+15XfDRj7LVV7cM7LAxwzCF8F0sENV7xJ0qioqES0ZualWfl86/xo7N6QtUjnrAqo25o6Lqf6UovzgUER0oCloMQOMHfhUvqrJA4HPa7IjBV5KrHn91IxpHsFjvmXWpu3TofVp7lYF3sVtxL7FeftIeNoCP/IIVzV9FTm/pyloCDwpetfX5b7WFNiYMmkvno4NpmLK2tIxqgvsZOAQqVHNMPHm7Q99PG7syFJd4F9O12YaqHBBWnAcCPx9o2ryIIK/Zx377miB17QJqduoWUrtAKY7gfcN3s7baxr42rljDK+CwA/ZAdRHt5EDI1Xn1dsIm5+L9V1QE+/XfNTefTEVlB/o2nud1e9HLIaNKWdLx0iwulrnEqn7Dv1LsI3MXMbl/KQd8fkNIoYdLJDzYQ2BHzFNrz26FeF2mmnxJQJ/j0aTBxH8PevYd75fKvk+pgwVBuO/RkvTa68vMjYwisC7Rngztirp+5g0fRWBfzn9kkGOy6Hn17fRrW4bRhq/pqD1mELT5IHA5/XakoLunyumROqLxQZM01dZQB7p42LauKljzFy9dtrolkLZqngtge9RLJbY1YgI5BpL13c/1xS0HttMkwcC71pe/GtflEu+jy2FdvY0JpiKLevRx9Xwb8YGRhV424A3cVWNBLecUjWBfzlF37pn+bS6rTG6jU35aQoaAs8q+hJ9sKSg++eKLZ/2lJqUa8vXxpb16ONq+LcpBF4a8pY+UhP5LaOrKPC/YtYEHG3cW9evMbpNiQYQ+PsW0+Sx1ZfcksjgyBejYu87i3yK1TuwsMtlvva6xpxySr9dK+uR+2r4t3d76MyOs9tFdY5oA2JNgZeG7Xku3kyt1HiS4UabuYamKWhE8ETwrq3lvn536AGB3rsvtkyqPtapV+zUWmy5ax5XZW2Rw6pH/5LdHmoj/g2xqC3wPY9y1drINfrEQRACf9/lNHkQwd+zjn23V8TXvh9bBjmuUuq526lI9dsJPT83lcCrjTAbE3jTWTfKlNJpax2r1j6e0acOgDQFrccOqMkDgc/rbWsCvXdfSolqpOlNfTq8L75qat76vA51IMXeHo5VGWFuQKwdwdsOneIsH0BV/qBaal5ut4l4doFbfU1BQ+BJ0bu2lvva9nmNbUqZag3SpZ49pepvXNTWgS22+4Y2pbRtF8eqOOsNiEcJvNy2IobVQ8PUWIFrO0EqExWb6XiErckjZVCqOp2z0adb61PWtjW2qXXVtA+/fql9ObUuJY6vGbz4fFYDCJNSeD09+/c3mij49fSc0hlLgCpxDg3j2xpJHijwv6StxMBKsNM6R01xl/ZPrYeGzbx3xM6ERNhp8kjxKQj8hyW/25MdOBbcflwl7lXlVHTTQcyh4i42EPIvMiqK7cRyXA+jKGuasfVK6TBbTulIgZd6GJFvNJKvKe6GReTDbay9yFbDZt7tK9QB3Ys3+FqTx1ZfcnEg8B803u2poLDbc35cJf6VylToct2aFPnDxT0k8CLWfsRuG3plew2OFOLtodqRK3VY/13dZePafPjC0QJ/q3NznaC6uL/+8U+OoWkKWi/9xuWmyQOBd0nHv9bwa/ac8aX4OFJ18BX2xU35NxMk17jdN8ziQ8vcACJT3N9PJqO2lA76YQ51XmmljrZK34jASztdt6YTtupSYr8Z2b6cfloHUmubW3dNQUPgWWRXok9p9qGc8kkfzwgU37Uktz6yij+nvCW/c9OZ+gvqQmLvCnwpRybnaVHoS9XPNT4Z1GwZR0MC/9aBXk/P0gG3yq2x/8aiuvHHtNNSfTXs5t2G3A64VIDGPtfkkeI3VKPEztrl3Z5CTn7nZ7nmp9o+a3U6yL+ZwKXS759Et7e141v0vnsE5V64JaHXit4lzbzVAZoT+LfOUTWaNyP6twWbRW3Mtbe117nRu7StpqARwRPBb/mPmP1rtr93X8z1Q8cYwTsuTX2tGc03FbW7gx8r8JpP2BEHucfBhown5bO9Uw9rHSTGiBoVeCO0Etlqto0R9rdnhleP2m277Ynexc4Q+PvepsmDCP6edew7a+sa29gyhI67Cd8hg3phoe3fpH5yDQ3uRc75LvAV5kQN7B/nLyK4IWPQ+OwmrmriElOXlgXeGlHptjEd+8CI3dZLtimiEbJBTUEjgieCD9lc6meuvZd+nVoW/3jV/uNGq+uvrxLExvhrv/z+eznHLSBW05VibWgFvvaCCGl0iX5LAPcbQN7XSAmLKIau7X/Wg8C7BmXE/vL5u4i0cPTrE3pvjP7l/NdtZXwzhp/61LpQ3VQdlO2AoQs3+pkmj5TBmOocb2ft4vbf0q/3mqH4htJl2nm+q/FTl/OT2NuaBon/k2NEq1rzbVEMrB1HHbw+QspOw+QIypLR1YwcY9LzUs7eBD5kC2ZAZqZaZLrF+W84PSV2FTtAWbIn+VxT0IjgieDXbC92X6jPlvostgxrx6kOxpR0qRS/Q89jBV6c4aEFuW+kqxERWZF4OT+JaItIhv7NyMocY267qho5ro38XGMfQeAbso3ogaRwd9sh9zUCf09Ok0dKm6mKhnWM91Vv9p1m/yxVaU270ax/1+e2dgz8+0his1EjVs/bjoHAJ7K9H+xFC/pdm1nDto2wY6vaNwqWc0cVk76qyQOBT2qK94PvbL9E/3HO8X6RnS/MtOnLqWoQpsmlh3O/9ycTCTuN2kPhjyxjbPQufUJb4BvLvuQJcknbSxh8xfgsTUEjRX8/+Ht3SBENQwT/AUnTF35cZf8rbV+oyUHp3FdN//3en26jq+Odc0lHr3WuRAHRNurbIhZGxva5+5ELA2PdFQJ/T0qTx7tDur9k8B0C/4FFSXyMHnxcpcwrs05Kyzd3dl7x3VUEXppOtcN0Bn6lw1xTF25pC7y03U3kZx+gqTyPWlPQiOCJ4EvI5oq/2u0TSpTPP4fmc1c0WZQ8twx0hEvJc/rnesg0a44m/Iv3+N42im+wa+9rCLxcf/KRsYq4v3FVfG4+c/B3AkQEv+ZJlvdp+tLlq+7bc7vt7K79NevR0rntHVjagdlDC5lUfSMPKGmpQUxZElPzFm4tgZfrTSryauL+xhSBt7aszQOBd0nHv9b0lfGlSD9ySpF3dERZG66LLXITCuZ1b1MLktlYhLWxQ7kRf/mXn0zkVcVd2JKiv7cwTR4I/D3r2He9CrzUb6qpYUfctesu/XTVfojm3+YHRdxT591dsLUFXq49g8jvbRe3jdZea0YZ0k5r125xHwLfXqv0LPBCcwZ/FVpvo9mXxG9FWaoI1Kxz8yVE5AiBdzrNmFmYij8JqRlhpESsUZ21wkGaTiml+Jrt0tvAS0vgxf+ltMmeY2/z0UP6qyV70mo3c97U9T23e+WHbIAQaHFkeyJ3a+xHCbxcf8ROYxeoWL7aW83oooR9adffP7/WCuhUMdHsVw+rj30Ijb1XG3TFRoGFeEh/UKvLMXdyXZcG8Zp+RfRs6bqrTSUNcBs5Dy30JX6kxILUdETSkPY6S9tROo3JplT8JULL09i8gnNIFTRbnqO3Wo4pp89p/EhWj+2i9aCypchT2wZHCCa3AkTNqT/RhV2D1FGFXjp31shnxeKPFnhbtK47TWq6yVa60FajMx7lPEsgkX4Synrt+SzHIWm0S2iutAQzzXPcMnWlbzlLfuZHyTpKnbqN5jf81S1o0AySl1fQpzTSW3TY+I/eR0ZfEkFIfVLqH3NsKwIvZe2u08hc+wFRu9+upR1oj1Giy6R4FJ+ZCr61S0lHeaiouYxTXxefOtkQqdTy5R4vtqYxoNwzGF36ronaI/xV8f7ja1xmf1ptIyNkPd5DrywiLQm8bcDWO410FOFmy9vCtuSirhYGLXuZFoyudolqyfS09Iu9XI76vgm2CmVWRFA1gp09bFr2WcIrxV9pD1ikT+xhvfpdG9WrpM/8kUr++6uUr4ajbVHgbQM212leT88pHcXWo9a2hE33LCIu50KCUuQ5BrTLW8sUymgUaRPXVkq+Nj7rRfHhUwmaIoPc1P5cckC6lEmooWumTV2x1x61LFX27vPX07M0SM3RacsCbzueKeNB2RexCzH6akZpK5253SEm11RnkFnEal9769/ZzraokOxJUY/ULtKPcn2tfK+Xfmjqefn8Pbeud7qQIOpmYWdmcCj9RWNhqFsX4VHNAfgXMo3ycv5LnGSNhjHXOEDU3Xr3IPC2vO6ATNMQzci3I1G3fOxWBCHJfjMdgr1e69vkO2uEh9J6l5R2ETvsRdBSbMAIyeX85Dr+rddaa5BSyp17rNGVH+cvBaeN7hYsik0Jn70DwR3BwV151tpSypnLUeV7IoACzjgJI8annymdVCr7lio5/TSN8OP8Rc6p4UByAPQk8H79bMcxA7LMtJjpdJIduJyfhIV/jZ7fG7t9y3w8LPSyTmFEAQm1mRkcrjhZ00crDepsu4T8iPms8amgEN+cz1pqk5zy537H+K2bplhtWBNFu8/0WfFzjr8qpSPGJtMyBdGibssv21n8Ta5tFP9ezwK/BEOMSOq19r/0XT6HAAQgMBMB8ZeaGVEr8DJAmYlrE3UdUeCbAEshIACBbgiYqDowZ26iZrlFOeL2sm4q6xS0lrgbkW/k1kan+uO/RODHb2NqCAEIhAlIijt67nmwtSpVxZ30fNgAtT9F4LUJc34IQKBFAtkCN4DQ3+bcH9bm2HR68a3Gw21aNKrWyoTAt9YilAcCENAmkC3u7kK0DoXeLGy8fP5eXMBdLoHXwlu7TTl/gAACH4DCRxCAwNAEzN0KASHKEb63lfDtP2VQovaS9Y5mRfR+XF9C4I9jz5UhAIH6BBRvCTNPIJXz16/V8hWNsGfeRhwt4iuDJaL35bZR34PAqyPmAhCAQEMEKkWx72Jf6l71FIQiqvIEzkp1XbwnvrkH26RAHOFYBH6EVqQOEIBADIHb3PuiIJWIWEPnMEJrn1qqNB9tfPnl/HS0qDv13/VDTTHtyTEbBBD4DUDshgAEhiGg7e8ccdscRIgQm/l7WfQmwvxy/kvKF/NvnqxqvpP+ZNWUMu45trWpimGMOKUi2gafUhaOhQAEIKBJQNvf7RHEob7LwjpNM44/t7bBx5eEIyEAAQjoEtD2d0OJ9MrCubV6SmbiiHUHupbT6dm1Db5TLBQbAhAYkMBRc/BrgjjYvqI/szygCdatEgJflzdXgwAEjiVQ44dVBhPtzfUEtr6iJ8e2Lle/I4DA3+HgDQQgMDgBuXXLChLbU7R4b7FiUV2DHQeBb7BRKBIEIKBG4Jamr/cc9sy57C1BbWk/4q5mrvtOjMDv48e3IQCB/giIILUkkB2X5Yq4N2z/CHzDjUPRIAABNQKI/O70PAvq1Kyz0Ik1BV5ulyhUTE4DAQhAoDgBEfmGnvxWbD5cOyMgD+jhVrji5qhzQi1jECPQKTFnhQAEIFCGgPkJ1Qae267lh4uf93J+KkOes1QhoDaC5WlGVdqPi0AAAmUIENEvp+1N1K70HP0yrcdZggS+vZ6ei4/yXk6/WHwRxM2HEIBA4wTM1KWSX9TwtZrnlAAQX964wa4VT2kenl8SWoPOPghAoHkC5pa6tn6hrdo8PcLevHnGF1DSL0VHgczTxMPnSAhAoHkCEsXesp1D30OPsDdviukFLPmMZjGQ9BLwDQhAAAJ9EBhQ7K8yeBEd6KMFKGUyAWO0+5+6xL2RyeT5AgQg0CsBM8XZYRrfROqXz9+ZWkrrcwAAAKZJREFUX+/V8jLKvUfkxWAYAWZA5ysQgMAQBOSWu3fBf5v2bCadL/5ZonTx8fjpIcwtrxLS+MYYUqJ5Se9cTr/lXZFvQQACEBiTgPhTK/pvAnv6mexfE3yxnFvWVMmP6nz9cf4i1x6TLLXaRcBE8+u3ijBvs4swX4YABGYmYCN+EeH3QcDl/PQt4t+Kt/3uzByp+04C1ojslhTPTqB8HQIQgMDkBP4/bxuKGowyZtAAAAAASUVORK5CYII=;" parent="OWNzuiMXCO4bU7EgIZqG-1" vertex="1">
          <mxGeometry x="1229" y="480" width="100.24" height="72" as="geometry" />
        </mxCell>
        <mxCell id="6UG8_OfNvHeWKdYFaVZi-50" style="edgeStyle=orthogonalEdgeStyle;rounded=0;orthogonalLoop=1;jettySize=auto;html=1;entryX=0.5;entryY=0;entryDx=0;entryDy=0;fontSize=20;fontColor=#FFFFFF;startArrow=none;startFill=0;endArrow=classic;endFill=1;strokeColor=default;strokeWidth=2;" parent="OWNzuiMXCO4bU7EgIZqG-1" target="6UG8_OfNvHeWKdYFaVZi-41" edge="1">
          <mxGeometry relative="1" as="geometry">
            <mxPoint x="539" y="366" as="sourcePoint" />
            <mxPoint x="860.3699999999999" y="403.42" as="targetPoint" />
            <Array as="points">
              <mxPoint x="1197" y="366" />
            </Array>
          </mxGeometry>
        </mxCell>
        <mxCell id="6UG8_OfNvHeWKdYFaVZi-51" style="edgeStyle=orthogonalEdgeStyle;rounded=0;orthogonalLoop=1;jettySize=auto;html=1;entryX=0.5;entryY=0;entryDx=0;entryDy=0;fontSize=20;fontColor=#FFFFFF;startArrow=none;startFill=0;endArrow=classic;endFill=1;strokeColor=default;strokeWidth=2;exitX=1;exitY=0.5;exitDx=0;exitDy=0;" parent="OWNzuiMXCO4bU7EgIZqG-1" source="6UG8_OfNvHeWKdYFaVZi-17" target="6UG8_OfNvHeWKdYFaVZi-40" edge="1">
          <mxGeometry relative="1" as="geometry">
            <mxPoint x="579" y="481.5" as="sourcePoint" />
            <mxPoint x="1236.5" y="518.5" as="targetPoint" />
            <Array as="points">
              <mxPoint x="539" y="366" />
              <mxPoint x="816" y="366" />
            </Array>
          </mxGeometry>
        </mxCell>
        <mxCell id="6UG8_OfNvHeWKdYFaVZi-52" style="edgeStyle=orthogonalEdgeStyle;rounded=0;orthogonalLoop=1;jettySize=auto;html=1;fontSize=20;fontColor=#FFFFFF;startArrow=none;startFill=0;endArrow=classic;endFill=1;strokeColor=default;strokeWidth=2;" parent="OWNzuiMXCO4bU7EgIZqG-1" edge="1">
          <mxGeometry relative="1" as="geometry">
            <mxPoint x="539" y="366" as="sourcePoint" />
            <mxPoint x="1579" y="404" as="targetPoint" />
            <Array as="points">
              <mxPoint x="1579" y="366" />
            </Array>
          </mxGeometry>
        </mxCell>
        <mxCell id="6UG8_OfNvHeWKdYFaVZi-53" value="TCP : 443, 80" style="text;html=1;align=center;verticalAlign=middle;resizable=0;points=[];autosize=1;strokeColor=none;fillColor=none;fontSize=20;fontColor=#333333;" parent="OWNzuiMXCO4bU7EgIZqG-1" vertex="1">
          <mxGeometry x="649" y="540" width="140" height="30" as="geometry" />
        </mxCell>
        <mxCell id="6UG8_OfNvHeWKdYFaVZi-60" value="TCP : 22" style="text;html=1;align=center;verticalAlign=middle;resizable=0;points=[];autosize=1;strokeColor=none;fillColor=none;fontSize=20;fontColor=#333333;" parent="OWNzuiMXCO4bU7EgIZqG-1" vertex="1">
          <mxGeometry x="756" y="329" width="90" height="30" as="geometry" />
        </mxCell>
        <mxCell id="6UG8_OfNvHeWKdYFaVZi-61" value="TCP : 22" style="text;html=1;align=center;verticalAlign=middle;resizable=0;points=[];autosize=1;strokeColor=none;fillColor=none;fontSize=20;fontColor=#333333;" parent="OWNzuiMXCO4bU7EgIZqG-1" vertex="1">
          <mxGeometry x="1139" y="336" width="90" height="30" as="geometry" />
        </mxCell>
        <mxCell id="6UG8_OfNvHeWKdYFaVZi-62" value="TCP : 22" style="text;html=1;align=center;verticalAlign=middle;resizable=0;points=[];autosize=1;strokeColor=none;fillColor=none;fontSize=20;fontColor=#333333;" parent="OWNzuiMXCO4bU7EgIZqG-1" vertex="1">
          <mxGeometry x="1529" y="336" width="90" height="30" as="geometry" />
        </mxCell>
        <mxCell id="6UG8_OfNvHeWKdYFaVZi-64" value="Private IP&lt;br&gt;TCP : 8080" style="text;html=1;align=center;verticalAlign=middle;resizable=0;points=[];autosize=1;strokeColor=none;fillColor=none;fontSize=20;fontColor=#333333;" parent="OWNzuiMXCO4bU7EgIZqG-1" vertex="1">
          <mxGeometry x="932.62" y="399" width="120" height="50" as="geometry" />
        </mxCell>
        <mxCell id="6UG8_OfNvHeWKdYFaVZi-65" value="Private IP&lt;br&gt;TCP : 33066" style="text;html=1;align=center;verticalAlign=middle;resizable=0;points=[];autosize=1;strokeColor=none;fillColor=none;fontSize=20;fontColor=#333333;" parent="OWNzuiMXCO4bU7EgIZqG-1" vertex="1">
          <mxGeometry x="1329" y="403" width="130" height="50" as="geometry" />
        </mxCell>
        <mxCell id="6UG8_OfNvHeWKdYFaVZi-67" value="" style="sketch=0;outlineConnect=0;fontColor=#232F3E;gradientColor=none;fillColor=#F58534;strokeColor=none;dashed=0;verticalLabelPosition=bottom;verticalAlign=top;align=center;html=1;fontSize=12;fontStyle=0;aspect=fixed;pointerEvents=1;shape=mxgraph.aws4.rds_mariadb_instance;rounded=0;shadow=0;glass=0;labelBackgroundColor=none;labelBorderColor=none;" parent="OWNzuiMXCO4bU7EgIZqG-1" vertex="1">
          <mxGeometry x="1629" y="471" width="78" height="78" as="geometry" />
        </mxCell>
        <mxCell id="6UG8_OfNvHeWKdYFaVZi-89" style="edgeStyle=orthogonalEdgeStyle;rounded=0;orthogonalLoop=1;jettySize=auto;html=1;fontSize=20;fontColor=#000000;startArrow=none;startFill=0;endArrow=classic;endFill=1;strokeColor=default;strokeWidth=2;" parent="OWNzuiMXCO4bU7EgIZqG-1" edge="1">
          <mxGeometry relative="1" as="geometry">
            <mxPoint x="149" y="921" as="targetPoint" />
            <mxPoint x="369" y="921" as="sourcePoint" />
          </mxGeometry>
        </mxCell>
        <mxCell id="6UG8_OfNvHeWKdYFaVZi-69" value="" style="fontStyle=0;verticalAlign=top;align=center;spacingTop=-2;fillColor=none;rounded=0;whiteSpace=wrap;html=1;strokeColor=#FF0000;strokeWidth=4;dashed=1;container=1;collapsible=0;expand=0;recursiveResize=0;shadow=0;glass=0;labelBackgroundColor=none;labelBorderColor=none;sketch=0;fontSize=20;fontColor=#333333;" parent="OWNzuiMXCO4bU7EgIZqG-1" vertex="1">
          <mxGeometry x="694.5" y="856" width="1007.5" height="130" as="geometry" />
        </mxCell>
        <mxCell id="6UG8_OfNvHeWKdYFaVZi-73" value="Amazon EC2&lt;br&gt;Security Group" style="text;html=1;align=center;verticalAlign=middle;resizable=0;points=[];autosize=1;strokeColor=none;fillColor=none;fontSize=20;fontColor=#333333;" parent="6UG8_OfNvHeWKdYFaVZi-69" vertex="1">
          <mxGeometry x="422.5" y="40" width="150" height="50" as="geometry" />
        </mxCell>
        <mxCell id="6UG8_OfNvHeWKdYFaVZi-81" value="OutBound" style="text;html=1;strokeColor=none;fillColor=none;align=center;verticalAlign=middle;whiteSpace=wrap;rounded=0;shadow=0;glass=0;labelBackgroundColor=none;labelBorderColor=none;sketch=0;fontSize=20;fontColor=#000000;" parent="OWNzuiMXCO4bU7EgIZqG-1" vertex="1">
          <mxGeometry x="786.5" y="716" width="60" height="30" as="geometry" />
        </mxCell>
        <mxCell id="6UG8_OfNvHeWKdYFaVZi-83" value="" style="edgeStyle=orthogonalEdgeStyle;rounded=0;orthogonalLoop=1;jettySize=auto;html=1;fontSize=20;fontColor=#000000;startArrow=none;startFill=0;endArrow=none;endFill=1;strokeColor=default;strokeWidth=2;entryX=0.5;entryY=0;entryDx=0;entryDy=0;" parent="OWNzuiMXCO4bU7EgIZqG-1" source="6UG8_OfNvHeWKdYFaVZi-40" target="6UG8_OfNvHeWKdYFaVZi-81" edge="1">
          <mxGeometry relative="1" as="geometry">
            <mxPoint x="816.5999999999999" y="514.5" as="sourcePoint" />
            <mxPoint x="815.4000000000001" y="782" as="targetPoint" />
          </mxGeometry>
        </mxCell>
        <mxCell id="6UG8_OfNvHeWKdYFaVZi-85" value="OutBound" style="text;html=1;strokeColor=none;fillColor=none;align=center;verticalAlign=middle;whiteSpace=wrap;rounded=0;shadow=0;glass=0;labelBackgroundColor=none;labelBorderColor=none;sketch=0;fontSize=20;fontColor=#000000;" parent="OWNzuiMXCO4bU7EgIZqG-1" vertex="1">
          <mxGeometry x="1166.5" y="716" width="60" height="30" as="geometry" />
        </mxCell>
        <mxCell id="6UG8_OfNvHeWKdYFaVZi-86" value="" style="edgeStyle=orthogonalEdgeStyle;rounded=0;orthogonalLoop=1;jettySize=auto;html=1;entryX=0.5;entryY=0;entryDx=0;entryDy=0;fontSize=20;fontColor=#000000;startArrow=none;startFill=0;endArrow=none;endFill=1;strokeColor=default;strokeWidth=2;" parent="OWNzuiMXCO4bU7EgIZqG-1" source="6UG8_OfNvHeWKdYFaVZi-41" target="6UG8_OfNvHeWKdYFaVZi-85" edge="1">
          <mxGeometry relative="1" as="geometry">
            <mxPoint x="1196.6" y="515.5" as="sourcePoint" />
            <mxPoint x="1198.25" y="786" as="targetPoint" />
          </mxGeometry>
        </mxCell>
        <mxCell id="6UG8_OfNvHeWKdYFaVZi-93" value="" style="edgeStyle=orthogonalEdgeStyle;rounded=0;orthogonalLoop=1;jettySize=auto;html=1;fontSize=20;fontColor=#000000;startArrow=none;startFill=0;endArrow=none;endFill=1;strokeColor=default;strokeWidth=2;" parent="OWNzuiMXCO4bU7EgIZqG-1" source="6UG8_OfNvHeWKdYFaVZi-69" target="6UG8_OfNvHeWKdYFaVZi-94" edge="1">
          <mxGeometry relative="1" as="geometry">
            <mxPoint x="479" y="921" as="targetPoint" />
            <mxPoint x="694.5" y="921" as="sourcePoint" />
          </mxGeometry>
        </mxCell>
        <mxCell id="6UG8_OfNvHeWKdYFaVZi-94" value="OutBound" style="text;html=1;align=center;verticalAlign=middle;whiteSpace=wrap;rounded=0;shadow=0;glass=0;labelBackgroundColor=default;labelBorderColor=none;sketch=0;fontSize=20;" parent="OWNzuiMXCO4bU7EgIZqG-1" vertex="1">
          <mxGeometry x="388.5" y="906" width="60" height="30" as="geometry" />
        </mxCell>
        <mxCell id="6UG8_OfNvHeWKdYFaVZi-95" value="" style="fontStyle=0;verticalAlign=top;align=center;spacingTop=-2;fillColor=none;rounded=0;whiteSpace=wrap;html=1;strokeColor=#FF0000;strokeWidth=4;dashed=1;container=1;collapsible=0;expand=0;recursiveResize=0;shadow=0;glass=0;labelBackgroundColor=none;labelBorderColor=none;sketch=0;fontSize=20;fontColor=#333333;" parent="OWNzuiMXCO4bU7EgIZqG-1" vertex="1">
          <mxGeometry x="408.5" y="495" width="190" height="91" as="geometry" />
        </mxCell>
        <mxCell id="CyoH15mEuUdWc_R0NwXX-0" value="&lt;font style=&quot;font-size: 42px&quot;&gt;AWS Network Diagram&lt;/font&gt;" style="text;html=1;align=center;verticalAlign=middle;resizable=0;points=[];autosize=1;fontSize=22;rounded=0;" parent="OWNzuiMXCO4bU7EgIZqG-1" vertex="1">
          <mxGeometry x="20" y="20" width="450" height="40" as="geometry" />
        </mxCell>
        <mxCell id="HIg1rz9lwmVHpvKF26lP-0" value="&lt;span style=&quot;font-size: 20px&quot;&gt;Copyright 2022. &lt;br&gt;imcf all rights reserved.&lt;/span&gt;" style="text;html=1;align=left;verticalAlign=middle;resizable=0;points=[];autosize=1;fontSize=22;rounded=0;" parent="OWNzuiMXCO4bU7EgIZqG-1" vertex="1">
          <mxGeometry x="1870" y="1100" width="220" height="60" as="geometry" />
        </mxCell>
        <mxCell id="C0G0o5T28yLlKA19NXlB-0" value="" style="shape=image;verticalLabelPosition=bottom;labelBackgroundColor=default;verticalAlign=top;aspect=fixed;imageAspect=0;image=data:image/png,iVBORw0KGgoAAAANSUhEUgAABsAAAAHUCAYAAACEWe19AAAAAXNSR0IArs4c6QAAAERlWElmTU0AKgAAAAgAAYdpAAQAAAABAAAAGgAAAAAAA6ABAAMAAAABAAEAAKACAAQAAAABAAAGwKADAAQAAAABAAAB1AAAAAAde2eoAABAAElEQVR4AezdCbxkVXko+rWrT9PgwKhGjXGeQJwSZwVDdyNK8Oa9e7VffjcOSR7Rm2gACQgKdFc3gxAciUNI7jXX6b6X1mtyA2II3c0ViKJiNETBIRo0Ro0BBFSgp9r3q0NX9zmnzzld55y9q/bwL37Nqdq191rf+q9du1bVV3vtLLkRIECAAAECBAgQIECAQJUE8nmCyeZ5zlMECBAgQIAAAQIECBAgsEvAhye7AgECBAgQIECAAAECBKohMF/ia2aEPsvNFPGYAAECBAgQIECAAAECUwR8aJqC4S4BAgQIECBAgAABAgTGJLCQ5NfUEH2mm6rhPgECBAgQIECAAAECBHYJdEgQIECAAAECBAgQIECAQG0FFps4q22DBU6AAAECBAgQIECAAIFhBPxacBgl6xAgQIAAAQIECBAgQKA8gaKSWD7flddHSiZAgAABAgQIECBAoGYCPiDVrMOES4AAAQIECBAgQIBA4wSKSoANYHzOG0j4S4AAAQIECBAgQIBAawV8MGpt12s4AQIECBAgQIAAAQIVESg6ATZols97Awl/CRAgQIAAAQIECBBonYAPRK3rcg0mQIAAAQIECBAgQKBiAmUlwAbN9LlvIOEvAQIECBAgQIAAAQKtEei0pqUaSoAAAQIECBAgQIAAgXYKlJ1ga6eqVhMgQIAAAQIECBAgUGkBvwSsdPcIjgABAgQIECBAgACBFgiMMkHlM2ALdihNJECAAAECBAgQIEAgJR9+7AUECBAgQIAAAQIECBAYr8AoE2CDlvosOJDwlwABAgQIECBAgACBRgr40NPIbtUoAgQIECBAgAABAgRqJDCOBNiAx2fCgYS/BAgQIECAAAECBAg0SsCHnUZ1p8YQIECAAAECBAgQIFBDgXEmwAZcPhsOJPwlQIAAAQIECBAgQKARAp1GtEIjCBAgQIAAAQIECBAgQGApAlVIwi0lftsSIECAAAECBAgQIEBgmoBf+U3j8IAAAQIECBAgQIAAAQIjF6ha8snnxJHvAiokQIAAAQIECBAgQKBoAR9sihZVHgECBAgQIECAAAECBBYmULUE2CB6nxcHEv4SIECAAAECBAgQIFA7AR9oatdlAiZAgAABAgQIECBAoGECVU2ADZh9bhxI+EuAAAECBAgQIECAQG0EfJCpTVcJlAABAgQIECBAgACBhgpUPQE2YPf5cSDhLwECBAgQIECAAAEClRfoVD5CARIgQIAAAQIECBAgQIBAFQTqkqirgpUYCBAgQIAAAQIECBAYs4Bf8I25A1RPgAABAgQIECBAgEDrBeqYWPJZsvW7LQACBAgQIECAAAEC1RbwoaXa/SM6AgQIECBAgAABAgSaL1DHBNigV3ymHEj4S4AAAQIECBAgQIBApQR8WKlUdwiGAAECBAgQIECAAIEWCtQ5ATboLp8tBxL+EiBAgAABAgQIECBQCQEfUirRDYIgQIAAAQIECBAgQKDFAk1IgA26z2fMgYS/BAgQIECAAAECBAiMVaAz1tpVToAAAQIECBAgQIAAAQJNEmhSMq9J/aItBAgQIECAAAECBFon4Nd5retyDSZAgAABAgQIECBAoGICTU0a+bxZsR1NOAQIECBAgAABAgTaJOADSZt6W1sJECBAgAABAgQIEKiiQFMTYANrnzsHEv4SIECAAAECBAgQIDAyAR9ERkatIgIECBAgQIAAAQIECMwq0PQE2KDRPn8OJPwlQIAAAQIECBAgQKB0AdcAK51YBQQIECBAgAABAgQIECAQAm1J9OlsAgQIECBAgAABAgQqIOAXeBXoBCEQIECAAAECBAgQINBqgTYmhnwWbfUur/EECBAgQIAAAQIEyhfwoaN8YzUQIECAAAECBAgQIEBgPoE2JsAGHj6TDiT8JUCAAAECBAgQIECgUAEfNgrlVBgBAgQIECBAgAABAgQWLNDmBNgAy2fTgYS/BAgQIECAAAECBAgUIuBDRiGMCiFAgAABAgQIECBAgMCiBSTA9tD5jLrHwj0CBAgQIECAAAECBJYg0FnCtjYlQIAAAQIECBAgQIAAAQJFCkgGFqmpLAIECBAgQIAAAQItFvDruhZ3vqYTIECAAAECBAgQIFAJAUmf2bvB59XZXSwlQIAAAQIECBAgQGAIAR8ohkCyCgECBAgQIECAAAECBEoUkACbH9fn1vl9PEuAAAECBAgQIECAwCwCPkjMgmIRAQIECBAgQIAAAQIERiggATYcts+vwzlZiwABAgQIECBAgACBEPABwm5AgAABAgQIECBAgACB8QpIgC3M3+fYhXlZmwABAgQIECBAgEArBTqtbLVGEyBAgAABAgQIECBAgEBdBSQM69pz4iZAgAABAgQIECAwQgG/nBshtqoIECBAgAABAgQIECAwi4CEziwoQy7ymXZIKKsRIECAAAECBAgQaJuADwtt63HtJUCAAAECBAgQIECgagISYEvvEZ9tl26oBAIECBAgQIAAAQKNEjAFYqO6U2MIECBAgAABAgQIECDQSgFJxFZ2u0YTIECAAAECBAgQmFtAAmxuG88QIECAAAECBAgQIECAQH0EJMHq01ciJUCAAAECBAgQIFC6gARY6cQqIECAAAECBAgQIECAAIERCUiCjQhaNQQIECBAgAABAgSqLiABVvUeEh8BAgQIECBAgAABAgQILERAEmwhWtYlQIAAAQIECBAg0FABCbCGdqxmESBAgAABAgQIECBAoMUCkmAt7nxNJ0CAAAECBAgQINAXkACzHxAgQIAAAQIECBAgQIAAAQIECBAgQIAAAQIECDRKQAKsUd2pMQQIECBAgAABAgQIECCwS8BZYHYFAgQIECBAgAABAi0WkABrcedrOgECBAgQIECAAAECBAgQIECAAAECBAgQIECgiQISYE3sVW0iQIAAAQIECBAgQIAAAQIECBAgQIAAAQIECLRYQAKsxZ2v6QQIECBAgAABAgQIECBAgAABAgQIECBAgACBJgpIgDWxV7WJAAECBAgQIECAAAECBAgQIECAAAECBAgQINBiAQmwFne+phMgQIAAAQIECBAgQIAAAQIECBAgQIAAAQIEmiggAdbEXtUmAgQIECBAgAABAgQIECBAgAABAgQIECBAgECLBSTAWtz5mk6AAAECBAgQIECAAAECBAgQIECAAAECBAgQaKKABFgTe1WbCBAgQIAAAQIECBAgQIAAAQIECBAgQIAAAQItFpAAa3HnazoBAgQIECBAgAABAgQIECBAgAABAgQIECBAoIkCEmBN7FVtIkCAAAECBAgQIECAAAECBAgQIECAAAECBAi0WEACrMWdr+kECBAgQIAAAQIECBAgQIAAAQIECBAgQIAAgSYKSIA1sVe1iQABAgQIECBAgAABAgQIECBAgAABAgQIECDQYgEJsBZ3vqYTIECAAAECBAgQIECAAAECBAgQIECAAAECBJooIAHWxF7VJgIECBAgQIAAAQIECBAgQIAAAQIECBAgQIBAiwUkwFrc+ZpOgAABAgQIECBAgAABAgQIECBAgAABAgQIEGiigARYE3tVmwgQIECAAAECBAgQIECAAAECBAgQIECAAAECLRaQAGtx52s6AQIECBAgQIAAAQIECBAgQIAAAQIECBAgQKCJAhJgTexVbSJAgAABAgQIECBAgAABAgQIECBAgAABAgQItFhAAqzFna/pBAgQIECAAAECBAgQIECAAAECBAgQIECAAIEmCkiANbFXtYkAAQIECBAgQIAAAQIECBAgQIAAAQIECBAg0GIBCbAWd76mEyBAgAABAgQIECBAgAABAgQIECBAgAABAgSaKCAB1sRe1SYCBAgQIECAAAECBAgQIECAAAECBAgQIECAQIsFJMBa3PmaToAAAQIECBAgQIAAAQIECBAgQIAAAQIECBBoooAEWBN7VZsIECBAgAABAgQIECBAgAABAgQIECBAgAABAi0WkABrcedrOgECBAgQIECAAAECBAgQIECAAAECBAgQIECgiQISYE3sVW0iQIAAAQIECBAgQIAAAQIECBAgQIAAAQIECLRYQAKsxZ2v6QQIECBAgAABAgQIECBAgAABAgQIECBAgACBJgpIgDWxV7WJAAECBAgQIECAAAECBAgQIECAAAECBAgQINBiAQmwFne+phMgQIAAAQIECBAgQIAAAQIECBAgQIAAAQIEmiggAdbEXtUmAgQIECBAgAABAgQIECBAgAABAgQIECBAgECLBSTAWtz5mk6AAAECBAgQIECAAAECBAgQIECAAAECBAgQaKKABFgTe1WbCBAgQIAAAQIECBAgQIAAAQIECBAgQIAAAQItFpAAa3HnazoBAgQIECBAgAABAgQIECBAgAABAgQIECBAoIkCEmBN7FVtIkCAAAECBAgQIECAAAECBAgQIECAAAECBAi0WEACrMWdr+kECBAgQIAAAQIECBAgQIAAAQIECBAgQIAAgSYKSIA1sVe1iQABAgQIECBAgAABAgQIECBAgAABAgQIECDQYgEJsBZ3vqYTIECAAAECBAgQIECAAAECBAgQIECAAAECBJooIAHWxF7VJgIECBAgQIAAAQIECBAgQIAAAQIECBAgQIBAiwUkwFrc+ZpOgAABAgQIECBAgAABAgQIECBAgAABAgQIEGiigARYE3tVmwgQIECAAAECBAgQIECAAAECBAgQIECAAAECLRaQAGtx52s6AQIECBAgQIAAAQIECBAgQIAAAQIECBAgQKCJAhJgTexVbSJAgAABAgQIECBAgAABAgQIECBAgAABAgQItFhAAqzFna/pBAgQIECAAAECBAgQIECAAAECBAgQIECAAIEmCkiANbFXtYkAAQIECBAgQIAAAQIECBAgQIAAAQIECBAg0GIBCbAWd76mEyBAgAABAgQIECBAgAABAgQIECBAgAABAgSaKCAB1sRe1SYCBAgQIECAAAECBAgQIECAAAECBAgQIECAQIsFJMBa3PmaToAAAQIECBAgQIAAAQIECBAgQIAAAQIECBBoooAEWBN7VZsIECBAgAABAgQIECBAgAABAgQIECBAgAABAi0WkABrcedrOgECBAgQIECAAAECBAgQIECAAAECBAgQIECgiQISYE3sVW0iQIAAAQIECBAgQIAAAQIECBAgQIAAAQIECLRYQAKsxZ2v6QQIECBAgAABAgQIECBAgAABAgQIECBAgACBJgpIgDWxV7WJAAECBAgQIECAAAECBAgQIECAAAECBAgQINBiAQmwFne+phMgQIAAAQIECBAgQIAAAQIECBAgQIAAAQIEmiggAdbEXtUmAgQIECBAgAABAgQIECBAgAABAgQIECBAgECLBSTAWtz5mk6AAAECBAgQIECAAAECBAgQIECAAAECBAgQaKKABFgTe1WbCBAgQIAAAQIECBAgQIAAAQIECBAgQIAAAQItFpAAa3HnazoBAgQIECBAgAABAgQIECBAgAABAgQIECBAoIkCEmBN7FVtIkCAAAECBAgQIECAAAECBAgQIECAAAECBAi0WEACrMWdr+kECBAgQIAAAQIECBAgQIAAAQIECBAgQIAAgSYKSIA1sVe1iQABAgQIECBAgAABAgQIECBAgAABAgQIECDQYgEJsBZ3vqYTIECAAAECBAgQIECAAAECBAgQIECAAAECBJooIAHWxF7VJgIECBAgQIAAAQIECBAgQIAAAQIECBAgQIBAiwUkwFrc+ZpOgAABAgQIECBAgAABAgQIECBAgAABAgQIEGiigARYE3tVmwgQIECAAAECBAgQIECAAAECBAgQIECAAAECLRaQAGtx52s6AQIECBAgQIAAAQIECBAgQIAAAQIECBAgQKCJAhJgTexVbSJAgAABAgQIECBAgAABAgQIECBAgAABAgQItFhAAqzFna/pBAgQIECAAAECBAgQIECAAAECBAgQIECAAIEmCkiANbFXtYkAAQIECBAgQIAAAQIECBAgQIAAAQIECBAg0GIBCbAWd76mEyBAgAABAgQIECBAgAABAgQIECBAgAABAgSaKCAB1sRe1SYCBAgQIECAAAECBAgQIECAAAECBAgQIECAQIsFJMBa3PmaToAAAQIECBAgQIAAAQIECBAgQIAAAQIECBBoooAEWBN7VZsIECBAgAABAgQIECBAgAABAgQIECBAgAABAi0WkABrcedrOgECBAgQIECAAAECBAgQIECAAAECBAgQIECgiQISYE3sVW0iQIAAAQIECBAgQIAAAQIECBAgQIAAAQIECLRYQAKsxZ2v6QQIECBAgAABAgQIECBAgAABAgQIECBAgACBJgpIgDWxV7WJAAECBAgQIECAAAECBAgQIECAAAECBAgQINBiAQmwFne+phMgQIAAAQIECBAgQIAAAQIECBAgQIAAAQIEmiggAdbEXtUmAgQIECBAgAABAgQIECBAgAABAgQIECBAgECLBSTAWtz5mk6AAAECBAgQIECAAAECBAgQIECAAAECBAgQaKKABFgTe1WbCBAgQIAAAQIECBAgQIAAAQIECBAgQIAAAQItFpAAa3HnazoBAgQIECBAgAABAgQIECBAgAABAgQIECBAoIkCEmBN7FVtIkCAAAECBAgQIECAAAECBAgQIECAAAECBAi0WEACrMWdr+kECBAgQIAAAQIECBAgQIAAAQIECBAgQIAAgSYKSIA1sVe1iQABAgQIECBAgAABAgQIECBAgAABAgQIECDQYgEJsBZ3vqYTIECAAAECBAgQIECAAAECBAgQIECAAAECBJooIAHWxF7VJgIECBAgQIAAAQIECBAgQIAAAQIECBAgQIBAiwUkwFrc+ZpOgAABAgQIECBAgAABAgQIECBAgAABAgQIEGiigARYE3tVmwgQIECAAAECBAgQIECAAAECBAgQIECAAAECLRaQAGtx52s6AQIECBAgQIAAAQIECBAgQIAAAQIECBAgQKCJAhJgTexVbSJAgAABAgQIECBAgAABAgQIECBAgAABAgQItFhAAqzFna/pBAgQIECAAAECBAgQIECAAAECBAgQIECAAIEmCkiANbFXtYkAAQIECBAgQIAAAQIECBAgQIAAAQIECBAg0GIBCbAWd76mEyBAgAABAgQIECBAgAABAgQIECBAgAABAgSaKCAB1sRe1SYCBAgQIECAAAECBAgQIECAAAECBAgQIECAQIsFJMBa3PmaToAAAQIECBAgQIAAAQIECBAgQIAAAQIECBBoooAEWBN7VZsIECBAgAABAgQIECBAgAABAgQIECBAgAABAi0WkABrcedrOgECBAgQIECAAAECBAgQIECAAAECBAgQIECgiQISYE3sVW0iQIAAAQIECBAgQIAAAQIECBAgQIAAAQIECLRYQAKsxZ2v6QQIECBAgAABAgQIECBAgAABAgQIECBAgACBJgpIgDWxV7WJAAECBAgQIECAAAECBAgQIECAAAECBAgQINBiAQmwFne+phMgQIAAAQIECBAgQIAAAQIECBAgQIAAAQIEmiggAdbEXtUmAgQIECBAgAABAgQIECBAgAABAgQIECBAgECLBSTAWtz5mk6AAAECBAgQIECAAAECBAgQIECAAAECBAgQaKKABFgTe1WbCBAgQIAAAQIECBAgQIAAAQIECBAgQIAAAQItFpAAa3HnazoBAgQIECBAgAABAgQIECBAgAABAgQIECBAoIkCEmBN7FVtIkCAAAECBAgQIECAAAECBAgQIECAAAECBAi0WEACrMWdr+kECBAgQIAAAQIECBAgQIAAAQIECBAgQIAAgSYKSIA1sVe1iQABAgQIECBAgAABAgQIECBAgAABAgQIECDQYgEJsBZ3vqYTIECAAAECBAgQIECAAAECBAgQIECAAAECBJooIAHWxF7VJgIECBAgQIAAAQIECBAgQIAAAQIECBAgQIBAiwUkwFrc+ZpOgAABAgQIECBAgAABAgQIECBAgAABAgQIEGiigARYE3tVmwgQIECAAAECBAgQIECAAAECBAgQIECAAAECLRaQAGtx52s6AQIECBAgQIAAAQIECBAgQIAAAQIECBAgQKCJAhJgTexVbSJAgAABAgQIECBAgAABAgQIECBAgAABAgQItFhAAqzFna/pBAgQIECAAAECBAgQIECAAAECBAgQIECAAIEmCkiANbFXtYkAAQIECBAgQIAAAQIECBAgQIAAAQIECBAg0GIBCbAWd76mEyBAgAABAgQIECBAgAABAgQIECBAgAABAgSaKCAB1sRe1SYCBAgQIECAAAECBAgQIECAAAECBAgQIECAQIsFJlrcdk0nQIAAAQIECBAgQIAAAQIECBAgQIAAAQKVFOhekQ6cWJEO2ZGnZfvtl366bWf6SfeYtKOSwQqKQAUFsgrGJKTRC+RTqrRPTMFwlwABAgQIECBAgMAIBKaOx0dQXauq8PmmVd2tsQQIECBAoL4C3c3pOSlPL01Z9tRoxdPj32Pj37JZWnRrLLsxpewfs7z3ufyedFn35enuWdaziEDrBXwYaO8uMOyHbPtIe/cRLSdAgAABAgQIEBiNwLBj89FE06xafJ5pVn9qDQECBAgQaJRA92/Tw9Oyzu+nlP9GNOxxi2zczyMZdllKvT/rrkpbFlmGzQg0UsCHgUZ267yNWuyHa/vKvKyeJECAwN4C3avTA7I8PTfP0xNS3nlk6qRDUy9l8d/tKev9S9ZL39p//3T9GS9KP917a0sIECBAoEUCix2jt4ho0U31OWbRdDYkQIAAAQIEyhI4b3N61I688+aU5b8TdexfYD2fy7L8/HUr06cKLFNRBGor4MNAbbtuwYEX9aHaPrNgehsQINAmgUtvSMt/dGd6RZ6yE6PdR8W/5fto/45IiF2X5fmfPvSg9InXPytt38f6niZAgACB5gkUNVZvnszSW+Tzy9INlUBgIDDMscprbqDlLwECBGYRiB/KPijt7Jwfia/fjqf39X3BLCUMuShPN3Q6+SlrV6a/G3ILqxFopICBSSO7dVqjhhmgTttgyAf2nSGhrEaAQHsEulvSa1KenR8tfsSiWp2lf4lpD87urkwfXtT2NiJAgACBugqUNWavq0eRcfvcUqSmstoosJTjk9dfG/cYbSZAYFaBSHxNZDvTG/IsWxsrHDrrSsUvjGN49omJ1Dv97FXpu8UXr0QC1RcwGKl+Hy02wqUMUoet0/4zrJT1CBBotMCGLenpMbPhu+Nitb9aSEOz9L87afKXWv9QSHkKIUCAQPMFhhn7VnnsOkz8ze/FclpY5X4vp8VKJVCcQFHHJq/D4vpESQQI1FBg/eb0spgl5p0R+pPHFP7d8WPbiw88IF106gvSPWOKQbUExiJgEDIW9tIrLWqQOmyg9qNhpaxHgECjBLpXpoekic7bYyD5m9GwTsGN68UvtT6WdvRO6x6Xflxw2YojQIBAEwSWMuat2vh1KW1pQl+W2Yaq9XWZbVU2gaIEyjomeT0W1UPKIUCgFgLnbk6P29n/sWxKJ1Qk4O/H1ItndY9JH4lLMZR1rK9IU4VB4D4Bg49m7QnjPnDZn5q1P2kNAQJzCHQ3pv2yw9Kb4hdcZ8Qqh8yxWlGL74hx6YX5beld3TVpW1GFKocAAQI1Fyhq3FuV8WtR7al5t5YSflX6uJTGKZRAwQKjOBZ5TRbcaYojQKB6AhdelQ66N+tsiGTT70V05V3na/FN/0Lq5CdHIuz6xRdhSwL1EDDwqEc/7SvKUQxS9xXD4Hn71EDCXwIEGikQ1/k6Pq7z1Z+64EkjbuA3YvB8alwf7IoR16s6AgQIVEmgrHHvuMewZbWrSn03rljG3bfjard6CSxEYBzHIK/NhfSQdQkQqIXAxo1p2c2HpjfGdb7OiYAPq3jQcezPPpo6vTdHIuxHFY9VeAQWLWDAsWi6Smw4jkHqsA23bw0rZT0CBGohcO5V6fCdy7JLYpKA1WMNOEubUi9+qbU63TTWOFROgACB0QqMatw7rjHsqNo32l6rRm3j6tNqtF4UBPYtMO7jj9fovvvIGgQI1ECguzkdHQmld0Wov1yDcKeG+PO4rMPb46IOF0Yi7N6pT7hPoAkCBhr17cVxD1KHlbOPDStlPQIEKinQvSIdmPbrnFuxqQu2x1loH0jbeud0j093VRJOUAQIEChGYFxj3lGPYcfVzmJ6qdqljLovq60hOgJ7BKp23PFa3dM37hEgUCOBc69Mj9k5ET+Wrc51vhar909x+YW3rluVPr7YAmxHoIoCBhhV7JX5Y6raIHX+aPc8a1/bY+EeAQI1EOh24/dPR6cTUy/rxsVhH1bRkG/N8vy8w29P712zJu2saIzCIkCAwGIFqjDuHdUYtgptXWw/VX27UfVh1R3ER2AgUOXjjdfroJf8JUCg8gIXXZceeM/Wzllx9tRJEewBlQ94+ACvTnl+Ssw6c+Pwm1iTQHUFDC6q2zczI6vyIHVmrHM9tr/NJWM5AQKVEtiwJb2wl2fviaB+pVKBzR3M309Oi3hsum7uVTxDgACB2ghUbdw7ijFs1dpcm51liEBH0X9DhGEVAmMXqNNxxut27LuLAAgQmEtg949l82xdrPPwudar+fJeTOf4sbSjd1r3uPTjmrdF+C0XMKio/g5Qp0HqsJr2u2GlrEeAwEgFulelR6ZO5+3xC65XRMV1O1bF+0X2iYnUO/3sVem7I4VTGQECBIoRqPq4t8z3haq3vZgeHk8pZfbbeFqkVgILF6jrMcbrd+F9bQsCBEoUmPyxbC97d3xb8KwSq6lS0XfEtIgXHrI1vfuk49PWKgUmFgLDChhMDCs1nvXqOkgdVsv+N6yU9QgQKFWge3XaP/XSmZFAOj0qul+plZVf+N2RwLv4wAPSRae+IN1TfnVqIECAQCECdRr3ljGGrVP7C+nwERZSRn+NMHxVEViSQFOOLV7HS9oNbEyAwFIFztucHrUjdS6u6Y9ll9r8/vbfjETYaXF9sMuKKEwZBEYpYBAxSu3h62rKIHXYFtsPh5WyHgEChQt0t6TXROLrvJSnXyq88PEW+P2U5Wd1j0kfiV+nte19ZbzyaidAYCECdT4+FTmGrbPDQvp7HOsW2U/jiF+dBBYj0MRjitfyYvYE2xAgsCSBd342HXDXPemMhvxYdkkWkxtnaVN8z/Cm+J7hq0svTAltFehuTPulw9Lzsiy9OM87T4h96jHxrdUh4dG/lt5tcf97kWy+Meukz+dZ+rvY3362FCsDiKXoFb9tEwepwyrZF4eVsh4BAoUIdDelp6Uspi5I6ZhCCqxuIZ/pZPnJa1emf6huiCIjQKCFAk0a9xYxjm2SR9V25yL6p2ptEg+BuQTacCzxmp6r9y0nQKA4gTxlMVPMq1OenR+FPqK4ghtR0o5w+WBa1uv/4PbWRrRII8oX6L+mtqRjU+q8KpJbvx4VHjhkpfdEQuxvUyf/H7G3/VV3Tdo25Ha7VzNw2E0x1jttGKQOC2yfHFbKegQILErggmvSg7dt77wj3nB/MwroLKqQ+m3kArb16zMRE2iqQFPHvUsdwzbVpQr78VL7pgptEAOBYQTadhzx2h5mr7AOAQILFojE1/NS/zpfKT13wRu3a4PbszzfkC9L74tE2I52NV1rFyKwfkv6T3merY1tnraQ7WZZ98cpz9+3f57ec+ax6c5Znp91kQHDrCwjXdi2QeqwuPbNYaWsR4DAUAL9U6yzw9Kb4kcnMX3B5KnVQ23XsJUmL2Cb35betZhfzTTMQnMIEBi9QBvGvYsdw7bBZvR73H01LrZPxhWvegksVKDtxw+v8YXuMdYnQGBWgUh8PTT1On/Ush/LzmqxwIVfj6sunBrXB/v0ArezesMFYualx8bMS38SzYwzvwq93RHJ17Pz69IHut0UP/ie/2agML9Pmc+2fZA6jK39cxgl6xAgsE+B9ZvTyyLx9a5Y8Un7XLkdK3wzy2KAujJ9qh3N1UoCBMYs0MZx70LHsW00GtVuudC+GFVc6iGwVAHHjT2CXud7LNwjQGCBApH4msh66ff6M7TFpocucPNRrL49rkH2JynvxXW+sz+ICqs4JWO8J2V/MbGj9+azj0v/MgoUdVRbIKY7/M8xVeYHIsq5pjrsxdSGfx/7zdVZ1rs57t8S1/y6K9aPE7zSg+Lfo1LeOTIS0r8ay54Q//a+Zem6uH7Yq+MMxFv2fnLPEoOEPRajumeQunBp++nCzWxBgEAInLs5PW5nmpy64AQgswj0L2Dby0/urk43zfKsRQQIEFiqgHFvfKIbEpHVkFCLWG3YPlhE0TYhMDYBx4zZ6b3eZ3exlACBOQS6m9NLYrjW/7HsEXOsMt7F8Zm9k/JT4preX+sHEsm6g+MstXWRFHhDPFw+3uBmrf3uiO3idHf6o+7L4/9urRSIH6Gv25VQnq39P4h95ANxQZL/Homr78+2wsxlG7akp/Tyzm/Hdq+P5x4w4/n+TEeviTMQL5uxfPdDg4PdFKXfMUBdOrH9demGSiDQCoHuFfELk/0658YvQX4vGlzFQWGV+mF7/1c5++e9tQuZQ7lKDRALAQKVFDD2nd4t841jWU23KvrRfPZF16U8AmULOF4MJ+x1P5yTtQi0ViCmZntanE3Vv87XMRVFuDG+7H9Td1XaMlt8512ZfmnHROf8WOdV8XwVj3m3xRR15x5+e3rvmjVp52xtsKyZAt3NnUgo56fM0rq4ZlfejcTXn0Ti695Znt/nokgAPygSwHEtsfy/xMpTv+vbGUmw340k2J/PVkgVXyCzxVn3ZQapxfag/bZYT6URaIxAzP3bSUenE+OCtd0YAj6sMQ0bTUMMUEfjrBYCTRcw7p27h2cbw/Ka26uoZ2ZzL6ps5RAYlYBjxeKkvf4X52YrAo0V6F6ZHpImOm+PL9B/MxrZqWBDfxw/5D0nvs/4YCQJduwrvu5V6VcjkfeuWP8Z+1p3TM9/uZ8MiUTeNWOqX7UjFOhuiaRsnr91liqvWr48f+1ZR6cfzvLcghdt2JSe3etkfxHTJj5mysZx0ln+W92V6cNTlk3eNRiYKVLsY4PUYj2nlmbfnarhPgECKU6JfmEvz94TFL+CY0kCfz85LeKxMZeyGwECBIYXMO4d3sqaoxXwuWG03morVsCxdemejgFLN1QCgdoLXHJFWvGTFemU+Ib8zGjMwRVs0Lb+VIwr9utd9Jaj0k8WEt+uHwK/KmZ2+aPY7hcWsu0I17182Y78pHOOS/88wjpVNUKBmPbwlfH62rhXlXl2cbqud2bsp729nlvCggs2pcO2Zdkno4ijpxSzI653f0Jc7/7KKcsqeYrk1Pjqet8gdXQ9ZzA7Oms1EaikQPzi6ZGpM/kLrldEgI4JxfXS5RMpf+PZq9J3iytSSQQINFDAuLeBndqwJhkbNKxDW9Qcx9diO9uxoFhPpRGojUBMd3hCnCX1jgj4iRUN+vI4a+YP49rc31xKfDE93AMixXBafC3ST/KtWEpZJW17T8R2yQEreuef8aL005LqUOwYBGLfe3TMxPQPUfWBU6uPZNTaSEadO3VZkff7ie3bV2SfijJXTSn31okd+S+ffVz6l8EyA4CBRDF/DVCLcVxMKfblxajZhkCNBeINdv8Y3MXALjs9mnG/GjelyqFPXsD2wAPSRae+IMVg1Y0AAQLTBIx9p3F4UFEBnxMq2jHCmlPAsXVOmkKecEwohFEhBKovEN8ZHBlnRb0rpklbXdFovxaJr1Mi8bWpyPii3Y+P6yRdEFMPvrLIcgss6wcxVd36mBTxvxZ9VlCBMSpqAQLdLdmn43X20mmb5Nn7u6t7b5i2LB50t6TXxPd4r565fPfjXtoaCev4LipueX/KxN4X90vp029dnW7bvc6UO7G/R+I3uz4WPWX34jxd2V2d747HG/9umSXfMUhdMmEhBdinC2FUCIFqC+x6wzwv3gx/qdqRNia678cA9ayYg/wjcY6d97vGdKuGEFi0gOPAoulsOAYBnw/GgK7KRQk4ti6KbVEbOS4sis1GBOohEF+IPyjtjGsRZflvR8TLKxj1rf3P1w87MP3565+VtpcVX3dzWhmJhndF+U8rq44llZunGzqd/JS1K9PfLakcG49VYP2W9Gt5nl0+I4jPPeyg/MWz7d9xnbD1kfhdO2P9fT3cHkmxi4+4tbd2zZq0c+bK8Zp/ciTBvhTLd/84Pr66+o/rVqW/7K/rTX+m2MIfG6Qu3KzsLezXZQsrn8CYBGLqgqfFm967o/pjxhRC26v9TIoBaiTCvtJ2CO0n0FIB496WdnzNm+2zQc07sAXhO7aOr5MdH8Znr2YChQvEl+AT2c70hjzL+l+uH1p4BUsvcEeckfb+tKO3vvvSdPvSi9t3CVOuD3ZxrP2QfW8x8jXiPTD7xETqne7yCyO3L6TC7qbsc5Fhet6UwrYu25k/9ZyXpG9NWbb7bndTZ0MkgM/ZvWAhd+J6YnFW2Ztn2ySuQXZGXIPswinP3ZSuzZ/aP8vQm/0UlQXeNUhdINgYVrd/jwFdlQTKELjgmvTgbds658Wb5O9E+RNl1KHMoQV6MUD9WAzaT+sel3489FZWJECgzgLGvXXuPbH7TGAfqLKA42s1esdxohr9IAoCixaIL79fFl9+vzMKePKiCyl3w0/Hj0lPjR+Tfr3camYv/W3XpkO2buucEXPKvSnWiBnlKndz+YXKdcm+A4qk8/MivfS5aWvm2dsiSfXWacumPOhuju/2Un7WlEULubszXkePj9fRLTM36m6M/fqwrJ90e+Tu57L8P3VXpk92di9wZ1iB/gDVIHVYrfGup6/G6692AksW6P+Ca/2mdPK27dk3Ivn1uihQ8mvJqksuIMYO+avjt3Xf6P/CZnKQseQiFUCAQIUFjHsr3DlCI0CgtgI+q1ar6/RHtfpDNASGFjh3c3pcd3N2WSS/roiNqpj8+nZMxfYfuqvy48eV/OpjvuWo9JPuqt6ZMfXcU+PhzOnq+quM+xZT12Xr7ron++bkJS+iQ8cdkPqHEMg7J85Y684VK3r9sw3nvmWz9W32/8e++bjBv2VZHlMa5kfFPvH2KCh+hL37tiwe/cbuR1PudNekbfG94TumLIqvrrLJ+OxM01T2+cAXAPskquwK9vXKdo3ACMwuENMdvjSmO+zPV13FQezsQbdz6TezLD913cr0qXY2X6sJNFbAuLexXdu6hvkc0Lour3SDHVsr3T2TwTlmVL+PREggXXhVOujebHIqtd8Ljipe5+vOLM/XPfTg9P7ZroM07i6M71tW7/q+5chxxzJH/V+IM31OjqTh9XM8b/GYBbrd1ElHZf1ZgQ7bE0r23ki0/sGex3vfiykQL4hE1VumPZNnfxpnjb1+2rJdD+KaYe+NxNgbdj8337p/E1OfLs9+EOuu2LX+jv2W5w93BthuvXnv+DXQvDy1eFIf1qKbBEkgpRiIPbb/C64YjH06PCS/qr9TPLF/wdPuluyq6Lsjqh+uCAkQ2IeAMdM+gDxNgACBRQg4ti4CbUyb6KsxwauWwDACGzemZf1ZYu7tZN+OL9FPim2qlvzaGWedXLJfnM2ybnV6TxWTX33n7uq06WEH5b8chv2kw639ZRW7PSem1vtsTJf34ZgZ6KEVi004IdB5YXp6/JmS/Oqz9D7S//+8t1nPAJtni15v+hmLWT7n9f0mr62XpaunlDaxbVtaJQE2RWSWuwY+s6DUfJE+rXkHCr+5At0r0oHxS5D3ROLr5mjlCc1taUNblk/+guwr/T7s/xqvoa3ULAJNFjBGanLvahsBAuMU6B9f3eon4H2xfn0m4oYLdDeno286LPtinmXvjqbO+OK9Eo2/ptPLnx1nspz81tXptkpENE8Q/eRcXB/pT9P2/En9pF2sumOe1cfxVJyRG5df6GX/FH3fjUTY/uMIQp2zC/Q66bkznvn3dG26Ycay2R4u7EzrLKY2nHbLfjTt4YwHMeXolmmLss7REmDTRHY/MNDZTdHYO/q4sV2rYXUT6J82HXM8vy6tiMTXfb/gquIFWevGOq54l/f7sP9rvP6v8vq/zhtXIOolQGBBAr6cXRCXlQkQIDCUgM+cQzFVfiX9WPkuEmDTBc69Mj1mcpaYlH0m2vrMCrb3O7uu8/XitcemL1cwvnlD6p8100/axZSD/euD9Wfiqdrt/v3rg0Ui7KtxHfJXVi249sbTmTkD0Ofi+72p1+uanWahZ4ClzrRrfmWpd83sBe9a2ktfmfZ8lh8uATZNZPKBLwD2NmnyEv3d5N7VtsoLxK94XpBelH0+fm10aQT78MoHLMBhBQ7r/yovfp33hQ2bUly41I0AgYoK+FKvoh0jLAIEai3g2Frr7pszeN8dzEnjCQLlCFx0XXpgTIF34c6J7GtRQxVnibkrrvN1SrotP3zdqnRZOQqjKzWut/X17qr8+H4yL2r99uhqHrqmx+Up2xjJ0C1x+YWnDb2VFUsSyB89veDJ2ZymL5rtUS8NdQbYpTek5dHPp8ZZgCdOKebm/Lb0v6Y83utuvix9a9rCPD12YtqCdj8wmGlv/w/6fqgXYHuZtJxAcQLnXZl+acdE5x3xRvaKeOvz2iuOtmol/XIvy66JROfl8WuyP4gB9S1VC1A8BFoqMBj7tLT5mk2AAIHSBBxfS6OtRMGD/vX5pRLdIYimCvRniUlHpxPv2Rpn/aS8ij+U7cWPeP9r6vXWr3tJ+kHT+qGfzLv0hvxvfnRH+v34Yev6aF/VLnFwTFw648uRCPtY2tE7rXtc+nHT+qAm7TlwWpx5b7h+2Ps7wK0xk9ALItm9cU95+cQP70wvjG8LH7JnWVyrrpOv6a6ZOSXilDX6d+9Jt6cV05YdLAEWR9JpJB60WWCwLxjMtnkv0PZSBSbnbO6lM3ek7LQ4/MZp7G4tETghpitYGQPUP06d3nmRCPtZS9qtmQSqKDAY71QxNjERIECgrgKOrXXtucXFPehv3x0szs9WBOYU2LAlvbDXi2t85elZc640zieydF0n5aesXZV/aZxhlF13//pgUcd7LtiUf3Rb6qyNBMUb4nGVLnEQs9rF9cEmspev35xfeMjW9O6Tjk9by3ZR/jSB+017lKW7pz2e+8HM985+uurI6M/4N+fti6mXv6K7Kn1vzjUGTxwQcUyfiPF+bZ4CsT9gGQxaBkT+EugL2C/sBwRKEJicqznmbJ6cuzklya8SjCteZAyO8jMiEXZzXPPtNXGknTnoqXj4wiNQewFj39p3oQYQIFBBAcfWCnbKCEPS/yPEVlWzBc7bnB7VPwOkl2fXxifFKia/bompAdd0j8mPXrsyNTr5NXVPe+vqdFv/+mCdXv7sWH7N1Ocqcv/g+GrhwttXZDfGd04vr0hMbQljWsIry9IBQzV87zPA9rXZbfFd0sY0MSOtNcdWByzfK46725oAk+CYYyexeLeAgexuCncILE1gw1XpqXHmz+b+XM1R0uOWVpqtGyDwiJgu4kPdLdnn4td9z21AezSBQNUFjGmq3kPiI0CgjgKOrXXstfJi9h1TebZKbrjAOz+bDogp87sxS8xN8SX3K6O5Vfuh5M8i8XVmujt/SkwN+PGIrpWv97XHpi/H9cFevOv6YN+p4G75xPjO6a/je4arYuah+c4kqmDotQ3prqmR53nn0KmP57yfxxSnC7sdFoeFi+PH1F8dpm+3/Tw9aEbxd7RtCsRWHqRmdLqHCxMY7DNVewNeWCusTWAMAhdckx68bVvnvF6W/05U37b3mzGI167K58av+z7bn7d7ed47/azV6d9q1wIBE6i2wGAMU+0oRUeAAIH6CTi+1q/PRhHxYL/w3cEotNVRf4HIVsSX2a++657s/GjMIyrYoHhNZx+Nk07ecvaq9K8VjG8sIfWvD9bdmF+ZHZp+L64PtiGCmH4dqLFENaXSPK2OH9x+ubsp+2Ba1jsrLr9w65Rn3S1UILtl2iRqWXrCkMXP9j75pei3PWdWduIqXnn+4ijv0VPKPCiSYOt2JcqnLJ5+d+fEjDiy9J22fCE5GIhMF/GIwPACg31othfp8KVYk0ALBGIQO5HtTG/Ytj3rzxM93C9AWuCiibMKxC9/8ldvz8zbPauOhQQWLzAYtyy+BFsSIECAwEwBx9aZIh7PJjDYT3x3MJuOZQRCIL4zeF7aEtf5SpWdEeSznTyu87U6/6IO21uguyZti6XvOf+afOP2bZ1ufO9zYjxe6Fk9exdc3JKJiOl1kSx5xfpN+YZ8WXpfJMJ2FFe8ku4T6MVZm1Pe6vL8GUPJRPJ76mb3bZNf3l2dd6duf/GV6f4/n8g+G8ueNmX5r8fx40HzJTYjomcP3ognt8uzm6u0c05pS2F3++2d1ubCSlZQWwXsT23tee0eSqC7Kb00Bhn/GL8E6g9mJb+GUrNSCOyetzv2oROIECCwaAFj30XT2ZAAAQJzCji2zknjiXkE7Dfz4HiqnQLxxfVD4zpfH47vDPpfaldxOvzvTV7na2X+orWrk+TXPnbTs45OP4zrg72+k+XPiYTGdftYfRxPHzr53VR8RxXXB3vZOAJocp2dLH1uRvuedP416WEzlu39cJb0194rpXT6cennWZ5/cMZzy7Pe/H0Z+bWV07bJetc1OQEmUTGttz0oUMBAtkBMRTVDIJIWj42p7C5LWfbpaNGTm9EqrRiDwBNjH7qsP293XB/sKWOoX5UE6ipgbFLXnhM3AQJVFnBsrXLv1Cc2303Vp69EWpJAJL7271/nKxJf/9SfASSqmXLaSEmVLqzYeyOu9fffkR/R5ut8LYxsz9prV6YvdY/Jj+4nD2PpLXueqcy9J0dS5Ir+d1bnbnZd+qJ6Ze0x6cYo68dTy9u+Pf2nqY/nuD/867+TvjqzjDzrHDdz2eBx98r0kLh/9OBx/O3F0WZLExNgBqlTetndUgXsa6XyKrwOAhddlx7Y3dR5TyQtbo54nblTh06rQ4wxb3dcHyzm7e6858Kr0kF1CFmMBMYkYCwyJnjVEiDQeAFJi8Z38Ugb6P16pNwqq5JAnHnzyv4sMZHzWhdx3b9KsUUs8drMPjKxI39id1Xq9s84qVh89Qknsl+TycO786fE3TMj8J9VMPgTdqbsZt8zFNQz0dHx+vnk9NKyE2Pp/AmuIc8A65eb70j97xqn3/L88dMX7HmUTaTfjkcTu5dk6ZqYLvFHTUqAGVDs7l13Rixg3xsxuOrGL9Dtpk53S3rdPVuzr8fcyidFRPuNPyoRNExgeX/fureTfXv9pnTyxo1pWcPapzkElirQH3+4ESBAgECxAj7bFeuptOkC9q/pHh41WCBmiXlanHGzJb4L3xjNnPML67ER5OkrMXXfMd1VvdecfVz6l7HF0bCKuy9Pd0ci7KKJlMfMQNlHonlV+8zie4YC97lO1vvvM4p7epzxOf90k/1zsoa8dV+SfhCr3jlj9UfNeDz5sHtZul+eZydPey7PP9R/3JQEWNVeTNOsPWiNgP2wNV3d7oZu2JSen47Krk95dmlIPLzdGlo/AoHD+vN233RY9sXY944aQX2qIFB1gf54w5ij6r0kPgIE6ibg2Fq3Hqt3vPa3evef6OcR6E9BNnmdryz7cqx2zDyrjuupf4sfWr42XZf/Skzd95lxBdH0es9elf61n1zs5Hn/Wm/9a75V7bb7e4aYnnPqlHlVi7PS8cRr6PMR4N9NCzLPLrz0hrR82rKpDxZwBtiuzb4zdfO4/9D+9QRnLEvpgHRapNamXoPsB4duTf9ff726J8AMGvbqbQvGLGCfHHMHqL48gcEFa3tZ1n9ze3Z5NSmZwKwCz4x975r+vN2xLz561jUsJNBsAWOMZvev1hEgMD6B/vHVjcA4BOx741BXZykCl1yRVsR0h2ekiewb8Vut/nW+qvad89aIq3+dr8d1V6YPx6w2vVIgFDpNYO3q9MXuyvxFu64P9r1pT1bjwTPjTLXPTF4f7Mr0mGqEVLMo8rw7I+Kn/vDOdNaMZVMfZlMfDHH/n2euk/VS9NueW5xxekRcmqU/9eaeW5ZfdNLxKV731TsY7Qly/nu+AJjfx7PjF7CPjr8PRFCQQCQbqn7B2oJaqpiaCJwQc8jfFL8qvDD2zQfUJGZhEliqgC/IlipoewIECOwt4DPb3iaWjF7Afjh6czUWLBBfPp9w+4rsxpju8MIo+uCCiy+guOzjqZMf6TpfBVAupog91wc7vJ+EjCLuXUwxJW9zws6J7Gv97xn617ovua5GFd9dnTZFg/56eqOys+NSFsdOX7br0ULPAMuyW/YqJ0vPGCzrXpEOjOTXX8TjAwbL4u8/xtlg7x88rlo2fhDXXH8NDOaSsbyqAr6wqmrPiGsogYpfsHaoNlipkQIxsMnPiETY1+NadK/Z50VWG0mgUS0RMPZtSUdrJgECIxVwbB0pt8qGFLBfDgllteoIxA8Sj+xuya6KL58vi6ieWJ3IdkdyY3xuXBVT8a3pHpP+afdSd8Yi0L8+WD8JObEjj32lktcHm/yeoX+t+/417+MswbrlTcbSr/1K45pvJ8Wfu6YEsCwuZfGJuIzFXrNHZXmvf829L037l01e62vK5lPu9npXx/7y8Wn/evfV1b/uV1qR/VWsfeSULbbH9f1+N17zOwbLFnrK2WC7cfztDwbcCNRZoE6vtzo7i70Agf5ANpIL746iVhVQnCIIlC3whRjgnLRr/umy61I+gVEIGPeOQlkdbREwBm9LT++7nY6t+zayRjUEHLeq0Q+imEMgvi94UNrZOT+upfU7scrEHKuNc/GPI7bT0zXpo6Y6HGc3zF/3hi3pxb3+905TzuaZf4sRP5unGzqd/JT4nqF/GRC3fQis35J+Pc+zv4zVpr6H3Znl+SvXrU5X7WPzBT/9tmvTIVu3Z38dP4h+0fSN87dEorV/Nuru29SAdi+s2B2D1Ip1iHCWLFCH192SG6mAegrUYCBbT1hRj0Ig5nDPPrY8751+1ur0b6OoUB0EShAw7i0BVZGtFzD2bv0uMAng+Go/qKOA41cde63BMcf3BRPZzvSGOLNjbTTz0Ao2Na73EwmVTu/COPvjjgrGJ6QZApNnWR2dXpXy7KJ46qEznq7Cwxg/ZJ+YSL3Tz16VvluFgKocQyTB3hJJsAtmxBhnYuXnxLX3LorUWCHjsQ1Xpaf2Otkno57HT68r+0h3Ze+1M+up8ptpISDTETwiUCmBKr/+KgUlmPIFNm5My24+NL2xwgPZ8hHU0BSBn8Xg6h2Hbk1vG1zwtCkN047GCxj7Nr6LNXBMAsbcY4KvSLWOrRXpCGEsScBxbEl8Ni5CIC6P8LK4xtc7o6wnF1FeCWVcnvL8D+N6RN8soWxFlixw8ZXp/j+fSKdHsunMqGpFydUtpvi743uGiw88IF106gvSPYspoC3bxHXULg6r0/Zqb56ujzPqTlvKGXXdv4nE+36dM+K1/qYof/mMOi5/2EH5f3z9s9L2GcunnZI287lxPTZAHZe8eschYCA7DnV1ThOIX2gcF7/QeFcsPHzaEx4QqLfAt2JQdGp8ALq83s0QfQsEjH1b0MmaOFYB4+2x8o+tcsfWsdGruEQBx7MScRU9u8C5m9PjdvbPqkrphNnXGPvSr/a/DI/PfZvGHokAliwQZxk+PvU6cQZR/solF1ZOAd+P6TXPijMMPzLzLKNyqqtnqd1N6c1xbcD+NISzvW/9XRi+P575ZDjeO0wL44yvZ/Y6ndfGftGfdvWBe22Tp/+Zbs//c3dN2rbXc7FgtiBmW29UywxSRyWtnqoJVO21WDUf8ZQgcO6V6TE7J7JLouiqDmRLaLUiWyeQpU2dNDlv99da13YNrrqAcW/Ve0h8TREwzm5KTw7XDsfW4ZysVV8Bx7T69l2tIr/wqnTQvVlnQ3xR/XsR+MwzLarQllv7iYj4ZvuD8SV6TLHm1iSB7ua0MtIWeLQSmAAAQABJREFU/R9qP62i7fpC6uQnx753fUXjG3tYcdboy+Os0Q9FIIfMEcydsfyamBXx83mevhtvbv+addJdqZf2yzvp0Fj2hJR1jowE9+pY71FzlNGL7Tfk16Zz57veX1XeOA1S5+hFi1snUJXXZOvg29Tgi65LD7xna+es+OXESdHuA9rUdm1trcD2mFP8A/vnvbVnHpv6gyw3AuMUMO4dp7662yhgfN2eXnd8bU9fa2n1ftCuTxoiMOXyCOdEkw6rYLN2xGe796cdvfXdl6bbKxifkAoSmHJ9sJhSLz2koGKLLCbGHdlH45pzb45E2I+KLLgpZcUZfY9OO7P3RqL610po0z+mXv773WPTdfsqe9wfBgxQ99VDnm+rwLhfm211b3a746cX8ebz6hgsvi0a+vBmN1brCMwqcFuW5+cefnt675o1aeesa1hIoFwBY99yfZVOYDYB4+rZVJq1zLG1Wf2pNQsTcIxbmJe15xGIs26Oji/0+9MdPnOe1cb51BVx1s0fRrLh6+MMQt2jFYjvsQ6OaRHj2mD5KVFzFa8P9vOI7e2pky6MfXOoKf1GKzj+2mJKxNUxJWI/qR7HmCXfbomzvi6Is8T+PLyHOvtzXG+UBqhL7msFtEBgXK/PFtC2r4kbNqXn97LsPdHyZ7ev9VpMYC+BL/cHz91V6Zq9nrGAQDkCxr7luCqVwDACxtTDKNVzHcfWevabqMsRcKwrx7UVpdbg8gg3xTRoJ7vOVyt2xzkbGUmUJ0YS5R2xQlUv4/HtSMy8Zd2q9PE5G9HyJyLJ/pyUOifG9zFrguKgBXD0f8D8v8P30ocelP7q9c9K2xewbZyANvqbQerozdVYb4FxvE7rLSb63QLxS5mHxi9l/ijeXF4VC+1Lu2XcITApcHn8gvAP4ldDt/AgUJKAcW9JsIolsAAB458FYNVoVcfXGnWWUEcm4Hg3MupmVFSDyyPcGTN4rHvowen9C/3Cuxk9pBWzCew6m6h/fbAjZ3u+Asuu7mT5m9auTP9QgVgqGUJ3Y9ovJlh9XpalF+d5J671lT8m5ZPXCutfpqWf3IpLV2Tfjb/fyLLeDXmWPhPf29yx2MaM8s3RAHWxvWQ7AvcJjPL1yrzmApdckVbcviK9Jd4wToum3L/mzRE+gTIF7onXySUxb/d5MaD6WZkVKbtVAsa9repuja24gDF0xTtogeE5vi4QzOqtFHDca2W3D9/oXddWOjEuj7Autqri5RF2Rmzv2y/1Nrx1dbpt+JZZsy0C8WPviUiY/E7sJ+dHmx9UwXb34nuGj8W16k7rHpd+XMH4WhXSKN4UDVBbtUtpbMkCo3jNltwExZctsH5zemVc7uuCqOfxZdelfAINEvjX+NXRWyMJ9pE4V9LYpUEdO4am2H/GgK5KAvMIGD/Pg1Ojpxxba9RZQq2MgONfZbqiOoFs2JJe2OvFdb6y9KzqRDUtks90enH2zLEppq13IzC/QPdv0qFporMuPsv/fqw5Mf/aY3n2jvh64cJDtqZ3n3R82jqWCFRa6nRYBqh2MALlCRjIlmdb25LjFzBHpv5ANqVVtW2EwAmMX+ALMS3iyZEIu378oYigZgLGvjXrMOG2RsC4ud5d7dha7/4TfTUEHAer0Q9jjeK8zelRO1Ln4rg8wisikCruE9+JRMEpcf2ky8YKpfJaCsT3YU+O78P61wc7vqIN+Gbs36fZv8fTO2Ud8AxSx9Ofam2fQFmv4fZJ1rjF8Ub/oLSzc3784uV3ohlV/MVLjXWF3lKByekKlue9089anf6tpQaaPbyAce/wVtYkMA4B4+VxqBdTp+NrMY5KIdAXcCxs6X7wzs+mA+66J50Ru8DpQXC/CjLcFdf5Wpvfnj7QXZO2VTA+IdVIYNf1wd4TIR9RybCztCm+u3tT/OD2q5WMr6FBFf0GaIDa0B1FsyovUPRrufINFmBKGzemZTcfmt6YZ9na8DiUCQEChQv8LH4h+Y5Dt6a3ma6gcNumFGjs25Se1I4mCxgn1693HVvr12ciro+AY2J9+mppkcZ1EeLHsq/edY2kRyytsFK27l/n678t36/XPevo9MNSalBoKwUuvSEt/9Ed6ffju7L1AXBQBRF2xL7/wbSsd1Ykwm6tYHyNC6moNz4D1MbtGhpUQ4GiXs81bHr7Qu5uTkfHG+Z74nd8z2hf67WYwMgFvhXTFZwV0xV8fOQ1q7CqAsa+Ve0ZcRHYW8AYeW+Tqi5xbK1qz4iriQKOjU3s1V1tisTX82I6uP5ZMM+paDOv7cRZMGtXpi9VND5hNUDggk3psG2pszbOuHpDNGdZBZt0e5z9uCFflt4XibAdFYyvMSEt9Q3PALUxu4KGNEhgqa/rBlE0rynnXpkes3MiuyRadkLzWqdFBCouENMVdGJe+vig9rWKRyq88gSMfcuzVTKBsgSMjcuSLa5cx9biLJVEYKECjpELFavw+pH4emjqdf4oZrF4VYRZxb69JX5YeJLrIFV4J2pgaPG6eEYkhN8dTXtxRZv39XhdnBqvi09XNL7ah7WUg6FBau27XwMaLrCU13fDaerXvIuuSw+8Z2vnrBjInhTRH1C/FoiYQGMEtsfZlx+I6QrWxa+07mhMqzRkXwLGvfsS8jyB6goYE1e3b/qROb5Wu39E1w4Bx8ma93N8wb9/6qUzI+d1WjTl/hVszk/jC/7zH3hAuuTUF6R7KhifkFogsH5zennMDNpPhD22ks3tXx+sl5/cXZ1uqmR8NQ5qMW9yBqg17nCht1JgMa/zVkJVstF75u2+IOL7xUrGKCgC7RSYnK7g8NvTe9esSTvbSdCaVhv7tqarNbShAsbC1exYx9Zq9ouo2i3geFnD/o/LI/xyJL4+GKE/vaLh/2XK89PiS/3vVDQ+YbVI4OIr0/1/vqxzRkyL2E8WV/HH5XfHtIhvza9Lf9ztRlrbrRCBhby5GaAWQq4QAmMRWMhrfSwBqnRvgRrM27130JYQaJtAnr4Sg+eTu6vSNW1regvaa+zbgk7WxFYIGAdXq5sdW6vVH6IhMJuA4+ZsKhVbtnFjWnbTYZ1unEgbZ36liYqF1w/nxvgi/5R1q9PVFYxNSC0XOG9zetSOrHNRJGfXBEX1jnlZui6+Z3h1zDpzS8u7qpDmD9PBBqiFUCuEQCUEhnnNVyLQNgdx/qb0C9uzzsUVnre7zd2j7QTmErh82Y78pHOOS/881wqW10bA2Lc2XSVQAkMJGP8OxTSSlRxfR8KsEgKFCTh+FkZZbEGTl0jYln0yJpFdXWzJhZT2vZju8LR1K9MnIq3guF8IqULKEth1BmV/WsSjyqpjCeXe3sny4+Ma5J9fQhk2DYF9vZk5UNlNCDRTYF+v/Wa2uuKtuuSKtOL2FektFZ63u+KCwiMwdoGYzz675IAVvfPPeFH66dijEcBCBYx7FypmfQL1EDDuHX8/Ob6Ovw9EQGCxAo6hi5UrabvuFenAtH/2qUgtvaikKhZb7LaUZe9NWe9c10peLKHtxiEQUw120tHpt+Ja3+dH/Q8dRwzz1CkJNg/OsE/N9UZmgDqsoPUI1Fdgrtd/fVtU48h3XYzzHdGEJ9S4GUInQOA+gX+N6QreGh/8PuJXj7XZJYx9a9NVAiWwYAFj3gWTFbaBY2thlAoiMHYBx9Kxd0FKcZmEidTLrohQjq1AOIMQ4liffTR1ev3PP98fLPSXQN0E3vnZdMBP70kn5Sk7K2J/YIXi/8mynflzz3lJ+laFYqpVKLO9gRmk1qoLBUtgyQKzHQeWXKgChhPobkz7pcM6kfjK3zjcFtYiQKA2AlnaFAPVk845Nt1cm5jbF6hxb/v6XIvbJ2CsO/o+d2wdvbkaCYxCwPF0FMrz1NHd3HlXfHdwyjyrjPapPF3f6eSnmKJttOxqK1cgrg/2iztS520VuyzJ1/fv5c8789h0Z7mtb2bpM9+8DFSb2c9aRWA+gZnHgfnW9VyBApNTF6zI/jqKfHGBxSqKAIFqCdwdU9//1rpV6ePVCqv10Rjztn4XANAiAWPd0Xa24+tovdVGYNQCjqmjFt9V3/otaVWeZ5vGVP3Mam+P5MC6mDjuT+Ksrx0zn/SYQBME1m9Kx+RZFknn9PRqtCf7s+6q3uuqEUu9opj6xmWgWq++Ey2BIgWmHguKLFdZcwhMXrR2a7Y5nn72HKtYTIBAcwTylOev6a5OH21Ok2rdEmPeWnef4AksWMA4d8Fki97A8XXRdDYkUCsBx9URd1dMfbh/TH341aj2cSOuemZ190bi66L770gXn35c+vnMJz0m0DiBmA8xks+viD9vj7Y9cuzty/Nj43uFqiTCx84xbACdYVe0HgECjRbwYXWE3btxY1p2z9bsL6JKya8RuquKwBgFsrgg9Ac3bEkvHGMMqo5P64Hg/c6eQIAAgXIEHF/LcVUqgSoKeL2PuFeyPL0pqhxv8itPV8aP+n6luyp1Jb9GvAOobnwCMZ3L5Gwunfzp8Zn+nRHItvEFEzVn2R9PXgtwrEHUr/LBrza8edWv70RMoGiBwfGg6HKVN0Mgfj1yTkxdsGHGYg8JEGi+wDdSJ39GTBMSv5x0G7GAse6IwVVHoEICxrjld4ZjbPnGaiBQRQHH1xH0yoVXpYPu7WTfjaoOGkF1s1VxY5bnp6xbna6e7UnLCLRJIJJPj0i9zgXxu8pXRbvHcgyM1+NvxevxQ21yX2pbnQG2VEHbE2iOgA+uI+jLeLM8MpJfa0dQlSoIEKiewJOynekN1Qur8RF5f2t8F2sgAQJjFHCMHSO+qgmMWcDrfwQdsDVLJ0Y140h+/Thl+WvTtfkzJb9G0NGqqIVA/Jj1+3Edrtd0svz5MbfI9eMIOq5Ldka3G1fgcxtaoI/lDWtoLisSIEBgiQK97G1RwsQSS7E5AQI1FYjB6pvf+dl0QE3Dr2PYxrl17DUxEyBAgAABAgQI9L+xzeLzw++PmGJnTLN26X7L8yO7K9OH44v23ojrVx2BygusXZk+n5blR8WL9A8i2NtHHPDhcXGFo0dcZ62rky2sdfcJngCBOgl0N6UjIt4T6hSzWAkQKFzgIXfdnX698FIVOJuA5NdsKpYRIECgOAHH2eIslUSAAIG9BLr/O/1KLHzsXk+UtiD7+LKd+eHdlb3/8taj07+XVo2CCTRAIM4G2xHXxHvv/Xfkj4xE2Ppo0ugudZB1XtkAwpE1QQJsZNQqIlALAR9iy+ymTuc3yyxe2QQI1EQg6/zfNYlUmAQIECBAgAABAgTmE/Adwnw6S32u1xnVD+e+mvL82Jjabc05L0nfWmrYtifQJoHTj0s/j0RYTEqYPzUuC/bxkbQ9y/+v/hmiI6mrAZVIgDWgEzWBAIGaCOT5qppEKkwCBEoVyF9YavEK7wv4MsZ+QIAAAQIECBAgUHOB/CUlN+CnWcrPPHRr/qzu6rSp5LoUT6DRAnFG2D/1k8hZlvdnfvpGyY19+IZN6ciS62hM8RJgjelKDSFAoNIC9/0y4xmVjlFwBAiMSuAX33ZtOmRUlamHAAECBAiUIOCHBiWgKpIAAQIDgUtvSMvj/tMHjwv+uyPl2SUr9ssftW5Vuuik49PWgstXHIHWCqxbmT6Vrs2PiCv4vTYQflwWRK8zOUVqWcU3qlwJsEZ1p8YQIFBVge6n0wMjthVVjU9cBAiMVmDr1vTg0daoNgIECBAgQIAAAQIE6iLwwzvS4RFrGd8hXLEsy4/sru6d/Jaj0k/q4iFOAnUS6HZTr7syfTimRXxSTIt4UcRefJI57zyzTibjjHVinJWrmwABAq0RmEgPaE1bNZQAgX0LZI4J+0ayBgECBAgQIECAAIHWCjyx8Jbn2bkxRdu6uHKQs3gLx1Uggb0FYlrEO1Lqnbl+U7oyz7JPxxrFJbWz/Al712jJbALOAJtNxTICBAgQIECAQIkCncwFa0vk9YG+RFxFEyBAgAABAgQIjEAgSwcXWkuefTDO+lor+VWoqsIIDCWwbnW6OvLOvzvUysOulLuswrBUEmDDSlmPAAECBAgQIECAAAECBAgQIECAAAEC5QsUmQD7+f5579TyQ1YDAQJzCcT19j4Sz22Z6/kFL88kwIY1kwAbVsp6BAgQIECAAAECBAgQIECAAAECBAgQKFkgS+n+hVWRp2+deWy6s7DyFESAwOIE8uzvFrfhrFu51MqsLHsvlADb28QSAgQIECBAgAABAgQIECBAgAABAgQIjEUg5vSOHFhBtyztLKgkxRAgsBSBrNdbyuYzti3uGDGj4KY9lABrWo9qDwECBAgQIECAAAECBAgQIECAAAECBAgQIECg5QITLW+/5hMgQIAAAQIECBAgQIAAAQIECBAgQIAAgcYKdK9IBy5bnn5xZyc9OOXpIXH60C/kWf9+58HR6PtyBJ10UDw32wkzd8by+85e6qSfZal3azz6cax5a74z3RZb3xpl/Kh7TLqjsYAaVlsBCbDadp3ACRAgQIAAAQIECBAgQIAAAQIECBAgQIDAfQLnX5MetmN7el48OiJyWY9PKX9C3O//e8juuTAj+xXTbN53y3bfm7Jw8OSUv4MJ92L1vD9DZ/9xf9N+umzXxH7dzemuePS9+HdLyrLvpl7ve7HeV9L2dEP3pen2WO5GYOQCEmAjJ1chAQIECBAgQIAAAQIECBAgQIAAAQIECBBYmkD36nRk1kvHRLLr+ZGResH27elRe0qcktzas7DMewdG4UdO/suj7mxX1mx5SpEc+6dYcEPKe19My9I16TPp77vdQeqszJCU3XYBCbC27wHaT4AAAQIECBAgQIAAAQIECBAgQIAAAQKVF+huTPtlh6YX51nn5SnLT4gU0mPuS3ONPNm1UKv+2WiPj6TYb0ymvY5Kt0dSbEss2xxnkv1td3X6zkILtD6BYQQkwIZRsg4BAgQIECBAgAABAgQIECBAgAABAgQIVFZgV3LotyM59IwI8rBFBvr9uMbV1etWpcsWuX0pm224Kj2zt6zz/6Y8/81IdR08Of9g5XNe81IcGs++Is4Ke0V/OsVIhn0uS/mfr+iljWcem+6cd0tPEliAgATYArCsSoAAAQIECBAgQIAAAQIECBAgQIAAAQIVFHhQ9r9i5r2XTiaHlhBeXOPqTd1N+bo4K2nDEopZ8qb9hF56UPqtlGevi8ts/Uokv5ZcZoULeH64P//eTnp3d3P2ydTpva97TLq+wvEKrSYCEmA16ShhEiBAgAABAgQIECBAgAABAgQIECBAgMDeAnEtrCfH1HqR/CrolmWnRcLp3Dg7aeRZp2jL/nFdr5MjIfSHUfuDC2pRXYq5XyQwX5V62avirLAvxzSP7z7i1vSxNWvSzro0QJzVEuhUKxzRECBAgAABAgQIECBAgAABAgQIECBAgACBBQjsTI9ewNrDrPrAC66N869GfOtuimkBe9mNkfy6MKpuW/JrpvYz4+y3D910WPalcCkuuTmzFo8bLeAMsEZ3r8YRIECAAAECBAgQIECAAAECBAgQIECg2QJZlpYXfarWtnvT8lGp3XcGW3Zp1Hf0qOqsUT1PT1n26Tgj7PKJlL/x7FXpuzWKXahjFnAG2Jg7QPUECBAgQIAAAQIECBAgQIAAAQIECBAg0EKBONWruyWdFGd9fTFaL/k1/y5wwo6UfSW8Xjf/ap4lsEfAGWB7LNwjQIAAAQIECBAgQIAAAQIECBAgQIAAAQKlC7zt2nTI1i3Zx6Kil5VeWXMqODimRbw0zgY7IXXy13SPSXc0p2laUoaAM8DKUFUmAQIECBAgQIAAAQIECBAgQIAAAQIECBCYRSCmPDxy67bsC/GU5NcsPkMsenmcNfeFvuMQ61qlxQISYC3u/Gh6Nse/dqtoPQECBAgQIECAAAECBAgQIECAAAECBEoQ2HBVemYkbz4TRT++hOLbVOQTwvHaDZvS89vUaG1dmIAE2MK8mrL2IPE1V3sGz/f/uhEgQIAAAQIECBAgQIAAAQIECBAgQIDAEgVi6r7n9DrZ1VHMoUssyub3CRzcy7JN6zelY4AQmE1AAmw2leYuGyS2FtLCxWyzkPKtS4AAAQIECBAgQKBoAT/kKlpUeQQIENhbYPB9gWPu3jaWECBAYC+BDVvSU2JCrsvjiYP2etKCpQjcL8+yv4rpEJ+3lEJs20wBCbBm9uvMVg0GpTOXL+RxEWUspD7rEiBAgAABAgQIEFiowNQxqy9kF6pnfQIECOxbYHCcnXmMHSzfdwnWIECAQAsFLrwqHdTLs7+Kpj+4hc0fRZMPjOkQPx1JMNNKjkK7RnVIgNWosxYRahkD0JmD3EWEZRMCBAgQIECAAAEChQvMNk4tYzxceOAKJECAQA0Ehj2eDrteDZosRAIECBQj0O2mzr2d7H9EaZIzxZDOVcrBkQT7VD/ZONcKlrdPQAKsmX1e9oCz7PKb2StaRYAAAQIECBAgUIbAMGPTYdYpIzZlEiBAoAkC/WPoQm+OuwsVsz4BAo0VyI5OJ0fjjm9sA6vVsCfeu6xzacrTYt67qtUS0RQiIAFWCGOlChnli9uAtlJdLxgCBAgQIECAQKsEFjMWXcw2rULVWAIECEwRKOKY2S/DjQABAq0ViCn5HpHn2bmtBRhHw/P8/1m/JZ04jqrVWT2BieqFJKJFCoxzUNmvO19k3DYjQIAAAQIECBAgsBCBIsa9xq8LEbcuAQJtEyjiODvVbFCe7w2mqrhPgEA7BPLOhfG16f0r2NifRUz/Ft/o/nucK/XvKWX3zh5jvjyef8Dkc3nqt2O/Xes9KP7+Qvzbf9fjSv2JE8Au7F6d/2X3mHRrpQITzMgFJMBGTl54hYOBZOEFL7DAQRwGtAuEszoBAgQIECBAgMDQAoMx59AbzLPioCzj13mQPEWAQOsEBsfGMho+KNtxtwxdZRIgUDmB7ub0gpTn/3mMgf086r4x5dmXU9a7OcvSP3d2pu/snEj/HImhGQmvxR2a+9fb2p7Sw3vL0mOjrifmvc7jU5Y/Pe4/M/7dL/6N63Zomkw+9pwJNq4eqEi9EmAV6YhFhjEYPC5y81I2G8S0uKNmKSEplAABAgQIECBAoOYCgzFmGc0YlG38WoauMgkQqIvA4Fg4inj7dTnmjkJaHQQIjFkgOzsCGOXxtX9svSGSbpdHrZcfcVv6hzVr0s4yD7lnHpvujDr7/26Of59KqRd/UoqpHyei5iMijpUpy46Lo/7RsXi0CbE8/+0NW9KfrV2ZPj8ZlP+1UkACrJ7dPsoD52KFDGgXK2c7AgQIECBAgACBgcAox73GrwN1fwkQaJPAKI+zU10H9UqETVVxnwCBxgic+7fpCZF5Om5EDboj8mx/njq9P40zu74+ojrnrSbi2BEr3Hjfv/zdF12XHnjv1vQbMTXh78ayZ8+7cXFPdnp5dlYkAP9DcUUqqW4CEmD16rHBALEuUQ/iNaCtS4+JkwABAgQIECBQHYHBWHKUEQ3qNH4dpbq6CBAYh8DgeDeOuqfWOYjDcXeqivsECNReYGen88ZIvHRKbshPo4537t9L7zrz2Lx/FlZlb2e8KEWs6c8i3j/rbkovjbPCLojH/WkSy7792rlb0pPOWZm+UXZFyq+mQNkvwmq2up5RDQaFdYy+H3ud46+juZgJECBAgAABAnUVqMLYsQox1LX/xE2AQPUFqvj53HG3+vuNCAkQGFKguzHtF9fBeu2Qqy9utSxdt2xH/vTuqtTdNQ3h4soZw1bd1elv0rX5s8Lo5Kj+7pJDiMuedd5Uch2Kr7CABFiFO2dXaE0aBDapLdXfc0RIgAABAgQIEKiXQBXHiv2Y3AgQINAUgSoeZ2faOu7OFPGYAIHaCWQPSkdF0AeVFniW/bdIHh1zznHpn0uro+SCu93U665Ml8T1yvpngX2z1Ory/DVvuzYdUmodCq+sgARYZbtm8oyppg78mtqu6u5NIiNAgAABAgQIVFugyuPDfmxVjq/aPSs6AgSqIFC341jd4q1CH4uBAIEKCeSpc3xp4eTZ+7vH9H531zW2SqtmVAXH2WDfTJ38hSlP15dY5wFbt6eXl1i+oissIAFWvc5py0CvLe2s3h4mIgIECBAgQIBAdQTqNCasU6zV6WGRECAwboH+sauuN8fduvacuAm0XSDPy0mAZWnTEbf3ToqfZjXquomRzLt1xYpJs5tL23V62X8srWwFV1pAAqxa3VPngeliJQ1oFytnOwIECBAgQIBAfQXqPAZs45i9vnuayAm0V6DOx9mZvea4O1PEYwIEKitw4VWTUx8+uYQA757I8xPXrEk7Syh77EW+5aj0k7im2a9FIHeUEkyWXtK9Oj2glLIVWmkBCbBqdE+TBqaLFTWgXayc7QgQIECAAAEC9RJowrjP+L1e+5xoCbRJoKnHp6a2q037prYSaIXAtmWpjORXSnn2X89elb7bZMT+Nc2yPD+lpDYekOXpuJLKVmyFBSTAxts5BnDT/XlM9/CIAAECBAgQINAkgSaO9ZrYpibtc9pCoG0C/WNS02+Ou03vYe0jUHOBXp4OL6cJvf9WTrnVKnXd6vShmOJxUxlR5XnnRWWUq8xqC0iAja9/2jAwXayuAe1i5WxHgAABAgQIEKieQBvGdm1oY/X2LBERIDAQaOMxqI1tHvS3vwQIVFkg65SRAPt+d3W6scrNLjS2LH9LlFfCdc7y5xQap8JqISABNp5u6g/U3PYtwGnfRtYgQIAAAQIECFRVoI1fThq/VnVvFBeBZgqM5Tjbv75Nd1N67OS/v00PHzOt4+54O4D/eP3VXk2BXyghrL8voczKFtk9Jt0QwX2qhACfeekNaXkJ5SqywgISYKPtnLEMTkfbxMJrM5gqnFSBBAgQIECAAIHSBdo8hjPmL333UgGB1guM5TjTvTrt392cuvd2sh+kLPv25L9l2b92N2eXxXOPHmOvjMVjjO1VNQECVRbI8wcWHl6e/ajwMitfYP7HJYR4wA9/mp5eQrmKrLCABFiFO0douwX6g1k3AgQIECBAgACB6gv4EnJPH7HYY+EeAQLFCYzl83F3S3pNyrNvppSti6bcb0ZzTki97Gv95Fg/STbjuVE+dNwdpXbsDKOtTm0EaiNQfAIsS7fXpvVFBXrt5HXAvltUcYNysp3pKYP7/rZDQAJsdP1sYLA0a35L87M1AQIECBAgQKBMgf5YzXhtdmEus7tYSoDAwgTGcpzdsCU9Jc7w2hTJrw/F1Vh+aZ6QIykWybFe9tX1m9Mr51lvFE857o5CWR0ECMwukKfiE2B5WjZ7Zc1d2u2mXryv/GXRLYwLiz2q6DKVV20BCbDR9I/BVzHOHItxVAoBAgQIECBAoEgBY7R9a/aNOO3byRoECOwtMJbjR/eKdGB3U+c9vTz7coS0au+w5lzyuDxlG/tJs7hG2BFzrlX+E2NxK79ZlanBe1plukIglRPI+ombgm+ddGjBJdakuF7hCbCUOhJgNen9osKUACtKUjkECBAgQIAAAQIE2iXgy8WF9zezhZvZgkCbBUafZIjs1eR0h/tlX09ZflLgL19kB6yKa4R9pZ9E6yfTFllGEZuN3rCIqKtdBtNq94/oxi2Qp58WHkKeH1Z4mXUosJM+G2H+rNBQs3y+s5kLrUph1RCQACu/HwwMyjdWAwECBAgQIECAwOgE+uNbY9ylefNbmp+tCbRBYOTHiZju8LndLdnnJ6c7zNLDCkBePplEi2TafdcQG9t7x8gtC7CrahEsq9oz4qqOQFZGAiw9N6ahbd3rr3tM2hGtvr7gzn1kweUpruICEmAV7yDh7SXQuoP9XgIWECBAgAABAgQINEHAuLYJvagNBBog0L0yPaS7ufPhmO6w/0v7ZxfepH4yLa4h1k+u9ZNshZevwFEI9N+zvG+NQlodDRDIij8DLI6j669OxzcAZ+FN6OXXLnyjebeIy4C5tUlAAqzc3jY4KNdX6QQIECBAgAABAqMVML4t1ptnsZ5KI0BgAQIbN6Zl6zelk9NETHeY8lfHpmV/R/TsfpKtn2y74Jr04AWEWsSqjreLV2S3eDtbtlEgS/9eRrPzPHvHxVem+5dRdpXL7HTS/4z47igoxu3xg4wSritWUHSKKUWg7MFNKUErlAABAgQIECBAgAABAgQIECDQUIHSEw4bNqWjbjos+1KeZe8Ow0NG6BjfQ+Wv3rY9+0Y/+dZPwo2wblUtTKC/H5a+Ly4sJGsTqL5A1uvdVFKUT/r5RPaX3avTA0oqv5LFrl2ZvrYs5c+KxNX7I8C+7XcW+e/GLMtf1l3de2slGyqo0gQmSitZwQQIECBAgAABAgQIECBAgAABApUR6F6VHpk62ft6KZ0w5qAO6Sffbjo0/daGTflJa1enoqe4GnPzal29pFetu0/w4xaIF9BNJc6xd2zqZV9ZvyV//bqVafO42zqq+s9Zlb6dUu8No6pPPc0ScAZYs/pTawgQIECAAAECBAgQIECAAAEC0wTijIH9u5tTN5JfN8cT405+7YktS8/oZdk13c3ZZZPJuT3PuDceAcmv8birtUECvWWpf5wtMQeWHhfTIW6K6ypeFWfSHhM1ed02aP/RlOIFJMCKN1UiAQIECBAgQIAAAQIECBAgQKASAt1NkfDqZf8Ys9mti4DuV4mg9g7ihH5yrp+ku+SKtGLvpy0pWaD/Bbov0UtGVnw7BLrHpJ9FS/tJsHJveVodZ9JuiUTYt/rHzvihw7O68TOH/9PencDpUdQJH/9Xz2SScAQIx4KKICqXiAfxWCBIZiYE0OjKanx3F/DdXV0EVxKyXLl7QgJBDiEsrvDZj+4KvrsbPFjBaMzMxE04VEA5RIKAB8dyX+FIJpnpev/9ZEKGZI7n6KOq+/fwGTLzPN1V//pWP/XU09VdlW6mpI6AfwJMgehfnRExAggggAACCCCAAAIIIIAAAgggMKzABSvlkL4ms1TvDmgfdkN3XtTBObPghdHyN2GnPStsl5vdCa2wkTDoVdiqpWD5Cpgf6k1gh2YUwzsrFzhEskAmyjM6ILbK2OhWvQXtVh0Ou1cH5HozioNsEHBSgAEwJ6uFoBBAAAEEEEAAAQQQQAABBBBAAIH6BBZ2y3v6rLldB792ri+FXPd6lxidErFLlodt9uO5RlLszBn8Knb9UrocBQIb/VCndz0/hxD2Ems/p7Mifq6SdySvht3yc33uVv37thYrd81ul+dziIssEchNgAGw3OjJGAEEEEAAAQQQQAABBBBAAAEEEEheILLBXL37wMfBr4EYJ+qUXjv1Tyc28Hl+b0yAga/G/NgbgREFolvkF3K0PKkTi+4z4sbpbrDT5ruATeVO4I367teLCx7XLO/Wu8buERvdLU1yd3isPKKxprluWbqlJHUEhhFgAGwYHF5CAAEEEEAAAQQQQAABBBBAAAEE/BOw7/Yv5kEi3iTj9Nl4PR0ejQsw8NW4ISkgUJVAGErU0WWv0Tuxwqp2yHajt2l2+mM/oXfbikQ6KNYtr0iX3KuDYvcaiR7QkbAHm3rlob7b5U9xWbINj9wQSFaAAbBkPUkNAQQQQAABBBBAAAEEEEAAAQQQQAABlwQY/HKpNoilFAItLbK0Z6P8kxbWh7tx4xiP0kGxo3TQrlI/ffGowUQdHOvUO9kCuV8i83sdHPutDo7dr6/8Xm6RPzI4VqHif44LMADmeAURHgIIIIAAAggggAACCCCAAAIIIIAAAnUIMPBVBxq7IJCEwKyJ8mLYZf5dB5X+MYn0cksjnsbR6o+x+s+AJmWiPK/TKf5O7xp72JjoIX3xYd3k4VGj5eG47LnFS8YIbCPAANg2IPyJAAIIIIAAAggggAACCCCAAAIIIICAxwIDzlJ7XApCR8B3gSBarHdO/bUWY7zvRRkk/t31uT/XAb4/t3ZzkxP/o3e9xeuMPaevPahTLK6VKNJBMh0oa5K1+u/Duq5jr/7LA4HMBBgAy4yajBBAAAEEEEAAAQQQQAABBBBAAAEEEEhVgMGvVHlJHIHqBXSw56mw007XgaDrqt+rEFvuoaXYQ6w9qrLOWFykzSuJbdApFX+jz/1aTHR3EMmvo/VyTzhVXi9EqSmEkwIMgDlZLQSFAAIIIIAAAggggAACCCCAAAIIIIBA1QIMfFVNxYYIZCcQtsv1ekfUNM1xana5OpvTGJ1FcYLeNTZB9HaxKG61dpBe9fmVTqV4m06leIs+fWs8cOhsCQjMOwEGwLyrMgJGAAEEEEAAAQQQQAABBBBAAAEEEEDgDQEGv96g4BcE3BMY3WI/37PRrNbIDnMvutwjiscnPqyDYh/WqRRn6Fpi8RSKD+hdYj8WG62QQFbrgNiG3KMkAG8FAm8jJ3AEEEAAAQQQQAABBBBAAAEEEEAAAQTKKxAPfDH4Vd76p+SeCMyaKC82iz1ew33Uk5DzDvMQnT5xpjZvK/Q2sefDLvPDsFv+OrxJ7xfjgUCNAgyA1QjG5ggggAACCCCAAAIIIIAAAggggAACCOQowMBXjvhkjUA9AnPb5AkJ7BQdsn6snv1LvE886DVVp0z8juxgng67gm/rOmLteqcYg/8lPihqKToDYLVosS0CCCCAAAIIIIAAAggggAACCCCAAAL5CXDSNz97ckagIQGdym9tS2Q/oImsbiih8u68k06VeIpOj7gy7DYPd3TK9EtWyI7l5aDk1QgwAFaNEtsggAACCCCAAAIIIIAAAggggAACCCCQnwB3feVnT84IJCYwu12el9ftCTq93w2JJVrOhA6wxlzxWpN5SNcMOztcJWPKyUCpRxJgAGwkIV5HAAEEEEAAAQQQQAABBBBAAAEEEEAgHwEGvvJxJ1cEUhMIp8rrYVs0zRj7Cc3kidQyKkPCRvbRwcRLdK2wx+I7wnQgrLkMxaaM1QswAFa9FVsigAACCCCAAAIIIIAAAggggAACCCCQlQDTHWYlTT4I5CCwoFV+NMraI3QAZ5lmb3MIoUhZ7hHfESZ95vYLVsohRSoYZWlMgAGwxvzYGwEEEEAAAQQQQAABBBBAAAEEEEAAgSQFuOsrSU3SQsBhgTnt8rTeDfY5sfaw/mkRGQhrpL6MTOgLzK87uuS8MBTGPhqxLMi+HAQFqUiKgQACCCCAAAIIIIAAAggggAACCCDgtQADX15XH8EjUL9A2C6/jadFDIydqKncqD999adW+j1HWzFLZGLwH0uXy+jSa5QcgAGwkh8AFB8BBBBAAAEEEEAAAQQQQAABBBBAIHcBpjvMvQoIAIH8Bea3yq1hm/10c699h94Rtlgjeir/qHyNwE57YYy5WdcF28nXEhB34wIMgDVuSAoIIIAAAggggAACCCCAAAIIIIAAAgjUI8BdX/WosQ8CBReYO0Ue0zvC5h76vH2bsbZVrFmqRX604MVOvnhW2nVdsJUX3yI7J584Kfog0OxDkMSIAAIIIIAAAggggAACCCCAAAIIIIBAwQS466tgFUpxEEhaYNq0ylSIq0SiVWJlxsJV8sHIymQxpk3/PkrzG5t0noVLz8hH128w14WhPUnXBYsKVz4KNKwAA2DD8vAiAggggAACCCCAAAIIIIAAAggggAACiQow8JUoJ4khUBIBI3a+yF1aWv2xS3RqvzGmT/5cjBypa15N0Ofjn7eVRKO2Yhr5lBwdhDqQqIQ8yiTAAFiZapuyIoAAAggggAACCCCAAAIIIIAAAgjkJcDAV17y5ItAAQXCSbJBi6V3h8U/tlLCxZ3yZ5sCOUL/PFwk0B97mL5wsP6MqmxQ5v8ZOzfslNVhu3SWmaFsZWcArGw1TnkRQAABBBBAAAEEEEAAAQQQQAABBLIWYPAra3HyQ6CEAnPa5Wkt9vLNP5tn+wuXSYvsKQeaSN5hjbxDbLC/Dozpj2z52U1/L8PD6NSR/xwus4eH02RjGQpMGUUYAOMoQAABBBBAAAEEEEAAAQQQQAABBBBAIB0BBr7ScSVVBBCoUqB/sOc3unn8o4/NA2ObfxdZslJ22dgk++s9ZPvrS/pvcIAYe4C+/k79eYf+jNmybQH+PcjsIf+k5bioAGWhCFUIMABWBRKbIIAAAggggAACCCCAAAIIIIAAAgggUIMAA181YLEpAgjkJ3D+ZHlZc7+n/0f/GTBApouLhT+Tt+pT8YCY/gTxoJj+a/v/1XvLPHtYa2YtWWm/3l9uz6In3FoFGACrVYztEUAAAQQQQAABBBBAAAEEEEAAAQQQGFqAwa+hbXgFAQR8EjBiQ5HHNeT4Z/WbBsf0iXC5jJOxcmhlzbEoeJ8E9vDN64/p8+4+du4x8n81vCvdDZHIkhJgACwpSdJBAAEEEEAAAQQQQAABBBBAAAEEECizAANfZa59yo5ACQXCE2WdFvvnm3+23jl2wQp5R1+TvE+fP1zEHC6BfFgHxvZ1hcga8+UwtFeF4cDb3VyJjjiSFGAALElN0kIAAQQQQAABBBBAAAEEEEAAAQTyF9h6FjL/WOqOoCWQnrp3znZHBr6y9SY3BBBwXGDeFPmDhhj/3KjTJVaiDVfK242RiTYIJoq1x+uT+1VeyOd/75aJcrRmrXe18SiyAANgRa5dyoYAAggggAACCCCAAAIIIIAAAmUUeNb7Qlu5c3a7PO9BORj88qCSCBEBBPIXCCfLoxrFd3QaRf3R6RM75XATyMd1Ta7P6Z/x3WIZP4LjNBYGwDJWzzq7IOsMyQ8BBBBAAAEEEEAAAQQQQAABBBBAIEWBwJ6nqf8gxRzSTvq30mRPSTuTBtOPB74Y/GoQkd0RQKC8AmG73LugVS4K2+z7A2MPE2suUY2XshOxk7PLi5zyEmAALC958kUAAQQQQAABBBBAAAEEEEAAAQRSEAgnyW/0hOJJgbUf1uR/mUIWaSX5rBj7eVlj36tlWJtWJgmky8BXAogkgQACCGwRmN8q94ft0bljR9u36/SI8UUc8dpiaT+OuGiN7JZ2JqSfrwADYPn6kzsCCCCAAAIIIIAAAggggAACCCCQisD8drlDB5P+vDKoJOLytIh9euX/0tEt9qCwVb4dhuLqGmbc9ZXKkUqiCCCAwGaB846WV/TOsK+OGmUP1qXDvpeyS9OmHjks5TxIPmcB1gDLuQLIHgEEEEAAAQQQQAABBBBAAAEEEEhLoH8w6dsXrbE39fQEoQ6GfVnzakorvzrSXSOBPTOcZO+uY99adokHr2wtOwzYlju+BmDwKwIIbC+wZKXsssHIh7Sx2M8GdbSxkbyuLdQfdfDnVp1ctd62avvAPH1mzjHypDbZnwm75Es62+w/azFS+dyKjBykaa/xlImwqxBgAKwKJDZBAAEEEEAAAQQQQAABBBBAAAEEfBaYNVFeFImmh6vkWxKZpVqWiTmX51E9x/uPC9rkppzjGCl7Br9GEuJ1BEousLBTPrTBmB8rw+6Vkat6hq/ilkZ/dMDnRxLaTzp8J2ymtR22yTfCrhjU/EsqGdvgQP1sTCVpEnVDgCkQ3agHokAAAQQQQAABBBBAAAEEEEAAAQRSF9C1te7W9cGO0cGnT2pmj6ae4fYZ9OhV/R3yuj0kh8GvWgaz+k9Hb18AnkEAAQQGCkTGzNe/dx/4XN2/G/m4HC0n1r1/AXeMB8FSmw7R2HcVkIwiDRBgAGwABr8igAACCCCAAAIIIIAAAggggAACZRCoDD7pIFRlMEpEB6Uyedys0x0epiczw3CqTveVz2Okga2RXs8nanJFAAGXBbQtTfBhWJdqW80ma+fpc/XcW7dtUtv+veu2T/B3sQQYACtWfVIaBBBAAAEEEEAAAQQQQAABBBBAoCqBeBAqHoyKB6X0tOKPqtqpvo0eEGsn651nU/UOtIfrSyLxvbYMdG37b+IZkSACCBReINn1qUxwcOHFaizgvMnygO7y6xp3q2bzHavZiG38FWAAzN+6I3IEEEAAAQQQQAABBBBAAAEEEECgYYF4UCpst5+IB6k0sbUNJ7g1gVeMtTP22cW+L2yXzq1P8xsCCCBQKIH1iZbG2kMTTa8wiZlfplCUnVJIkyQdEmAAzKHKIBQEEEAAAQQQQAABBBBAAAEEECi9QBpTPFWFGg9S6WDV4fGgle7wSlU7Db6RlsFcJ3324AXtcuVpE2TT4JvxLAIIIFAIgWQHwEQODVdJcyFkkiyEkWeSTK4/Le4ASwHVpSQZAHOpNogFAQQQQAABBBBAAAEEEEAAAQQQyFEgHqyKB62aJV4fTAexal9z5d7A2ElhW3RqeJz8b45FIWsEEEAgK4GXEs5ox8DK+xJO0/vkjI2eS6EQvSmkSZIOCTAA5lBlEAoCCCCAAAIIIIAAAggggAACCCDggsDcNnkiHsSKB7M0nnuriOk5MfbzssZ+YH6r/E8V27MJAgggUBAB82jSBYlEjko6Te/Ts5LGWMar3rtQgGEF0jhohs2QFxFAAAEEEEAAAQQQQAABBBBAAAEEhhXIbRrEbaOqDGYF9ggd3DpNXxvs6vs+sWapbLIHha3y7TAUPW/LAwEEECiRgJHEB8D0DtypJRKsqqjWyM5VbVjLRqah6X5ryYltcxJgLtGc4MkWAQQQQAABBBBAAAEPBeITssbDuF0N2ZkT3K4CERcCCLghEE6SeIqoa8Of2pulOZgtVvbqj2xTYKKvz2+zt7oRKVEggAACOQjY6LHEu8hWjgmXy7jwRFmXQ4kczTJ4S+2z8o5QFMsA2AhC3r/MAJj3VUgBEEAAAQQQQAABBBDIVIBBsGS4GfxKxpFUECiygHPt7eY1vaJ/LDI6ZUMAAQTqEKhmmthak20xLfJXutM1te5Y3O3tocmXzTyV+KBa8kGSYgMCTIHYAB67IoAAAggggAACCCBQUgEGb+qv+NgOv/r92BOBsgnQZpStxikvAgh4JzC+R+7RoDcmHbg15ivaa2T2BYVdulxG6z9HJG0sEv02+TRJ0SUBBsBcqg1iQQABBBBAAAEEEEDAHwFOytZeVwx81W7GHgggsFmANpcjAQEEEHBU4MwTpUdDuy+F8N4TdslfppCud0m+0CKTNOidkg7cGHkg6TRJzy0BBsDcqg+iQQABBBBAAAEEEEDANwFOyo5cYxiNbMQWCCBQnQDtSXVObIUAAghkLGBuSSVDYy7uv/spleS9SdSYL6YRa7BJuAMsDViH0mQAzKHKIBQEEEAAAQQQQAABBDwW4KTs9pWHyfYmPIMAAskIxO0LDwQQQAABRwSMiW5KKZQDXmgJvppS2l4kG66SgzXQT6UQ7NPzjpM/ppAuSTokwACYQ5VBKAgggAACCCCAAAIIFECAk7Kb1/jCoQAHM0VAwHEBBtkdryDCQwCB8gjsPU5Wa2lfTKXExp7Z0SV/lUraricar4EWmW9omE2Jh2rNCk2dPnvisG4lyACYW/VBNAgggAACCCCAAAIIFEGgzCdl+RJdhCOYMiDgl0CZ21y/aopoEUCgsAKnTZBNYszytAqo40D/1tGdyl1QaYWcSLpht8zRhD6WSGLbJRL9eLuneKJwAgyAFa5KKRACCCCAAAIIIIAAAs4IlOmkbJnK6swBRiAIIPAmAdqhN3HwBwIIIJCxQF/0rynm2GKtWaZ3gqWyFlaKcdeddEenfFnELKw7geF37GsRWTn8JrxaBAEGwIpQi5QBAQQQQAABBBBAAAG3BeKTskV9cMK5qDVLuRDwV6DIba6/tULkCCBQeIFwsvxMC3lfigVt0TvBrg27gv+4sFN2TzGfXJPWNb+atYxXWGP+WQMxKQXz49nt8nxKaZOsQwIMgDlUGYSCAAIIIIAAAggggECBBYo4UMRJ5gIfsBQNAc8Fitjmel4lhI8AAmUQ0CWlrkq/nPb/bDTmd3o32FeuuVNGpZ9fdjmEXfJh6TN36JK609PNNYt6SrcEpF6dAANg1TmxFQIIIIAAAggggAACCCQjUISTskUoQzK1SSoIIOC6AO2V6zVEfAggUCiBncfK9VqgxzMo1Hi9G2zpky+bh3XQ6OwlK2WXDPJMLQstwzFhp7lRb/i6Xe/5en9qGW1O+MGwlekPUzZ2JvlmZyIhEAQQQAABBBBAAAEEECiTQHxSNq0pTdJyjGPmgQACCPgosKX98q3d9dGamBFAoMQCM4+U9R1ddrYOTn07I4a3a5f6kg2BhDqItMJYu7y5RZbPOUaezCj/urPRqQ73N1b+Stc2O0UTOSS7bwb2Cs1ry+di3fGzox8CDID5UU9EiQACCCCAAAIIIIBAEQW2fPH04YTslliLWA+UCQEEyiMQt2U+tLnlqRFKigAChROwa+Q7MlG+ogX7UIaF21HzOknXzTpp0yYRHQxbq839GiPRmiCSO/faTR4+bYLoK/k84nW9mnrl3ZGRw60JjtIpDo+TSA7KoYP9GwnkX/NRINc8BBgAy0OdPBFAAAEEEEAAAQQQQGCgwJbvvi6elN0S28B4+R0BBBDwWWBLu+Zim+uzK7EjgAACFYEwlGhhtz0rsma1PpHXEkQH6yDTwXon2hf7NIInX5ZeHRR7ROP5rVjzmDHRM/ph8IQx8qyJ5BkTyLqgWda1rJd150yR16qpynC5jBu9szT1bZRxvVaagkB2jqzsrnd17WkD2V2Lvp9Y+y5N61062HWgxjFmc7pbPoaqySXZbfQOuTMXTJLeZFMlNZcFGABzuXaIDQEEEEAAAQQQQACBcgls+TbswknZLbGUqwYoLQIIlElgSzvnQptbJnfKigACJRCY3yq3ht1mkQ4AzXekuPE4wEGVHx2h0oGxSlhWPwls/Kv+26f3h23SrXSgrE+fWVfZYPD/xeuNVQb2ejb2b6Bp6OBX5bElvUqi/S+78Y9ZtqDdrnIjFqLISiCvEeisykc+CCCAAAIIIIAAAggg4J9A/9fnXAKP884z/1wKTaYIIFBqAdq9Ulc/hUcAgdQEVkcd2qtckVr66SXcpEnvNsyPj2MKj4xuib6UHhkpuyrg48HqqiVxIYAAAggggAACCCCAQHICeZyQZeArufojJQQQ8E+ANtC/OiNiBBBwWCDUqRBHtdi/1RCfcjjMMoTWE1j7V7MmyotlKCxlfLMAA2Bv9uAvBBBAAAEEEEAAAQQQcEsgi4GwLPJwS5VoEEAAgcEFaA8Hd+FZBBBAoC6BOcfIkxLYE3RnBl/qEkxgJ2PPnN8udySQEkl4KMAAmIeVRsgIIIAAAggggAACCJRQII07EzjRW8IDiSIjgEBVArSPVTGxEQIIIDCyQDhJ7g6MnaRbvjDy1myRrIA9J2yVa5NNk9R8EmAAzKfaIlYEEEAAAQQQQAABBMotkOQJ2TQG1MpdO5QeAQSKKJBku1tEH8qEAAIIVCUwv1Xu0UGwk3Tj16vagY0SEDAXh21yaQIJkYTHAgyAeVx5hI4AAggggAACCCCAQEkFGjkh28i+JeWm2AgggIBw0QAHAQIIINCggA6C/Y+uRXWsJvNEg0mx+4gC5rKwLTp/xM3YoPACDIAVvoopIAIIIIAAAggggAAChRWo5YQsA1+FPQwoGAIIZCRAO5oRNNkggEBxBeK1qFqsfZ8Y+VlxS5lryV431p6sg19n5xoFmTsjwACYM1VBIAgggAACCCCAAAIIIFCHQDUnZGsZKKsjBHZBAAEESiVQTbtbKhAKiwACCNQiMLtdnhdjTxAx19WyH9uOKPC4TjPZuqBdvjPilmxQGgEGwEpT1RQUAQQQQAABBBBAAIFCCwx2Qnaw5wqNQOEQQACBDAVoYzPEJisEECiWQDhJNuhdSqcaY/9CS/Z4sUqXS2l+IL32CJ1m8he55E6mzgowAOZs1RAYAggggAACCCCAAAII1CGw5YRs/C8PBBBAAIH0BWhv0zcmBwQQKKjAglb573Fj7YF6N9jFWsTeghYzzWKtlchOCtvsSeEUeSbNjEjbTwEGwPysN6JGAAEEEEAAAQQQQAABBBBAAAEEXBHYcvGBK/EQBwIIIOCNwMwjZb3eDXa+BHairg3W6U3g+Qa6QQcNL1WzD4WTWc1zi6IAADJxSURBVE8t36pwO/dmt8MjOgQQQAABBBBAAAEEEEAAAQQQQAABTwS23A1mPImXMBFAAAFnBHRaxJ+L2MkLV8p7oyA4R3//aw2uyZkA3QjkZXW5osXKVbPb7fNuhEQULgswAOZy7RAbAggggAACCCCAAAIIIIAAAggg4J8AA2H+1RkRI4CAIwLzJ8t9ItGpYadcKqYyEPaXGtpYR8LLK4wX9Y6vb0oQXaoDhU/lFQT5+ifAAJh/dUbECCCAAAIIIIAAAggggAACCCCAgA8C8UAYd4P5UFPEiAACzgmE7XKvDoSdEq6SL5pIploxp2qQx+tPWc7p65po5gdio2sPfUFWTZtm+5yrJAJyXqAsbxbnK4IAEUAAAQQQQAABBBBAAAEEEEAAgQIKcDdYASuVIiGAQHYCeseTrnclN+jUfzfoXWEHGCOn6GDYVH3uA/oTZBdJJjnFnxm/Emt/2BTJf8w7zj6USa5kUlgBBsAKW7UUDAEEEEAAAQQQQAABBBBAAAEEEHBGgIEwZ6qCQBBAwFcBvSvs9xp7hw6GdYQ/kfHSIsfqGFirDhi16fMHe1quV/Re4Vu1DP+tw3k364Df456Wg7AdFGAAzMFKISQEEEAAAQQQQAABBBBAAAEEEECgoAIMhBW0YikWAghkKxAeLy9ojt/XaRL1R2RRl7y118hHJNKBMBMcpoNk8YDYIfozJn7dkcfrYnVqR2PuEBPdqbHeKbfI2jDU33ggkIIAA2ApoJIkAggggAACCCCAAAIIIIAAAggggMCwAvFAGOuDDUvEiwgggED1AnPb5AndujIYpoNilR2XLZOmB3eX/fuMvEef2F/vFnurDkDto4Njb9O/9V/ZV3921J+kHvE6Xc/1/zytzfyDOtC1VvNcqwMRD85tlUe15df2f8u1EEllSzoIDC7AANjgLjyLAAIIIIAAAggggAACCCCAAAIIIJCuwJYzoAyEpetM6gggUFKBadMkHpB6pP9H/9n+RquLb5GdN66Xt9km2aHCFMkOutXo+Hddb2xn/We7MQRr5RV9vjfeRge04ru6ntO/nuu/K63y9Ob/bWnmBzxV1l9tsJsYPLKu/u0O3qwDID8EEEAAAQQQQAABBBBAAAEEEEAAgVILbDkjyEBYqQ8DCv+GgNVRiuTeDUne3fNGiPxSHIHzjq4MZj1QnBK5V5KL1shuPT32s4lFZioDm4klV+SEgiIXjrIhgAACCCCAAAIIIIAAAggggAACCHgjsGUgzJuACRSBVASMrEsw3QMXrpQPJJgeSSGAQA0C4SoZ07PR/EAHteMpJ5N5WHkpmYSKnwoDYMWvY0qIAAIIIIAAAggggAACCCCAAAII+CIQD4IxEOZLbRFnWgJJntwOosDcoCfh90grWNJFAIHBBcJOOVAic7O++rHBt6j72STbiLqD8GFHBsB8qCViRAABBBBAAAEEEEAAAQQQQAABBMolwEBYueqb0g4UiNdTSvbxTukzN+kg2P7JJktqCCAwmIC+13YNu4PLdBG1+/T1tsG2afC5ZxvcvzS7swZYaaqagiKAAAIIIIAAAggggAACCCCAAALeCWy5Gyy5FZG8IyDgsgk0G7mvN+lCG/mo3onyu7DT/ItsjOaFJyY6zWLS0ZIeAl4KLF0uo18cLTNsZM7Xm5l3TasQRuy9aaVdtHS5A6xoNUp5EEDATYFRuoAtDwQQQKBfIGLBWo4FBBBAAAEEEECgVoEtA2G17sf2CHgnMLdN/qRBv5hC4KPE2DOlxawNu+VUnWyUgeUUkEmynAIdXTL1hdHmXn1bLVGB1Aa/KrpG7i6ncu2lZgCsdjP2yF+AD+f864AIahdgbt7azdgDgeIK9MoLxS0cJUMAAQQQQAABBFITYFrE1GhJ2EGBX6cWk5F9xJp/D7vNyoXd8p7U8iFhBEogoOt8HRB2me/pwNcPtbgHZlBka43clUE+hciCAbBCVCOFQAAB1wXCSbJBY3zZ9TiJDwEEMhHYJM3yTCY5kQkCCCCAAAIIIFBMAQbCilmvlGqAgE5xduOAP9P6tS2y5t6wK/h2uEL2SisT0kWgiAIXrpY9w87gGl3n60Et30kZlvEOPc/4eIb5eZ0VA2DpVR93KaVnS8oI+Clg5A4/AydqBBBIVMDKXf2D4okmS2IIIIAAAggggEAJBRgIK2Gll6XITSLf17JmMfWnnh+2p0izebCjU6aHq/RyPR4IIDCkQPweid8rGzeZtTql6D/ohpm+Z3RwPG4beFQpwABYlVBshgACCDQsENk1DadBAggg4L2AMfYn3heCAiCAAAIIIIAAAm4JZDFI4FaJiabwAroO2BNayNsyLOiu1pgrJDK36Qn+j2aYbyJZ6ZRwid+MMGpMJgOQiZSfRLIRCFfK0foe+XnlvSIyPptc35RLn7Vyw5ue4Y9hBRgAG5aHFx0WSPxDzeGyElpRBJrk/2lR+GJWlPqkHAjUJxAFvfLt+nZlLwQQQAABBJwR4PuYM1VBIAMEuBtsAAa/FkNAL567JIeSfEhP8N+uaxrdpANh++eQf31ZRjKuvh2H3iswleUsht6AV0ojoOt8HRqvmSeBiS9uPyK/gpvvhe3y+/zy9y9nBsDSqTO+DKTjSqoIeC2gU549rAXgzg+va5HgEWhQwJjr5k2RPzSYCrsPL0A/bHgfXkUAAQQQQKDoAgyEFb2GS1S+Q56Tm7W48bmEPB6f0IGwe3Sqt3+65k4ZlUcANeVpZI+atq9i455eWV/FZmxSYIFLVsiOus7XQl3n6069pL09/6JGV+Yfg18RMACWfH1x0iV506FSxHooGZ53VyCwCzU47gJzt4aIDIE0BV5sttGcNDMgbQQQQAABBBBAAIE3BBgIe4OCX3wVmDZN+oy1YY7xj9Op3i598mVzb9glx+UYx8hZm+CwkTeqaYuItZtr8irWxlaM3vV18mu6Np6u8zVPCzfWgQLeHLZlOi2qA0VuPAQGwBo3JIV8BRgEy9ef3GsU0M7Tz/WqkWtr3I3NEUCgAAK6UO1p/fP4F6A0FAEBBBBAAIHk11rBFIGUBLgAMSVYks1GYEG7fEdzWplNbkPmcrCIWaHTIv5ABwUOGHKrPF+w9iMJZ/9qwumRnCcCC7vlIzrd4e16/u46DfmtjoT9qkT2y47E4lUYDIAlW10MxiTrWW1quFcrxXZuCJjobA3kHjeCIQoEEMhEwJgLF7SxUG0m1pszoW+QITZZIeCwAG2Bw5VDaAhkLMDdYBmDk12yAk1iT9cUXRiQ+QsdFLg/nhIuvEl2SLaU9aemg3IH6t5J3wH2v/VHxJ4+CizqkreGXcF1kdXBL5GkB1QbItELameHk+XRhhIp6c4MgCVX8Xy5Ss6ynpTwr0eNfXIR0LvAXh01yp6gmT+USwBkigAC2QpYc204KZqbbabkhgACCCCAQCYCfA/LhJlMEhRgICxBTJLKTmBemzyi07B9XnN04Y7GMZUp4XY0a8NumZadwnA5BV8Y7tU6X3uszv3YzTOBy2+TsR3dMq9XdLpDsSdr+G71b4z5jl5Qe5VnrM6EywBYMlXh1psimTL5mAr14GOtlTTmOcfIky2j7FFa/PiqEh4IIFBYAbMkbIu+pN1nF76oFlZ5iILRLxgChqcRKIkAbUB2FY11dtbklJwAA2HJWZJSRgJhq3xf8l0P7M0ltbKvWPNfOlXcqoUr5b1vfjG7v8KfyHgdkPtS4jlawwBY4qiOJajrfHV0yufWrTdrrTULNbodHYswDueOcWOiLzoYlzchMQDWWFXFHX06+40ZJr039ZG0KOmlJjD7GHn20OftRL26JJ7K4PnUMiJhBBDIQ+CV+ApNHfyaxeBXHvzkiQACCCCQsQDfwzIGJ7vEBLhIKTFKEspCIGyTC/RU5GVZ5FV1HlaOjQLzK506bulFa2S3qvdLasNRwRJNauekktuaTvTI1t/5rWgCus7XEeEqs9oa859atrc7Wr5ftlh7wswjZb2j8XkRVtxJ5cO+9qqic1+7WR57cGzXp87xXZ9bQ3tdskJ2fK1ZztGO7Hma0JiGEmNnBBDIU6BPr4K8WnqjjvB4eSHPQMj7DQH6A29Q8AsCpRGgP5tfVdPm5mdPzo0L0HY0bkgKGQnomlezdS2uxRllV0s2z+mFgHNktfxrGEpUy471bNvRJSfoTTw/0n0Tf/8aY49f0Cor6omLfdwVCFfJ3hIFF+qQyOc1SpdvDuqSwP5FvIyKu5p+RBY3DnRQa6urxBvU2rJn6zoEOMZrQ+MYr80r0a31g/hd/R/En000YRJDAIH0BaysaLL2rHmT5YH0MyOHGgXoC9QIxuYIeCxAX9aNyqPddaMeiKI+AdqR+tzYK2MBXbPoL3Xatm9otntknHU12d2lp5zP1DvWbqtm43q20WkXP6B3nv2P7pvC3V+aamD31MGH5+qJjX3cE1i6XEa/MFrO0rHS2RpdOsdMMsXepIPbF8lz0eJwmmxMJslypxJ/qNMxre4YoANUnZPLW3GsV1c7HOvVOaW6VdglrfqhfIVm8t5UMyJxBBBoXMDIH4y103VR2psaT4wUUhSgH5AiLkkj4IgA/VhHKqI/DNpdt+qDaGoXoE2p3Yw9MhZY3Cl/tsmYazXbT2acdTXZ6eeAuV6CaLYOJD1ezQ7VbtN/51c8dd24avepaTv9jhe22gNq2oeNnRUIu+UknanlEg3Q9Tq9Swdev6Dvl7udxfQwsPjDnE7p8BVHh2d4H99e5XgfucY45kc2ymQLvRusWVvov9MP6UWa4Z6ZZEomCCBQi8ArOvA1z74g/8KVWbWw5b4tfYHcq4AAEEhcgP5r4qSJJki7mygniWUsQPuSMTjZ1SfQ0SmTdCrAy3UiwPfXl0Kqe0UaV7d+d1qqUwre3MgayRffIjuv3xBcqtMsflEjTvH9ab6h6znH67Xz8FhALy4/sv/i8g85Xow/GrHn6vvju428PxwvY27hxQ0FndHB+VNsRAfPkGczFeC4H5qbY39om1xeCX8i46U5WKAdvDM0gOZcgiBTBBAYKKCfIXolY190fnic/O/AF/jdKwH6Al5VF8EiMKgA/dZBWZx9knbX2aohsCoEaG+qQGKTfAWuuVNGPblOTteLaBdoJOPzjWbI3H+jJ/q/a4x8d36r3D/kVtu8oBcI72T65O+tMWfrS2/b5uXk/7T202G73Jh8wqSYhcCFq2XPjRuDRXoe7e81v6Ys8qwzjx6d7vBK2aDTHZ4o6+pMg91GEIg/wOmEbo9Ex2Z7k6I+w/G/fc1y/G9v4sQz2uE7WDuyX9NW+3gnAiIIBMopcHug0x3Ob5c7yln8wpWafkDhqpQClUSA/qrfFU3b63f9lT162p+yHwEelP/CTtl9owlCPeX7JQ3X5YtoH9ULC28VE/1c31iP2Ege03hfrRA3SYv06RrpRs+DiJmkz+kyETKm8lr6/9s4drTd47yj5ZX0syKHJAXCZdJixstXdKB0nqa7S5Jpp5DWjTrd4Tk63eHDKaRNkgME4g9uOp9bQejIbLUo22+8D7bWOO+DrRZO/qZzXU/VqQ3i9cFcn7vYST+CQqBOgaf06rHztHN6HVMS1Cno9m70A9yuH6JDYKAAfdWBGv7+Trvrb90R+WYB2iKOBOcFLlgph/Q16bSIXERba13dGLbZT9e6E9vnK9B/ruxSjeLAfCMZMff7jLFn6XSHXSNuyQaJCMQf2HQ89VKCRDRJxHcB3guba5D3gwdHcv9VLafrVS0LNdx0Fn31wIEQEchAoEe7Skt27JVLzpkir2WQH1nkK0BfIF9/ckdgOAH6qMPp+Psa7a6/dUfknEviGPBEIFwpx+o0a1/Ts58urg/mnKKuVXbcgnZZ6VxgBDSogM6W9FGJKheJf2TQDVx50sqTesfX+VxUm32FlH0AjC9R2R9zPuRY9i9hvC98OEr7Ywx/Km+RoLI+2Bf0qcCj0AkVAQ8EzA0SRLOZksCDqko2xLL3A5LVJDUEGhegb9q4oQ8p0Pb6UEvEOJQA7dRQMjzvjEAY6vmCY+RkXVbhYg1qb2cCcy+Qh8JWexCzfrhXMdtGpANfe0sUfFUvWD1ZX3O5Hd6gMV7MRbXb1mB2f8cHR1k7mi6/MbI7AshpOAHeG8Pp8JpTAvrBP0GveLlSgzrSqcAIBgE/BX6jUxLMYEoCPysvwajL2g9IkJCkEGhYgO9sDRN6lwBtr3dVRsADBGizBmDwq5sC4U9kvDRXLqI9XSMc5WaU+UWld3/N0Lu/4nMrPBwV0PNfzSaS03VpkFBDHO9omFvC+rHe9TVTL6pdu+UJ/s1eoIwDYHRIsj/OfM+xbF/CeI/4esTqp39Ht3xG/4nnPH67r8UgbgRyFHhO1/mao9eOfVM7qL05xkHWbgmUrR/glj7RlFWA/mhZa35zuWl3y13/RSg9bVgRarHgZVi0QvbtbQ4We3D3THY1YeQP+4yzB502QTZllyk51SIQdsupehfjBbqP6+e87pHIzggny89qKR/bpiMQfyiXpXNJBySdY6gsqZblfRLXJ+8Vz4/qS1bIjq81yzlaledpUcZ4XhzCRyALgT7tRF8tvVFHeLy8kEWG5OGlQJn6Al5WEEEXQoB+aCGqMbFC0O4mRklCOQjQnuWATpa1C4SdcryuD3aZ7nlo7XsXaw+9++tLevfXNcUqVTFKc0G3HNQX6XFq5OOOl+hFHWpZuM8ucjUDqe7UVPyBXPROJZ0Od463IkRS9PdLXEe8Z4pwpGoZLuiSd/ZJcJE2858tSJEoBgJpCKzWKQmm6x1fd6eROGkWTqAM/YDCVRoF8kKA/qcX1ZRbkLS9udGTcQICtG8JIJJEugKsD1bxXSNr7LFqEaWrTeq1CIQrZC+dslNnObJ/o/u5vO59j55OvULXEF+i5xZeqqWMbJu+QPxBXOTOJB2N9I+hsubA+6asNe9hucMuadUP4q9p6Id7GD4hI5COgE5voVf4TV/QJjelkwGpFlygyP2AglcdxXNQgO9sDlaKoyHR9jpaMYRVlQBtXVVMbJSnQIlnk1kv1r4/bJff5elP3lsFli6X0S+Olhm6xMf5+uyuW19x8TdzQ1NfNGfecfKQi9ER0+Y7PYrYiaRjwdGdhUAR3zuxG++fLI6ejPOIFwnVyx3+Tqd5W6RZ75lx9mSHgEsCrxixi3ceK0tnHinrXQqMWLwUKGpfwMvKIGjvBOhzeldlTgRMu+tENRBEAwK0fQ3gsWs2Anr+4GDp07XF3Z9uLiEQe07YJvFa6jwcEPDoIu5HdOD0bB04vdEBNkIYRiD+4C1SB5KOxDCVzUupCRTpPRQj8T5K7VDJP+GL1shuPT1BKMaeodE05x8RESCQmYC21eb6ZolmzW2TJzLLlYzKIlC0vkBZ6o1y5iNAXzMf96LlSrtbtBotV3loB8tV396WdmG3fCSKdFo3Ix/1thAjBW7MNWFr9KWRNuP19AUWrpT3RkFl9qK29HNrKIdn9ZzaXH1ffFOnO+xtKCV2zkQg/tAtQseRzkMmhwuZjCBQhPdSXETeTyNUdBFerlzRFZnLtSwnFKE8lAGBYQWs/Fw7qNP1qr5fDrsdLyLQmEBR+gGNKbA3AkML0Mcc2oZX6heg7a3fjj3zF6BdzL8OiGAEgXg2GdMnp1ljOnTT3UfY3LeXbx3fY9vOPFF0/SYeeQmEy2WcjAnm6N1U0zWG0XnFUUW+kRjzrVFRNGdOuzxdxfZs4ohA/GHre4eRDoMjBxNhvCHAe+oNCn5xXaCjS6bqnMpXaJwHuB4r8SFQh8DTOvB1rl6VdZ0O7fveNtdRfHbJSYBjLSd4snVagO9sTleP98HR7npfhaUtAG1jaavev4IXcH2wrh177afOmSKv+VcbxYg4XCYtZnc5S89Jnacl2s3xUi1vMnbmvFZ50PE4CW8QAZ8HwOgoDFKhPOWMgM9fwnhvOXMYZRNIpdMxXk7XK7oWao7jssmVXBBIVUCv4LNLduyVS/hCk6oziQ8v4HNfYPiS8SoC1QvQr6zeii0bF6DdbdyQFLIXoJ3M3pwcGxBYtEL27W0OFuv3rZM1GV+P35/K6/bT4VR5vQEKdm1AIOyWE3WN+nhWooMaSCaLXX8b35mm63x1ZpEZeaQjEDdUvnUSfW1c06lBUnVdwLf3V+zJe8z1oyql+Bavln02baysD/YFzSJIKRuSRSBlAXNDU180Z95x8lDKGZE8AtUK+NgXqLZsbIfAUAL0J4eS4fksBGh3s1Amj6QEaC+TkiSdTAXCLjlGp4ObpWeVj88040Yzs+ZaaYqm6ywhGxpNiv1rF1jUJfv1SvBVHY6YVvveme6hdwbaJePGymUzj5T1meZMZokLxB+0vnQO6RQkXv0kmKGAL++zmIT3WoYHhotZ6RzfEyQyV2psR7oYHzEhMITA/Xpl1gyuzBpCh6fzFvCpH5C3Ffn7L0Bf0v86LEoJaHuLUpPFLgdtZrHrt/Cl04GwD+pppFla0JP0x+ULaV/TWfFPX9Cm0+PzyFxg8xSagR4ndqZmPjbzAKrPUPsO5jvNEp0/t02eqH43tnRZIP6g9aFTSIfA5aOI2GoR4P1Wixbb5iegkzB3dMtn9J9LNYi35xcIOSMwosBLxtpw713l66dNkE0jbs0GCOQr4EM/IF8hcvdZgO9sPtdecWOn3S1u3RapZLSfRarNkpblgm45qE+Cs/SixL9Rgp0cY/i+RPascLI86lhcxQ9HTyrpRdan6HSHF2lh3+J4gX8RGDt9fqv8wvE4Ca9GAdcHwOgE1FihbO6FgOtfwnjfeXEYZRNkeJPsoP+dq1fAxIuSjskmV3JBoCqBPu1EXy29UUd4vLxQ1R5shIA7Aq73BdyRIhIfBOg7+lBLxEi7yzHgsgDtqMu1Q2w1CYTLdV3x0XKqnkM4XXc8tKadk9/4Nr3voyNsk58mnzQpjiSgA18f7Z9d6MMjbZvz60/o3YGzFrTK9TonFv2FnCsjjezjD1kXK5YP/zRqmzRdE3DxvRcb8f5z7UhxIJ4BC92e4kA4hIDA6iCyM+ZPll9DgYDHAq72AzwmJfSMBegzZgxOdokI0PYmwkgiCQvQniYMSnJuCIQr5WgJAr0jrLLe0/iMotK1vcwPRKIrdODrlxnlSTYDBHTg621igyV6N+Bf69Mut2+6tpe5bMfeaMk5U0TX/OJRVIH4IHSpA+jym6KoxwDlyl/ApfdgrMH7MP9jwtkIOjplkjXmCg3wcGeDJLAiC/xRL8g6U+dtv6nIhaRspRNwrR9QugqgwHUJ0F+si42dHBKg7XWoMkoeCu1pyQ+AMhQ/XCYtsoccr0uEfVIHRfRfeWvC5X5Nz27/zBj7X7ZH/js8UdYlnD7JVSFQmUForJwtpjKD0A5V7JLjJmaZrvN1rq7z9accgyDrjATiD1pXOn586GdU6WTjrADvRWerhsAGCoShLmx7jJys08/F64PtOfA1fkcgJYFXdeBr0c5jZenMI0Wv0uKBQCEFXOkHFBKXQiUmwHe2xChJyAEB2l0HKoEQuACVY6B8AmGnHG6MHGVNcIQOiH1QBfbTn2ruEOvT7R7Tn9/rtdu/Nza621i5LWqW+8JJ0qvP88hDIF7nq0s+pwNfF2v2rq8h/6vA6mwy7bImDyryzEfAhQEwvkTlU/fk6qaAC1/CeE+6eWw4F9VFa2S3np4gFGPP0OCanQuQgIogoG2iuV6vzJqlV2Y9UYQCUQYEqhBwoS9QRZhsUjIB+oclq/CSFZd2t2QV7lBxaVsdqgxCyVfg8ttk7GuvyN59TdsPCo9qkfWBkQ3jx8qrp02QTflGSu4DBXS6wwm6zlc8S9BRA5938PenjbVz7C3yLb2oO3IwPkJKUSD+sM2rs8cHfYoVS9LeC+T1vozheG96f/hkW4ALuuWgPmu+prmekG3O5FZoASs/18HV6czbXuhapnBDC+TZDxg6Kl4powD9wjLWennLTNtb3rrPo+S0r3mokycCCCQicMEKeUdfs1mqiX0ikQTTS6Qym4x9Xa4Kp8rr6WVDyi4LxB+4WXfy+JB3+YggNtcEsn5/xuXnPeraUeBJPB1dMlXvfI8Hwt7pSciE6abA0zrwda6sluu5MsvNCiKqTAXy6AdkWkAyc1qAPqHT1UNwKQrQ9qaIS9IVAdpXDgQEEPBS4OJbZOf1PcEcHU44Uwsw1uFC6Gc5s8k4XD+ZhhZ/6GbZueNDPtPqJbMCCfA+LVBlFrko19wpo556Sc6wxizUco4rclkpW+ICPdolWaIrzF2q87e/mnjqJIiA3wJZ9gP8liL6JAT4zpaEImn4LkC763sNuhk/7aub9UJUCCAwgkD/WvBf0LXgF+imbxlh87xfvl3X+Zqu63zdkXcg5O+GQFYDYHzIu1HfROG3QFZfwni/+n2cOBH94tWyz6aNlfXBvqABBU4ERRAuC9zc1GdnzjtOHnI5SGJDwAGBrPoCDhSVEHIQoA+YAzpZOi9Au+t8FXkRIO2rF9VEkAggMJjAwm45KorX+TK63pfLDytPSmDP1wtqr9NY+fx2ua4yji3+EE7zgOBDPuMKJbtSCKT5no0Bed+W4jDKppDaUToisuZKzc31BVGzASGXbQXuF2tnhO3Sue0L/I0AAkMKpN0PGDJjXii0AP2/QlcvhUtAgLY3AcQSJkHbWsJKp8jFEljUJW/tlWCRnj7/1ICSdTX12nPnTZE/DHiucL+GK2Qvaa6U/e+0cE0OF3CTnsq8enRLtHDWRHnR4TgJLSeB+MM4rY4cH/Q5VSrZlkaA925pqtrzgurCYB3d8hn951Ityds9Lw3hJyPwsrF2wd67ytdPmyDaWeWBAAJ1CKTVD6gjFHbxWIDvbB5XHqHnIkDbmwu7l5nSvnpZbQSNwGaBcJXsKn1Bh65Pfbo+M2oQl006HeC3WlqiubOPkWcHed3bpy6/TcauWy/n6aDSOVqIHdwuiLmuuTeaM3eKPOZ2nESXp0AaA2B8yOdZo+RdRoGkv4TxHi7jUZRBmcObtOO0g5yrnSjtSMmYDLIkC/cE+vRLwtUtEi2c3S7PuxceESHgpUDS/QAvEQi6ZgH6ezWTsQMCbwjQ7r5BwS+DCNC+DoLCUwj4IhAukxYzXv5W1zUPNea9q4j7Kb24c669Rb6l62RFVWzv9CZht3xSv7PHFy+/2+lARdbqLIczF7TJjx2Pk/AcEIg/mJPqvPEh70CFEkJpBZJ6H8eAvJdLexhlU/BFK2Tf3uZgsX78nJJNjuTiiMCaINKFaCfLrx2JhzAQKJJAkv2AIrlQlu0F6Odtb8IzCNQrQNtbr1wx96N9LWa9UqqSCFTu+Ipkhp4SO0OLvGcdxX5Qp/c/W6f3v7mOfXPfRcv/UYkqy1d8OPdghg/gab0r71xZLdcXYcBx+KLyalIC8Qd0o502PuSTqg3SQaBxAd7PjRuSQkYCHZ0ySa+qukKzOzyjLMkmH4E/6pVZZ+qVWTflkz25IlAqgUb7AaXCKmFh+d5WwkqnyJkI0PZmwuxsJrStzlYNgSEwskD4U3mLBPIFMebLuvVeI+8xwhZWvqen2s/VgbDfj7ClEy9f2Cm7b5RgoQ4q/YMG1OxEUIMH0aeDk9dKEM0PJ8lzg2/CswgMLrDlg7reDtuW/QdPnWcRQCAvAd7TecmTb00CesVOIMfIyXqL/SW6Y+OdzZpyZ+OUBV7Vga9FO4+VpTOPlPUp50XyCCDwZoF6+wFvToW/iiLAd7ai1CTlcF2Attf1Gko2PtrWZD1JDYHMBPRup2Zjpc1aEw/6fFJ/kh746dHBmiukJ7owPFHWZVawGjK65k4Z9eQ6OV3PxYS622417JrHpl06m8xZOpvMfXlkTp7+C2z5wK61o7ZlP/8FKAECxRao5b3N+7rYx4LTpbtojezWszHQtcHsWRpoi9PBEtxIAtrumOubJZo1t02eGGljXkcAgVQFaukHpBoIieciQN8uF3YyLbkA7W7xDwDa1uLXMSUsoEC8FENfk5xkA/MJnQvtKC3i2AyK+aJeFHqxfV6+Fk6TjRnkV1UWus7XqfqdfZE67FvVDvltdJ8x9qwFrdKVXwjkXASBgR/c1XTUBm5fhPJTBgTKIMB7uwy1XJAyXtAtB/VZc7kW58SCFKlsxfhFYHSdr1b5RdkKTnkRcFigmn6Aw+ETWh0CfGerA41dEEhYgLY3YVBHkqN9daQiCAOBagXCTl1ywZgluv1x+tNU7X6Jbmflbl0f7Kxwsvws0XRrTEzvfDtY1/m6THdz/XzLOvVaPH6jXHnmiaJ30/FAoDEBPrwb82NvBBBAAIEUBDq6ZKoV8zVN+p0pJE+SyQuwEG3ypqSIQNICnIxNWtTN9Ph+52a9EFV5BWh7i1H3tK3FqEdKUTKBcKUcK4H5qRZ7lCNF/36Trg82r00eyTKe/hl35uuMO/E6Z65YDEYQ6WDlt0ZF0Zw57fL0YBvwHAL1CPAhXo8a+yCAAAIIpC4Qz0n91EtyhjVmoWY2LvUMyaAegc1zmwfREl2I9qV6EmAfBBDIXICTsZmTZ5Ih3+syYSYTBOoSoN2ti82JnWhbnagGgkCgPoGOTvm8nk/4t/r2Tm2vHh3kuVI2RIvTXh9s2TJpemB3+Qe9uDg+p7JHaiVKJuE1OkA3I2yTXyWTHKkgsFWAD/OtFvyGAAIIIOCgwOLVss+mjUEoxn5BwwscDLGsId2s0xL8U9guvysrAOVGwHMBTsh6XoH94fN9rhj1SCnKIUC7608907b6U1dEisCQAmGo5w8mBv+pAyufHXKj/F54RtcHm3vI8/LNadOkL+kwOrqlzdrKrDrvTTrthNP7k57rOTdslWUJp0tyCLwhwIf6GxT8ggACCCDgssDCbjkisnqllFQWrHU51KLHdr8OfM3Qga/OoheU8iFQAgFOxvpdyXyX87v+iL68ArS97tY97aq7dUNkCNQl0H8X1Fy9C2qOJuDi9H/3GF0fbEG7rKqrgNvspOt8vUv6zKVi5FPbvOTan6/pwOSScWPlsplHynrXgiOeYgnw4V6s+qQ0CCCAQLEFtNeqVzJ9Rv+5RAu6X7EL61zpXtaO+YK9d5WvnzZBNjkXHQEhgEAjApyMbUQv+335Dpe9OTkikIYAbW8aqvWnSdtavx17IuC8gF5Q+z5dYOqfxcrRjgZ7owT2HF1a4OF64guX67IRLcFcvZtquu7fUk8aGe2jn33m+maJZs1tkycyypNsSi7AB3zJDwCKjwACCPgoEN4kO+h/52rH6TyNf4yPZfAo5j6x5uoWiRbObpfnPYqbUBFAoHYBTsbWbpblHnx3y1KbvBDIRoB2Nxvn4XKhbR1Oh9cQKJhAR5dM1Qtqr9BiHeBg0Xr1u/c3pS+aF06RZ6qJL1wmLWZ3OUvLFJ8b2a2afXLbxsqKJr3bbd5keSC3GMi4lAJ80Jey2ik0AgggUAyBRStk397mYLHeOn9KMUrkXClYiNa5KiEgBFIX4GRs6sQ1Z8B3tprJ2AEB7wRoe7OvMtrW7M3JEQEnBCqDRuPldGvMBRrQzk4E9eYgXtT1wS7erUeuOPNE6XnzS1v/0tlxPq7rfF2mzxy09Vknf/u9lmfGgja5ycnoCKrwAnzgF76KKSACCCBQfIFwpRwrQeUqrvcVv7SZlPBP2kH9Ch3UTKzJBAFXBTgZ60bN8H3NjXogCgSyEqDtTV+adjV9Y3JAwAuBRV3y1l4JLtILak/WgF1sG36n38vn6vfyGwaC6nSO79HpHK/Q6RzbBz7v4O/rdBmF+fYF+Zdwmmx0MD5CKomAi2/uktBTTAQQQACBJAXCUAI5Rk7WKQPi9cH2SjLtEqWli8/ar8rr8tVwqv6fBwIIIKCNAgi5CPA9LRd2MkXAGQHa3uSrgnY1eVNSRKAQAnon1RS9kyqeFvFgRwv0XV0f7IvyP7LOTJRZOt3hXI3T5aUg9DPM3KDrfJ2r63z9yVFTwiqRAB2AElU2RUUAAQTKIHDRGtmtZ2Og81/bs7S8Li/+6lJ1xB3U6yWIZuuiu4+7FBixIICAMwKcjM2mKvh+lo0zuSDggwDtbjK1RLuajCOpIFBogWvulFFPviRfEWPma0F3cbCwerGqbNAft9f5EvlVYO2M+e2iyynwQMANAToCbtQDUSCAAAIIJCxwQbcc1GfN5ZrsiQknXbTk7gmMnT6/Va8n44EAAggML8DJ2OF9GnmV72WN6LEvAsUWoO2tv35pW+u3Y08ESilQuaC2JwjF2DMUoLmUCPUV+o86XeOZLKNQHx57pStAZyBdX1JHAAEEEMhZIOzUebGNWaphHJJzKK5l/4x26s+R1XK9Th8ZuRYc8SCAgNMCnIxNtnr4TpasJ6khUFQB2t7qa5Z2tXortkQAgUEEwlU6HWKfTotoZMogL/PUVoFXdeBrkX1drmIZha0o/OaWAJ0Ct+qDaBBAAAEEUhCIpzN46iU5wxqzUJMfl0IWPiWpi8+ar+l0h0t0usOXfAqcWBFAwDkBTsY2ViV8F2vMj70RKKsAbe/QNU+7OrQNryCAQB0CHV0yVdfcii+o3b+O3Yu8i34Wmet1na9Zus7XE0UuKGXzX4DOgf91SAkQQAABBKoU0Ku49pC+YJ7e+fRl3aWpyt2Ks5mVH+naaDPDdvldcQpFSRBAwAEBTsbWVgl8B6vNi60RQGB7AdrdN5vQrr7Zg78QQCBBgctvk7GvrJczdSBsria7U4JJ+5rU7brO13Rd5+sOXwtA3OUSoJNQrvqmtAgggAACKhB2yQd1WsQrxcrRJQH5rWgHVQe+OktSXoqJAALZC3Aytjpzvn9V58RWCCBQnUDZ217a1OqOE7ZCAIEEBPSC2rdJFFyoF5WekkByPibxqE53ePaCVvmuTg1Z9s8fH+uvtDHTWSht1VNwBBBAoOQCevlWR7d8Rv+5RCX2K6jGy8baBXvvKl8/bYJsKmgZKRYCCLglwJfhweuD712Du/AsAggkI1DGtpd2NZljh1QQQKBGgXClHCuBXlArcniNu/q6+QYd9Lt4x1655Jwp8pqvhSDu8grQYShv3VNyBBBAAAEVCG+SHfS/c3X+av2RsQVB6RNrrm6RaOHsdnm+IGWiGAgg4JdAGU/GDlZDfN8aTIXnEEAgLYEytL20q2kdPaSLAAJVC+jdYM16D9Tf6ffuxbrTHlXv6N2G5rrm3mjO3CnymHehEzAC/QJ0HDgUEEAAAQQQUIEB0xmcrH/6+/lo5JbKdIdt8isqFgEEEMhZoAwnYoci9vdzZKgS8TwCCPgiUNS2l3bVlyOQOBEokUD4ExkvzcGCAq4zfo9EdkY4WX5WouqkqAUVoANR0IqlWAgggAAC9Qks7JaPRbYyncH76ksht73+pNNwn8N83Ln5kzECCAwtUNSTsUOVmO9YQ8nwPAIIZClQlLaXNjXLo4a8EECgLgG9oPb9EpmluvPEuhJwZ6endTDvXFkt14ehRO6ERSQI1C9AR6J+O/ZEAAEEECiogHb0AjlGTtbpDOL1wfZyvJjrdT7ur8rr8tVwqv6fBwIIIOCuQFFOxg4lzHeroWR4HgEE8hTwte2lTc3zqCFvBBCoS6CjS6bqOuNX6c771ZVAfjv16HmFJXom5NJwkryaXxjkjEDyAnQokjclRQQQQACBggjoVVy7ShScrx3Bs7RILY4VS09mmOsliGZrB/Vxx2IjHAQQQGA4AV9Pxg5VJr5TDSXD8wgg4JKAL20vbapLRw2xIIBAzQID1hk/T3ceU3MCme9gbmjqi+bMO04eyjxrMkQgAwE6FhkgkwUCCCCAgN8CYaccqINNl+vKYB93pCTMx+1IRRAGAgjULeDLidjhCsh3qeF0eA0BBFwUcL3tpV118aghJgQQqEtg0QrZt7c5WKwX1J5SVwLp73SfMfYsXUahK/2syAGB/AToXORnT84IIIAAAp4J6EBYu5jK+mCH5hT6Mzof9znMx52TPtkigEAaAq6fjB2qzHyPGkqG5xFAwAcB19pe2lQfjhpiRACBugTCLmnVC2qv1J0PqyuB5Hd6Vs8rzNULfL+ps8n0Jp88KSLglgCdDLfqg2gQQAABBBwXuOZOGfXUS3KGNaZDQ90lo3A3aof5azrd4RLtoL6UUZ5kgwACCGQp4NrJ2KHKzvenoWR4HgEEfBTIu+2lTfXxqCFmBBCoWUCXV2g2ffLljM8jbBtn5bzC6Jbo4lkT5cVtX+RvBIoqQGejqDVLuRBAAAEEUhW4sFN23yjBfL1y6suaUVOKmS1vMnbmvFZ5MMU8SBoBBBBwRSDvk7FDOfC9aSgZnkcAAd8F8mh3aVN9P2qIHwEE6hLI8DzCtvFxXmFbEf4ujQCdjtJUNQVFAAEEEEhDQKcz+GBlWkQrRyec/gNi7Zlhu3QmnC7JIYAAAq4L5HEydjgTvjMNp8NrCCBQFIEs2l7a06IcLZQDAQQaEghX6vmDwFyhiRzRUEIj7/wnvWj33LBVlo28KVsgUEwBOh/FrFdKhQACCCCQsUBHl0y1Yq7SbPdrMOt1xtr5e+8qXz9tgmxqMC12RwABBHwWyOJk7HA+fFcaTofXEECgqAJptb20qUU9YigXAgjUJ6AnEPSC2s/pBbWLNIF31pfIkHs9I2KvGjdWLpt5pKwfciteQKAEAnRASlDJFBEBBBBAIBuBcLmMk9HBPO1oxtMijq0x1z5d5+sGiaLzwsnyaI37sjkCCCBQZIG0TsYOZcZ3pKFkeB4BBMokkFTbS5tapqOGsiKAQM0C8TrjT74kU8QEp+i5hE9qAmNqTEQHu+QuPZ9wl9joruY+uWvuFHmsxjTYHIHCCtARKWzVUjAEEEAAgbwElqyUXTYE8lntgJ6gMXxMf3YfIpZXxMitRuxPba/8V3ic/O8Q2/E0AgggUHaBpE7EDufId6PhdHgNAQTKKNBI20ubWsYjhjIjgEBDApeskB1fC+QDEsgEHRB7vy6LEJ9L2E1/xui5g/Vi5UWx5lkTRGv199/YSO7nAtqGyNm5BAJ0SEpQyRQRAQQQQCBfgUUrZN++JnmXnkFoiiMxgXZjI/lD2CZ/0E5sIycW8i0YuSOAAALZC6TVZvK9KPu6JEcEEPBLoJr2l7bUrzolWgQQQAABBAovQOek8FVMARFAAAEEEEAAAQQQKJxANSdiqyk034eqUWIbBBBAAAEEEEAAAQQQQMBDAb7weVhphIwAAggggAACCCCAAAIVgXoHwvgexAGEAAIIIIAAAggggAACCBRcgC9+Ba9giocAAggggAACCCCAQEkERhoM47tPSQ4EiokAAggggAACCCCAAAIIxAL/Hwc5DnsUuDINAAAAAElFTkSuQmCC;" parent="OWNzuiMXCO4bU7EgIZqG-1" vertex="1">
          <mxGeometry x="730" y="379" width="83" height="22.48" as="geometry" />
        </mxCell>
      </root>
    </mxGraphModel>
  </diagram>
  <diagram id="wzPMfRyVEzjkrYjVneP4" name="[THREEM] Hackerathon">
    <mxGraphModel dx="3080" dy="826" grid="1" gridSize="10" guides="1" tooltips="1" connect="1" arrows="1" fold="1" page="1" pageScale="1" pageWidth="827" pageHeight="1169" math="0" shadow="0">
      <root>
        <mxCell id="TEyIeeMCU0l6fT6L0V6q-0" />
        <mxCell id="TEyIeeMCU0l6fT6L0V6q-1" parent="TEyIeeMCU0l6fT6L0V6q-0" />
        <mxCell id="moepnV5Xidtaibirs5T_-0" value="" style="rounded=0;whiteSpace=wrap;html=1;shadow=0;glass=0;labelBackgroundColor=none;labelBorderColor=none;sketch=0;fontSize=36;fontColor=#FF4D0D;strokeColor=none;strokeWidth=5;fillColor=#DBDBDB;gradientColor=none;gradientDirection=radial;align=left;rotation=30;opacity=50;" vertex="1" parent="TEyIeeMCU0l6fT6L0V6q-1">
          <mxGeometry x="561.28" y="138.6" width="560.22" height="310.98" as="geometry" />
        </mxCell>
        <mxCell id="moepnV5Xidtaibirs5T_-1" value="" style="rounded=0;whiteSpace=wrap;html=1;shadow=0;glass=0;labelBackgroundColor=none;labelBorderColor=none;sketch=0;fontSize=36;fontColor=#FF4D0D;strokeColor=none;strokeWidth=5;fillColor=#DBDBDB;gradientColor=none;gradientDirection=radial;align=left;rotation=30;opacity=50;" vertex="1" parent="TEyIeeMCU0l6fT6L0V6q-1">
          <mxGeometry x="-178.54" y="471.27" width="1172.41" height="548.18" as="geometry" />
        </mxCell>
        <mxCell id="moepnV5Xidtaibirs5T_-2" value="" style="rounded=0;whiteSpace=wrap;html=1;shadow=0;glass=0;labelBackgroundColor=none;labelBorderColor=none;sketch=0;fontSize=36;fontColor=#FF4D0D;strokeColor=none;strokeWidth=5;fillColor=#DBDBDB;gradientColor=none;gradientDirection=radial;align=left;rotation=30;opacity=50;" vertex="1" parent="TEyIeeMCU0l6fT6L0V6q-1">
          <mxGeometry x="-700" y="1061.5" width="897.44" height="390.72" as="geometry" />
        </mxCell>
        <mxCell id="moepnV5Xidtaibirs5T_-3" value="" style="verticalLabelPosition=bottom;html=1;verticalAlign=top;strokeWidth=1;dashed=0;shape=mxgraph.aws3d.flatDoubleEdge;fillColor=#000000;aspect=fixed;rounded=1;shadow=0;comic=0;fontFamily=Verdana;fontSize=12;flipV=1;rotation=60;" vertex="1" parent="TEyIeeMCU0l6fT6L0V6q-1">
          <mxGeometry x="-606.4699999999999" y="1010" width="736.57" height="420.08" as="geometry" />
        </mxCell>
        <mxCell id="moepnV5Xidtaibirs5T_-4" value="&lt;span style=&quot;font-size: 30px&quot;&gt;&lt;b&gt;&lt;font color=&quot;#ffffff&quot;&gt;Auto &lt;br&gt;Scaling&lt;/font&gt;&lt;/b&gt;&lt;/span&gt;" style="text;html=1;align=center;verticalAlign=middle;resizable=0;points=[];autosize=1;strokeColor=none;fillColor=none;rotation=30;" vertex="1" parent="TEyIeeMCU0l6fT6L0V6q-1">
          <mxGeometry x="-289.40000000000003" y="1204" width="120" height="50" as="geometry" />
        </mxCell>
        <mxCell id="moepnV5Xidtaibirs5T_-5" value="" style="verticalLabelPosition=bottom;html=1;verticalAlign=top;strokeWidth=1;dashed=0;shape=mxgraph.aws3d.flatDoubleEdge;fillColor=#000000;aspect=fixed;rounded=1;shadow=0;comic=0;fontFamily=Verdana;fontSize=12;flipV=1;rotation=60;" vertex="1" parent="TEyIeeMCU0l6fT6L0V6q-1">
          <mxGeometry x="-122.62" y="500.00000000000006" width="1002.62" height="571.81" as="geometry" />
        </mxCell>
        <mxCell id="moepnV5Xidtaibirs5T_-6" value="&lt;font style=&quot;font-size: 72px&quot;&gt;AWS Architecture Diagram&lt;/font&gt;" style="text;html=1;align=center;verticalAlign=middle;resizable=0;points=[];autosize=1;fontSize=22;rounded=0;" vertex="1" parent="TEyIeeMCU0l6fT6L0V6q-1">
          <mxGeometry x="-1117.2" y="70" width="870" height="50" as="geometry" />
        </mxCell>
        <mxCell id="moepnV5Xidtaibirs5T_-7" value="" style="edgeStyle=isometricEdgeStyle;endArrow=none;html=1;labelBackgroundColor=none;strokeWidth=5;fontFamily=Verdana;fontSize=12" edge="1" parent="TEyIeeMCU0l6fT6L0V6q-1" target="moepnV5Xidtaibirs5T_-18">
          <mxGeometry width="50" height="100" relative="1" as="geometry">
            <mxPoint x="-408.7600000000002" y="1360.0000000000005" as="sourcePoint" />
            <mxPoint x="-498.76" y="1120" as="targetPoint" />
            <Array as="points">
              <mxPoint x="-458.76" y="1260" />
            </Array>
          </mxGeometry>
        </mxCell>
        <mxCell id="moepnV5Xidtaibirs5T_-8" value="" style="verticalLabelPosition=bottom;html=1;verticalAlign=top;strokeWidth=1;align=center;outlineConnect=0;dashed=0;outlineConnect=0;shape=mxgraph.aws3d.route53;fillColor=#ECECEC;strokeColor=#5E5E5E;aspect=fixed;rounded=0;fontSize=32;" vertex="1" parent="TEyIeeMCU0l6fT6L0V6q-1">
          <mxGeometry x="-1020" y="1330" width="114.21" height="131" as="geometry" />
        </mxCell>
        <mxCell id="moepnV5Xidtaibirs5T_-9" value="&lt;font style=&quot;font-size: 30px&quot;&gt;&lt;b&gt;Route 53&lt;/b&gt;&lt;/font&gt;" style="text;html=1;align=center;verticalAlign=middle;resizable=0;points=[];autosize=1;strokeColor=none;fillColor=none;rotation=35;fontColor=#CCCC00;" vertex="1" parent="TEyIeeMCU0l6fT6L0V6q-1">
          <mxGeometry x="-1070" y="1457.5" width="140" height="30" as="geometry" />
        </mxCell>
        <mxCell id="moepnV5Xidtaibirs5T_-10" value="&lt;font color=&quot;#cccc00&quot;&gt;&lt;font size=&quot;1&quot;&gt;&lt;b style=&quot;font-size: 30px&quot;&gt;Users&lt;/b&gt;&lt;/font&gt;&lt;br&gt;&lt;/font&gt;" style="text;html=1;align=center;verticalAlign=middle;resizable=0;points=[];autosize=1;strokeColor=none;fillColor=none;rotation=30;" vertex="1" parent="TEyIeeMCU0l6fT6L0V6q-1">
          <mxGeometry x="-745" y="1590" width="100" height="30" as="geometry" />
        </mxCell>
        <mxCell id="moepnV5Xidtaibirs5T_-11" value="" style="verticalLabelPosition=bottom;html=1;verticalAlign=top;strokeWidth=1;align=center;outlineConnect=0;dashed=0;outlineConnect=0;shape=mxgraph.aws3d.end_user;strokeColor=none;fillColor=#777777;aspect=fixed;rounded=0;fontSize=42;" vertex="1" parent="TEyIeeMCU0l6fT6L0V6q-1">
          <mxGeometry x="-710" y="1480" width="55.6" height="114" as="geometry" />
        </mxCell>
        <mxCell id="moepnV5Xidtaibirs5T_-12" value="" style="edgeStyle=isometricEdgeStyle;endArrow=none;html=1;labelBackgroundColor=none;strokeWidth=5;fontFamily=Verdana;fontSize=12" edge="1" parent="TEyIeeMCU0l6fT6L0V6q-1">
          <mxGeometry width="50" height="100" relative="1" as="geometry">
            <mxPoint x="-914.9400000000005" y="1429.77" as="sourcePoint" />
            <mxPoint x="-720.9400000000005" y="1539.77" as="targetPoint" />
            <Array as="points">
              <mxPoint x="-874.94" y="1449.77" />
              <mxPoint x="-814.94" y="1479.77" />
              <mxPoint x="-607.79" y="1991.94" />
            </Array>
          </mxGeometry>
        </mxCell>
        <mxCell id="moepnV5Xidtaibirs5T_-13" value="1" style="ellipse;whiteSpace=wrap;html=1;aspect=fixed;strokeWidth=10;fontFamily=Tahoma;spacingBottom=4;spacingRight=2;strokeColor=#3819FF;rounded=0;fontSize=42;rotation=-30;" vertex="1" parent="TEyIeeMCU0l6fT6L0V6q-1">
          <mxGeometry x="-1130" y="1239" width="50" height="50" as="geometry" />
        </mxCell>
        <mxCell id="moepnV5Xidtaibirs5T_-14" value="&lt;font color=&quot;#3819ff&quot; size=&quot;1&quot;&gt;&lt;b style=&quot;font-size: 30px&quot;&gt;DNS Resoluation&lt;/b&gt;&lt;/font&gt;" style="text;html=1;align=center;verticalAlign=middle;resizable=0;points=[];autosize=1;strokeColor=none;fillColor=none;rotation=-30;" vertex="1" parent="TEyIeeMCU0l6fT6L0V6q-1">
          <mxGeometry x="-1169" y="1280" width="260" height="30" as="geometry" />
        </mxCell>
        <mxCell id="moepnV5Xidtaibirs5T_-15" value="" style="verticalLabelPosition=bottom;html=1;verticalAlign=top;strokeWidth=1;align=center;outlineConnect=0;dashed=0;outlineConnect=0;shape=mxgraph.aws3d.elasticLoadBalancing;fillColor=#ECECEC;strokeColor=#5E5E5E;aspect=fixed;rounded=0;fontSize=42;" vertex="1" parent="TEyIeeMCU0l6fT6L0V6q-1">
          <mxGeometry x="-529.9999999999999" y="1340" width="117.38" height="112.5" as="geometry" />
        </mxCell>
        <mxCell id="moepnV5Xidtaibirs5T_-16" value="&lt;font color=&quot;#cccc00&quot;&gt;&lt;font style=&quot;font-size: 30px&quot;&gt;&lt;b&gt;Load Balancer&lt;/b&gt;&lt;/font&gt;&lt;br&gt;&lt;/font&gt;" style="text;html=1;align=center;verticalAlign=middle;resizable=0;points=[];autosize=1;strokeColor=none;fillColor=none;rotation=30;" vertex="1" parent="TEyIeeMCU0l6fT6L0V6q-1">
          <mxGeometry x="-530" y="1510" width="220" height="30" as="geometry" />
        </mxCell>
        <mxCell id="moepnV5Xidtaibirs5T_-17" value="" style="edgeStyle=isometricEdgeStyle;endArrow=none;html=1;labelBackgroundColor=none;strokeWidth=5;fontFamily=Verdana;fontSize=12" edge="1" parent="TEyIeeMCU0l6fT6L0V6q-1" source="moepnV5Xidtaibirs5T_-15" target="moepnV5Xidtaibirs5T_-24">
          <mxGeometry width="50" height="100" relative="1" as="geometry">
            <mxPoint x="-198.76000000000022" y="1384.0000000000005" as="sourcePoint" />
            <mxPoint y="1410" as="targetPoint" />
            <Array as="points">
              <mxPoint x="-250" y="1380" />
            </Array>
          </mxGeometry>
        </mxCell>
        <mxCell id="moepnV5Xidtaibirs5T_-18" value="" style="verticalLabelPosition=bottom;html=1;verticalAlign=top;strokeWidth=1;align=center;outlineConnect=0;dashed=0;outlineConnect=0;shape=mxgraph.aws3d.application_server;fillColor=#ECECEC;strokeColor=#5E5E5E;aspect=fixed;rounded=0;fontSize=20;fontColor=#3819FF;opacity=30;" vertex="1" parent="TEyIeeMCU0l6fT6L0V6q-1">
          <mxGeometry x="-515.6199999999999" y="1020" width="123" height="124" as="geometry" />
        </mxCell>
        <mxCell id="moepnV5Xidtaibirs5T_-19" value="&lt;font color=&quot;#cccc00&quot;&gt;&lt;font style=&quot;font-size: 30px&quot;&gt;&lt;b&gt;Web Servers&lt;/b&gt;&lt;/font&gt;&lt;br&gt;&lt;/font&gt;" style="text;html=1;align=center;verticalAlign=middle;resizable=0;points=[];autosize=1;strokeColor=none;fillColor=none;rotation=30;" vertex="1" parent="TEyIeeMCU0l6fT6L0V6q-1">
          <mxGeometry x="-400" y="1259" width="200" height="30" as="geometry" />
        </mxCell>
        <mxCell id="moepnV5Xidtaibirs5T_-20" value="2" style="ellipse;whiteSpace=wrap;html=1;aspect=fixed;strokeWidth=10;fontFamily=Tahoma;spacingBottom=4;spacingRight=2;strokeColor=#3819FF;rounded=0;fontSize=42;rotation=-30;" vertex="1" parent="TEyIeeMCU0l6fT6L0V6q-1">
          <mxGeometry x="-720" y="1290" width="50" height="50" as="geometry" />
        </mxCell>
        <mxCell id="moepnV5Xidtaibirs5T_-21" value="&lt;font color=&quot;#3819ff&quot;&gt;&lt;span style=&quot;font-size: 30px&quot;&gt;&lt;b&gt;Load Balancing&lt;/b&gt;&lt;/span&gt;&lt;/font&gt;" style="text;html=1;align=center;verticalAlign=middle;resizable=0;points=[];autosize=1;strokeColor=none;fillColor=none;rotation=-30;" vertex="1" parent="TEyIeeMCU0l6fT6L0V6q-1">
          <mxGeometry x="-705" y="1310" width="240" height="30" as="geometry" />
        </mxCell>
        <mxCell id="moepnV5Xidtaibirs5T_-22" value="" style="verticalLabelPosition=bottom;html=1;verticalAlign=top;strokeWidth=1;align=center;outlineConnect=0;dashed=0;outlineConnect=0;shape=mxgraph.aws3d.application_server;fillColor=#ECECEC;strokeColor=#5E5E5E;aspect=fixed;rounded=0;fontSize=20;fontColor=#3819FF;" vertex="1" parent="TEyIeeMCU0l6fT6L0V6q-1">
          <mxGeometry x="-421.18" y="1080" width="123" height="124" as="geometry" />
        </mxCell>
        <mxCell id="moepnV5Xidtaibirs5T_-23" value="" style="verticalLabelPosition=bottom;html=1;verticalAlign=top;strokeWidth=1;align=center;outlineConnect=0;dashed=0;outlineConnect=0;shape=mxgraph.aws3d.application_server;fillColor=#ECECEC;strokeColor=#5E5E5E;aspect=fixed;rounded=0;fontSize=20;fontColor=#3819FF;" vertex="1" parent="TEyIeeMCU0l6fT6L0V6q-1">
          <mxGeometry x="-160" y="1216" width="123" height="124" as="geometry" />
        </mxCell>
        <mxCell id="moepnV5Xidtaibirs5T_-24" value="" style="verticalLabelPosition=bottom;html=1;verticalAlign=top;strokeWidth=1;align=center;outlineConnect=0;dashed=0;outlineConnect=0;shape=mxgraph.aws3d.application_server;fillColor=#ECECEC;strokeColor=#5E5E5E;aspect=fixed;rounded=0;fontSize=20;fontColor=#3819FF;opacity=30;" vertex="1" parent="TEyIeeMCU0l6fT6L0V6q-1">
          <mxGeometry x="-70" y="1279" width="123" height="124" as="geometry" />
        </mxCell>
        <mxCell id="moepnV5Xidtaibirs5T_-25" value="" style="edgeStyle=isometricEdgeStyle;endArrow=none;html=1;labelBackgroundColor=none;strokeWidth=5;fontFamily=Verdana;fontSize=12" edge="1" parent="TEyIeeMCU0l6fT6L0V6q-1" target="moepnV5Xidtaibirs5T_-22">
          <mxGeometry width="50" height="100" relative="1" as="geometry">
            <mxPoint x="-510" y="1230.0000000000005" as="sourcePoint" />
            <mxPoint x="-420" y="1160" as="targetPoint" />
            <Array as="points" />
          </mxGeometry>
        </mxCell>
        <mxCell id="moepnV5Xidtaibirs5T_-26" value="" style="edgeStyle=isometricEdgeStyle;endArrow=none;html=1;labelBackgroundColor=none;strokeWidth=5;fontFamily=Verdana;fontSize=12" edge="1" parent="TEyIeeMCU0l6fT6L0V6q-1">
          <mxGeometry width="50" height="100" relative="1" as="geometry">
            <mxPoint x="-240" y="1380.0000000000005" as="sourcePoint" />
            <mxPoint x="-140" y="1320.0000000000005" as="targetPoint" />
            <Array as="points" />
          </mxGeometry>
        </mxCell>
        <mxCell id="moepnV5Xidtaibirs5T_-27" value="" style="edgeStyle=isometricEdgeStyle;endArrow=none;html=1;labelBackgroundColor=none;strokeWidth=5;fontFamily=Verdana;fontSize=12" edge="1" parent="TEyIeeMCU0l6fT6L0V6q-1" source="moepnV5Xidtaibirs5T_-24">
          <mxGeometry width="50" height="100" relative="1" as="geometry">
            <mxPoint x="-189.99999999999977" y="1028.9753127012614" as="sourcePoint" />
            <mxPoint x="60" y="1020" as="targetPoint" />
            <Array as="points">
              <mxPoint y="1200" />
              <mxPoint x="-150" y="1090" />
              <mxPoint x="-120" y="1110" />
              <mxPoint x="-110" y="1090" />
              <mxPoint x="-170" y="1080" />
              <mxPoint x="30" y="1110" />
            </Array>
          </mxGeometry>
        </mxCell>
        <mxCell id="moepnV5Xidtaibirs5T_-28" value="" style="edgeStyle=isometricEdgeStyle;endArrow=none;html=1;labelBackgroundColor=none;strokeWidth=5;fontFamily=Verdana;fontSize=12" edge="1" parent="TEyIeeMCU0l6fT6L0V6q-1" source="moepnV5Xidtaibirs5T_-18">
          <mxGeometry width="50" height="100" relative="1" as="geometry">
            <mxPoint x="-178.17000000000021" y="1102.4900000000005" as="sourcePoint" />
            <mxPoint x="60" y="1020" as="targetPoint" />
            <Array as="points">
              <mxPoint x="-220" y="1070" />
            </Array>
          </mxGeometry>
        </mxCell>
        <mxCell id="moepnV5Xidtaibirs5T_-29" value="" style="edgeStyle=isometricEdgeStyle;endArrow=none;html=1;labelBackgroundColor=none;strokeWidth=5;fontFamily=Verdana;fontSize=12" edge="1" parent="TEyIeeMCU0l6fT6L0V6q-1">
          <mxGeometry width="50" height="100" relative="1" as="geometry">
            <mxPoint x="-320" y="1102.4899999999993" as="sourcePoint" />
            <mxPoint x="-250" y="1060" as="targetPoint" />
            <Array as="points" />
          </mxGeometry>
        </mxCell>
        <mxCell id="moepnV5Xidtaibirs5T_-30" value="" style="edgeStyle=isometricEdgeStyle;endArrow=none;html=1;labelBackgroundColor=none;strokeWidth=5;fontFamily=Verdana;fontSize=12" edge="1" parent="TEyIeeMCU0l6fT6L0V6q-1">
          <mxGeometry width="50" height="100" relative="1" as="geometry">
            <mxPoint x="-50" y="1240.4900000000002" as="sourcePoint" />
            <mxPoint y="1210" as="targetPoint" />
            <Array as="points" />
          </mxGeometry>
        </mxCell>
        <mxCell id="moepnV5Xidtaibirs5T_-31" value="" style="verticalLabelPosition=bottom;html=1;verticalAlign=top;strokeWidth=1;dashed=0;shape=mxgraph.aws3d.dashedArrowlessEdge;aspect=fixed;rounded=1;shadow=0;comic=0;fontFamily=Verdana;fontSize=12" vertex="1" parent="TEyIeeMCU0l6fT6L0V6q-1">
          <mxGeometry x="-1160" y="492.34" width="2026.3" height="1154.66" as="geometry" />
        </mxCell>
        <mxCell id="moepnV5Xidtaibirs5T_-32" value="" style="verticalLabelPosition=bottom;html=1;verticalAlign=top;strokeWidth=1;dashed=0;shape=mxgraph.aws3d.dashedArrowlessEdge;aspect=fixed;rounded=1;shadow=0;comic=0;fontFamily=Verdana;fontSize=12" vertex="1" parent="TEyIeeMCU0l6fT6L0V6q-1">
          <mxGeometry x="-1130" y="1169.25" width="831.82" height="474" as="geometry" />
        </mxCell>
        <mxCell id="moepnV5Xidtaibirs5T_-33" value="" style="edgeStyle=isometricEdgeStyle;endArrow=none;html=1;labelBackgroundColor=none;strokeWidth=5;fontFamily=Verdana;fontSize=12" edge="1" parent="TEyIeeMCU0l6fT6L0V6q-1">
          <mxGeometry width="50" height="100" relative="1" as="geometry">
            <mxPoint x="-650" y="1520.0000000000005" as="sourcePoint" />
            <mxPoint x="-510" y="1440.0000000000005" as="targetPoint" />
            <Array as="points" />
          </mxGeometry>
        </mxCell>
        <mxCell id="moepnV5Xidtaibirs5T_-34" value="3" style="ellipse;whiteSpace=wrap;html=1;aspect=fixed;strokeWidth=10;fontFamily=Tahoma;spacingBottom=4;spacingRight=2;strokeColor=#3819FF;rounded=0;fontSize=42;rotation=-30;" vertex="1" parent="TEyIeeMCU0l6fT6L0V6q-1">
          <mxGeometry x="-654.4" y="970" width="50" height="50" as="geometry" />
        </mxCell>
        <mxCell id="moepnV5Xidtaibirs5T_-35" value="&lt;font color=&quot;#3819ff&quot;&gt;&lt;span style=&quot;font-size: 30px&quot;&gt;&lt;b&gt;Load Static Content&lt;br&gt;&lt;/b&gt;&lt;/span&gt;&lt;/font&gt;" style="text;html=1;align=center;verticalAlign=middle;resizable=0;points=[];autosize=1;strokeColor=none;fillColor=none;rotation=-30;" vertex="1" parent="TEyIeeMCU0l6fT6L0V6q-1">
          <mxGeometry x="-680" y="1002.5" width="300" height="30" as="geometry" />
        </mxCell>
        <mxCell id="moepnV5Xidtaibirs5T_-36" value="" style="edgeStyle=isometricEdgeStyle;endArrow=none;html=1;labelBackgroundColor=none;strokeWidth=5;fontFamily=Verdana;fontSize=12" edge="1" parent="TEyIeeMCU0l6fT6L0V6q-1" target="moepnV5Xidtaibirs5T_-39">
          <mxGeometry width="50" height="100" relative="1" as="geometry">
            <mxPoint x="141.82999999999993" y="932.4900000000007" as="sourcePoint" />
            <mxPoint x="-230" y="530" as="targetPoint" />
            <Array as="points">
              <mxPoint x="91.83000000000004" y="832.49" />
            </Array>
          </mxGeometry>
        </mxCell>
        <mxCell id="moepnV5Xidtaibirs5T_-37" value="" style="verticalLabelPosition=bottom;html=1;verticalAlign=top;strokeWidth=1;dashed=0;shape=mxgraph.aws3d.dashedArrowlessEdge;aspect=fixed;rounded=1;shadow=0;comic=0;fontFamily=Verdana;fontSize=12" vertex="1" parent="TEyIeeMCU0l6fT6L0V6q-1">
          <mxGeometry x="-230" width="1386.36" height="790" as="geometry" />
        </mxCell>
        <mxCell id="moepnV5Xidtaibirs5T_-38" value="" style="edgeStyle=isometricEdgeStyle;endArrow=none;html=1;labelBackgroundColor=none;strokeWidth=5;fontFamily=Verdana;fontSize=12" edge="1" parent="TEyIeeMCU0l6fT6L0V6q-1" target="moepnV5Xidtaibirs5T_-40">
          <mxGeometry width="50" height="100" relative="1" as="geometry">
            <mxPoint x="140" y="934.6453127012605" as="sourcePoint" />
            <mxPoint x="870" y="1140" as="targetPoint" />
            <Array as="points">
              <mxPoint x="302.62" y="952.28" />
            </Array>
          </mxGeometry>
        </mxCell>
        <mxCell id="moepnV5Xidtaibirs5T_-39" value="" style="verticalLabelPosition=bottom;html=1;verticalAlign=top;strokeWidth=1;align=center;outlineConnect=0;dashed=0;outlineConnect=0;shape=mxgraph.aws3d.application_server;fillColor=#ECECEC;strokeColor=#5E5E5E;aspect=fixed;rounded=0;fontSize=20;fontColor=#3819FF;opacity=30;" vertex="1" parent="TEyIeeMCU0l6fT6L0V6q-1">
          <mxGeometry x="19.999999999999993" y="532.5" width="123" height="124" as="geometry" />
        </mxCell>
        <mxCell id="moepnV5Xidtaibirs5T_-40" value="" style="verticalLabelPosition=bottom;html=1;verticalAlign=top;strokeWidth=1;align=center;outlineConnect=0;dashed=0;outlineConnect=0;shape=mxgraph.aws3d.application_server;fillColor=#ECECEC;strokeColor=#5E5E5E;aspect=fixed;rounded=0;fontSize=20;fontColor=#3819FF;opacity=30;" vertex="1" parent="TEyIeeMCU0l6fT6L0V6q-1">
          <mxGeometry x="593.3" y="878.5" width="123" height="124" as="geometry" />
        </mxCell>
        <mxCell id="moepnV5Xidtaibirs5T_-41" value="" style="verticalLabelPosition=bottom;html=1;verticalAlign=top;strokeWidth=1;align=center;outlineConnect=0;dashed=0;outlineConnect=0;shape=mxgraph.aws3d.application_server;fillColor=#ECECEC;strokeColor=#5E5E5E;aspect=fixed;rounded=0;fontSize=20;fontColor=#3819FF;" vertex="1" parent="TEyIeeMCU0l6fT6L0V6q-1">
          <mxGeometry x="119.99999999999994" y="590" width="123" height="124" as="geometry" />
        </mxCell>
        <mxCell id="moepnV5Xidtaibirs5T_-42" value="" style="verticalLabelPosition=bottom;html=1;verticalAlign=top;strokeWidth=1;align=center;outlineConnect=0;dashed=0;outlineConnect=0;shape=mxgraph.aws3d.application_server;fillColor=#ECECEC;strokeColor=#5E5E5E;aspect=fixed;rounded=0;fontSize=20;fontColor=#3819FF;" vertex="1" parent="TEyIeeMCU0l6fT6L0V6q-1">
          <mxGeometry x="489.29999999999995" y="810" width="123" height="124" as="geometry" />
        </mxCell>
        <mxCell id="moepnV5Xidtaibirs5T_-43" value="" style="edgeStyle=isometricEdgeStyle;endArrow=none;html=1;labelBackgroundColor=none;strokeWidth=5;fontFamily=Verdana;fontSize=12" edge="1" parent="TEyIeeMCU0l6fT6L0V6q-1" target="moepnV5Xidtaibirs5T_-41">
          <mxGeometry width="50" height="100" relative="1" as="geometry">
            <mxPoint x="-20" y="770" as="sourcePoint" />
            <mxPoint x="120" y="690" as="targetPoint" />
            <Array as="points" />
          </mxGeometry>
        </mxCell>
        <mxCell id="moepnV5Xidtaibirs5T_-44" value="" style="edgeStyle=isometricEdgeStyle;endArrow=none;html=1;labelBackgroundColor=none;strokeWidth=5;fontFamily=Verdana;fontSize=12" edge="1" parent="TEyIeeMCU0l6fT6L0V6q-1">
          <mxGeometry width="50" height="100" relative="1" as="geometry">
            <mxPoint x="349.3000000000002" y="980.5" as="sourcePoint" />
            <mxPoint x="489.3000000000002" y="900.5" as="targetPoint" />
            <Array as="points" />
          </mxGeometry>
        </mxCell>
        <mxCell id="moepnV5Xidtaibirs5T_-45" value="&lt;font color=&quot;#cccc00&quot;&gt;&lt;span style=&quot;font-size: 30px&quot;&gt;&lt;b&gt;Web Application Servers&lt;/b&gt;&lt;/span&gt;&lt;br&gt;&lt;/font&gt;" style="text;html=1;align=center;verticalAlign=middle;resizable=0;points=[];autosize=1;strokeColor=none;fillColor=none;rotation=30;" vertex="1" parent="TEyIeeMCU0l6fT6L0V6q-1">
          <mxGeometry x="89.99999999999997" y="800" width="370" height="30" as="geometry" />
        </mxCell>
        <mxCell id="moepnV5Xidtaibirs5T_-46" value="4" style="ellipse;whiteSpace=wrap;html=1;aspect=fixed;strokeWidth=10;fontFamily=Tahoma;spacingBottom=4;spacingRight=2;strokeColor=#3819FF;rounded=0;fontSize=42;rotation=-30;" vertex="1" parent="TEyIeeMCU0l6fT6L0V6q-1">
          <mxGeometry x="-254.39999999999998" y="500" width="50" height="50" as="geometry" />
        </mxCell>
        <mxCell id="moepnV5Xidtaibirs5T_-47" value="&lt;font color=&quot;#3819ff&quot;&gt;&lt;span style=&quot;font-size: 30px&quot;&gt;&lt;b&gt;Execute Business Logic&lt;/b&gt;&lt;/span&gt;&lt;br&gt;&lt;/font&gt;" style="text;html=1;align=center;verticalAlign=middle;resizable=0;points=[];autosize=1;strokeColor=none;fillColor=none;rotation=-30;" vertex="1" parent="TEyIeeMCU0l6fT6L0V6q-1">
          <mxGeometry x="-310" y="532.5" width="360" height="30" as="geometry" />
        </mxCell>
        <mxCell id="moepnV5Xidtaibirs5T_-48" value="&lt;font color=&quot;#cccc00&quot;&gt;&lt;span style=&quot;font-size: 30px&quot;&gt;&lt;b&gt;Database Server&lt;/b&gt;&lt;/span&gt;&lt;br&gt;&lt;/font&gt;" style="text;html=1;align=center;verticalAlign=middle;resizable=0;points=[];autosize=1;strokeColor=none;fillColor=none;rotation=30;" vertex="1" parent="TEyIeeMCU0l6fT6L0V6q-1">
          <mxGeometry x="880" y="240" width="250" height="30" as="geometry" />
        </mxCell>
        <mxCell id="moepnV5Xidtaibirs5T_-49" value="" style="edgeStyle=isometricEdgeStyle;endArrow=none;html=1;labelBackgroundColor=none;strokeWidth=5;fontFamily=Verdana;fontSize=12;entryX=0.238;entryY=0.87;entryDx=0;entryDy=0;entryPerimeter=0;" edge="1" parent="TEyIeeMCU0l6fT6L0V6q-1" source="moepnV5Xidtaibirs5T_-40" target="moepnV5Xidtaibirs5T_-55">
          <mxGeometry width="50" height="100" relative="1" as="geometry">
            <mxPoint x="741.18" y="637.0729584448383" as="sourcePoint" />
            <mxPoint x="820" y="460" as="targetPoint" />
            <Array as="points">
              <mxPoint x="710" y="640" />
              <mxPoint x="538.18" y="421.58000000000004" />
              <mxPoint x="568.18" y="441.58000000000004" />
              <mxPoint x="578.18" y="421.58000000000004" />
              <mxPoint x="518.18" y="411.58000000000004" />
              <mxPoint x="718.18" y="441.58000000000004" />
            </Array>
          </mxGeometry>
        </mxCell>
        <mxCell id="moepnV5Xidtaibirs5T_-50" value="" style="edgeStyle=isometricEdgeStyle;endArrow=none;html=1;labelBackgroundColor=none;strokeWidth=5;fontFamily=Verdana;fontSize=12;entryX=0.223;entryY=0.871;entryDx=0;entryDy=0;entryPerimeter=0;" edge="1" parent="TEyIeeMCU0l6fT6L0V6q-1" source="moepnV5Xidtaibirs5T_-39" target="moepnV5Xidtaibirs5T_-55">
          <mxGeometry width="50" height="100" relative="1" as="geometry">
            <mxPoint x="295.5600000000005" y="378.07295844483826" as="sourcePoint" />
            <mxPoint x="748.18" y="351.58000000000004" as="targetPoint" />
            <Array as="points">
              <mxPoint x="490" y="510" />
            </Array>
          </mxGeometry>
        </mxCell>
        <mxCell id="moepnV5Xidtaibirs5T_-51" value="" style="edgeStyle=isometricEdgeStyle;endArrow=none;html=1;labelBackgroundColor=none;strokeWidth=5;fontFamily=Verdana;fontSize=12" edge="1" parent="TEyIeeMCU0l6fT6L0V6q-1" source="moepnV5Xidtaibirs5T_-41">
          <mxGeometry width="50" height="100" relative="1" as="geometry">
            <mxPoint x="368.17999999999995" y="434.0699999999998" as="sourcePoint" />
            <mxPoint x="460" y="490" as="targetPoint" />
            <Array as="points" />
          </mxGeometry>
        </mxCell>
        <mxCell id="moepnV5Xidtaibirs5T_-52" value="" style="edgeStyle=isometricEdgeStyle;endArrow=none;html=1;labelBackgroundColor=none;strokeWidth=5;fontFamily=Verdana;fontSize=12" edge="1" parent="TEyIeeMCU0l6fT6L0V6q-1" source="moepnV5Xidtaibirs5T_-42">
          <mxGeometry width="50" height="100" relative="1" as="geometry">
            <mxPoint x="638.18" y="572.0700000000003" as="sourcePoint" />
            <mxPoint x="830" y="710" as="targetPoint" />
            <Array as="points" />
          </mxGeometry>
        </mxCell>
        <mxCell id="moepnV5Xidtaibirs5T_-53" value="5" style="ellipse;whiteSpace=wrap;html=1;aspect=fixed;strokeWidth=10;fontFamily=Tahoma;spacingBottom=4;spacingRight=2;strokeColor=#3819FF;rounded=0;fontSize=42;rotation=-30;" vertex="1" parent="TEyIeeMCU0l6fT6L0V6q-1">
          <mxGeometry x="345.6" y="160" width="50" height="50" as="geometry" />
        </mxCell>
        <mxCell id="moepnV5Xidtaibirs5T_-54" value="&lt;font color=&quot;#3819ff&quot;&gt;&lt;span style=&quot;font-size: 30px&quot;&gt;&lt;b&gt;Execute Transaction&lt;/b&gt;&lt;/span&gt;&lt;br&gt;&lt;/font&gt;" style="text;html=1;align=center;verticalAlign=middle;resizable=0;points=[];autosize=1;strokeColor=none;fillColor=none;rotation=-30;" vertex="1" parent="TEyIeeMCU0l6fT6L0V6q-1">
          <mxGeometry x="327.3" y="190" width="310" height="30" as="geometry" />
        </mxCell>
        <mxCell id="moepnV5Xidtaibirs5T_-55" value="" style="verticalLabelPosition=bottom;html=1;verticalAlign=top;strokeWidth=1;align=center;outlineConnect=0;dashed=0;outlineConnect=0;shape=mxgraph.aws3d.application_server;fillColor=#ECECEC;strokeColor=#5E5E5E;aspect=fixed;rounded=0;fontSize=20;fontColor=#3819FF;" vertex="1" parent="TEyIeeMCU0l6fT6L0V6q-1">
          <mxGeometry x="780" y="250" width="228.15" height="230" as="geometry" />
        </mxCell>
        <mxCell id="moepnV5Xidtaibirs5T_-56" value="" style="strokeWidth=5;html=1;shape=mxgraph.flowchart.database;whiteSpace=wrap;rounded=0;fontSize=72;fontColor=#3819FF;" vertex="1" parent="TEyIeeMCU0l6fT6L0V6q-1">
          <mxGeometry x="955" y="320" width="100" height="123" as="geometry" />
        </mxCell>
        <mxCell id="moepnV5Xidtaibirs5T_-57" value="&lt;span style=&quot;font-size: 30px&quot;&gt;&lt;b&gt;&lt;font color=&quot;#ffffff&quot;&gt;Auto &lt;br&gt;Scaling&lt;/font&gt;&lt;/b&gt;&lt;/span&gt;" style="text;html=1;align=center;verticalAlign=middle;resizable=0;points=[];autosize=1;strokeColor=none;fillColor=none;rotation=30;" vertex="1" parent="TEyIeeMCU0l6fT6L0V6q-1">
          <mxGeometry x="310.59999999999997" y="750" width="120" height="50" as="geometry" />
        </mxCell>
        <mxCell id="moepnV5Xidtaibirs5T_-58" value="&lt;font&gt;&lt;b&gt;&lt;span style=&quot;font-size: 40px&quot;&gt;Web &lt;br&gt;Servers&lt;/span&gt;&lt;br&gt;&lt;/b&gt;&lt;/font&gt;" style="text;html=1;align=center;verticalAlign=middle;resizable=0;points=[];autosize=1;strokeColor=none;fillColor=none;rotation=30;shadow=0;sketch=0;rounded=0;glass=0;labelBorderColor=none;labelBackgroundColor=none;fontColor=#FF4D0D;" vertex="1" parent="TEyIeeMCU0l6fT6L0V6q-1">
          <mxGeometry x="-88.5" y="1530" width="160" height="50" as="geometry" />
        </mxCell>
        <mxCell id="moepnV5Xidtaibirs5T_-59" value="&lt;font&gt;&lt;b&gt;&lt;span style=&quot;font-size: 40px&quot;&gt;Application &lt;br&gt;Servers&lt;/span&gt;&lt;br&gt;&lt;/b&gt;&lt;/font&gt;" style="text;html=1;align=center;verticalAlign=middle;resizable=0;points=[];autosize=1;strokeColor=none;fillColor=none;rotation=30;shadow=0;sketch=0;rounded=0;glass=0;labelBorderColor=none;labelBackgroundColor=none;fontColor=#FF4D0D;" vertex="1" parent="TEyIeeMCU0l6fT6L0V6q-1">
          <mxGeometry x="585.0000000000001" y="1130" width="230" height="50" as="geometry" />
        </mxCell>
        <mxCell id="moepnV5Xidtaibirs5T_-60" value="&lt;font&gt;&lt;b&gt;&lt;span style=&quot;font-size: 40px&quot;&gt;Database &lt;br&gt;Servers&lt;/span&gt;&lt;br&gt;&lt;/b&gt;&lt;/font&gt;" style="text;html=1;align=center;verticalAlign=middle;resizable=0;points=[];autosize=1;strokeColor=none;fillColor=none;rotation=30;shadow=0;sketch=0;rounded=0;glass=0;labelBorderColor=none;labelBackgroundColor=none;fontColor=#FF4D0D;" vertex="1" parent="TEyIeeMCU0l6fT6L0V6q-1">
          <mxGeometry x="561.2800000000001" y="260" width="190" height="50" as="geometry" />
        </mxCell>
        <mxCell id="moepnV5Xidtaibirs5T_-61" value="" style="verticalLabelPosition=bottom;html=1;verticalAlign=top;strokeWidth=1;align=center;outlineConnect=0;dashed=0;outlineConnect=0;shape=mxgraph.aws3d.elasticLoadBalancing;fillColor=#ECECEC;strokeColor=#5E5E5E;aspect=fixed;rounded=0;fontSize=42;" vertex="1" parent="TEyIeeMCU0l6fT6L0V6q-1">
          <mxGeometry x="2.4700000000000006" y="910" width="158.07" height="151.5" as="geometry" />
        </mxCell>
        <mxCell id="moepnV5Xidtaibirs5T_-62" value="&lt;font color=&quot;#cccc00&quot;&gt;&lt;font style=&quot;font-size: 30px&quot;&gt;&lt;b&gt;Load Balancer&lt;/b&gt;&lt;/font&gt;&lt;br&gt;&lt;/font&gt;" style="text;html=1;align=center;verticalAlign=middle;resizable=0;points=[];autosize=1;strokeColor=none;fillColor=none;rotation=30;" vertex="1" parent="TEyIeeMCU0l6fT6L0V6q-1">
          <mxGeometry x="71.5" y="1114" width="220" height="30" as="geometry" />
        </mxCell>
        <mxCell id="moepnV5Xidtaibirs5T_-63" value="&lt;span style=&quot;font-size: 20px&quot;&gt;Copyright 2022. &lt;br&gt;imcf all rights reserved.&lt;/span&gt;" style="text;html=1;align=left;verticalAlign=middle;resizable=0;points=[];autosize=1;fontSize=22;rounded=0;" vertex="1" parent="TEyIeeMCU0l6fT6L0V6q-1">
          <mxGeometry x="939" y="1590" width="220" height="60" as="geometry" />
        </mxCell>
        <mxCell id="moepnV5Xidtaibirs5T_-64" value="" style="sketch=0;pointerEvents=1;shadow=0;dashed=0;html=1;strokeColor=none;fillColor=#505050;labelPosition=center;verticalLabelPosition=bottom;verticalAlign=top;outlineConnect=0;align=center;shape=mxgraph.office.devices.cell_phone_iphone_proportional;rounded=0;glass=0;labelBackgroundColor=none;labelBorderColor=none;fontSize=36;fontColor=#FF4D0D;rotation=30;opacity=70;" vertex="1" parent="TEyIeeMCU0l6fT6L0V6q-1">
          <mxGeometry x="-560" y="1540" width="30" height="59.5" as="geometry" />
        </mxCell>
        <mxCell id="moepnV5Xidtaibirs5T_-65" value="" style="shape=image;html=1;verticalAlign=top;verticalLabelPosition=bottom;labelBackgroundColor=#ffffff;imageAspect=0;aspect=fixed;image=https://cdn1.iconfinder.com/data/icons/technology-and-hardware-2/200/vector_66_08-128.png;rounded=0;shadow=0;glass=0;labelBorderColor=none;sketch=0;fontSize=36;fontColor=#FF4D0D;strokeColor=#3819FF;strokeWidth=5;fillColor=#DBDBDB;gradientColor=none;gradientDirection=radial;rotation=30;" vertex="1" parent="TEyIeeMCU0l6fT6L0V6q-1">
          <mxGeometry x="-630" y="1521.5" width="58.5" height="58.5" as="geometry" />
        </mxCell>
      </root>
    </mxGraphModel>
  </diagram>
</mxfile>
